<svg width="753" height="200" viewBox="0 0 753 200" fill="none" xmlns="http://www.w3.org/2000/svg">
<defs>
  <filter id="dropShadow" x="-20%" y="-20%" width="140%" height="140%">
    <feDropShadow dx="0" dy="2" stdDeviation="2" flood-color="#636363" flood-opacity="0.3"/>
  </filter>
</defs>
<path d="M376.637 104.161C376.812 103.928 377.017 103.928 377.251 104.161C377.543 104.337 377.63 104.512 377.513 104.687C376.637 105.973 375.439 107.463 373.92 109.157C372.401 110.851 370.765 112.458 369.012 113.977C367.26 115.496 365.448 116.782 363.579 117.833C361.768 118.885 360.044 119.411 358.408 119.411C356.538 119.411 355.165 118.768 354.289 117.483C353.354 116.197 352.887 114.62 352.887 112.75C352.887 111.289 353.15 109.77 353.675 108.193C354.143 106.557 354.844 105.096 355.779 103.811C356.772 102.467 357.97 101.357 359.372 100.481C360.774 99.6042 362.352 99.166 364.105 99.166C365.39 99.166 366.383 99.4873 367.084 100.13C367.844 100.773 368.224 101.649 368.224 102.759C368.224 103.402 368.019 104.045 367.61 104.687C367.26 105.272 366.646 105.827 365.77 106.352C364.893 106.878 363.725 107.287 362.264 107.579C360.862 107.872 359.109 108.018 357.006 108.018C356.305 110.063 355.954 112.049 355.954 113.977C355.954 115.262 356.159 116.343 356.568 117.22C356.977 118.038 357.648 118.447 358.583 118.447C360.044 118.447 361.651 117.921 363.403 116.869C365.156 115.818 366.88 114.561 368.574 113.101C370.269 111.582 371.817 110.004 373.219 108.368C374.68 106.732 375.819 105.33 376.637 104.161ZM364.806 100.218C363.111 100.218 361.651 100.89 360.424 102.233C359.197 103.577 358.174 105.184 357.356 107.054C359.226 107.054 360.804 106.937 362.089 106.703C363.374 106.411 364.397 106.06 365.156 105.651C365.916 105.184 366.442 104.687 366.734 104.161C367.084 103.636 367.26 103.11 367.26 102.584C367.201 101.941 366.938 101.386 366.471 100.919C366.003 100.451 365.448 100.218 364.806 100.218Z" fill="white" filter="url(#dropShadow)" />
<path d="M355.672 104.161C355.848 103.928 356.052 103.928 356.286 104.161C356.578 104.337 356.666 104.512 356.549 104.687C353.803 108.543 350.677 111.874 347.171 114.678C343.666 117.483 339.985 120.053 336.129 122.391C335.661 124.494 335.048 127.094 334.288 130.19C333.529 133.345 332.594 136.617 331.484 140.006C330.432 143.453 329.147 146.871 327.628 150.26C326.167 153.707 324.473 156.775 322.544 159.462C320.616 162.15 318.455 164.341 316.059 166.035C313.664 167.73 311.034 168.547 308.172 168.489C306.477 168.489 304.987 168.109 303.702 167.35C302.417 166.649 301.336 165.714 300.459 164.545C299.583 163.435 298.94 162.15 298.531 160.689C298.064 159.228 297.83 157.709 297.83 156.132C297.83 152.626 298.56 149.53 300.021 146.842C301.482 144.213 303.439 141.788 305.893 139.568C308.347 137.406 311.181 135.361 314.394 133.433C317.607 131.563 320.996 129.665 324.56 127.737C325.962 126.977 327.365 126.188 328.767 125.37C330.228 124.611 331.688 123.822 333.149 123.004C334.025 119.732 334.814 116.665 335.515 113.802C336.216 110.88 336.888 108.281 337.531 106.002C336.888 107.17 336.187 108.427 335.428 109.77C334.668 111.056 333.85 112.254 332.974 113.364C332.156 114.474 331.279 115.379 330.344 116.08C329.468 116.782 328.533 117.132 327.54 117.132C326.313 117.074 325.437 116.636 324.911 115.818C324.327 115 324.064 113.919 324.122 112.575C324.122 111.289 324.414 109.858 324.998 108.281C325.583 106.703 326.371 105.272 327.365 103.986C328.358 102.642 329.497 101.532 330.783 100.656C332.126 99.7794 333.587 99.3412 335.165 99.3412C336.041 99.3412 336.742 99.5165 337.268 99.8671C337.794 100.159 338.232 100.656 338.583 101.357C338.699 101.649 338.612 101.883 338.32 102.058C338.086 102.175 337.852 102.058 337.619 101.708C337.21 100.773 336.596 100.305 335.778 100.305C334.726 100.305 333.646 100.86 332.535 101.97C331.484 103.081 330.52 104.395 329.643 105.914C328.767 107.375 328.037 108.923 327.452 110.559C326.868 112.137 326.576 113.422 326.576 114.415C326.576 114.824 326.634 115.204 326.751 115.555C326.868 115.905 327.16 116.08 327.628 116.08C328.679 116.08 329.731 115.525 330.783 114.415C331.834 113.305 332.828 111.991 333.762 110.472C334.756 108.894 335.661 107.346 336.479 105.827C337.297 104.308 337.969 103.139 338.495 102.321C338.495 102.087 338.699 101.97 339.108 101.97C339.576 101.97 339.751 102.117 339.634 102.409C339.342 104.629 338.933 107.346 338.407 110.559C337.881 113.773 337.239 117.278 336.479 121.076C340.16 118.856 343.636 116.402 346.908 113.714C350.18 110.968 353.102 107.784 355.672 104.161ZM307.909 167.525C310.246 167.525 312.437 166.678 314.482 164.983C316.468 163.348 318.309 161.215 320.003 158.586C321.697 155.957 323.246 153.006 324.648 149.734C325.992 146.521 327.189 143.307 328.241 140.094C329.351 136.88 330.257 133.871 330.958 131.067C331.717 128.262 332.331 126.013 332.798 124.319C331.513 125.078 330.228 125.808 328.942 126.51C327.657 127.211 326.342 127.912 324.998 128.613C321.493 130.483 318.163 132.323 315.007 134.134C311.852 136.004 309.077 137.99 306.682 140.094C304.286 142.256 302.387 144.622 300.985 147.193C299.524 149.822 298.794 152.802 298.794 156.132C298.794 157.476 298.999 158.819 299.408 160.163C299.817 161.507 300.401 162.705 301.16 163.757C301.92 164.867 302.884 165.772 304.052 166.473C305.163 167.174 306.448 167.525 307.909 167.525Z" fill="white" filter="url(#dropShadow)" />
<path d="M327.17 104.249C327.345 103.957 327.55 103.928 327.783 104.161C328.076 104.337 328.134 104.541 327.959 104.775C327.141 106.002 325.943 107.609 324.365 109.595C322.846 111.582 321.181 113.539 319.37 115.467C317.559 117.337 315.748 118.973 313.936 120.375C312.125 121.719 310.518 122.391 309.116 122.391C308.357 122.391 307.743 122.244 307.276 121.952C306.808 121.602 306.428 121.193 306.136 120.725C305.844 120.2 305.64 119.615 305.523 118.973C305.406 118.33 305.348 117.687 305.348 117.044C305.348 116.051 305.435 115.029 305.611 113.977C305.844 112.925 306.107 111.845 306.399 110.734C305.348 112.429 304.208 113.919 302.981 115.204C301.813 116.489 300.557 117.132 299.213 117.132C297.927 117.074 297.022 116.636 296.496 115.818C295.912 115 295.649 113.919 295.707 112.575C295.707 111.289 295.999 109.858 296.584 108.281C297.168 106.703 297.957 105.272 298.95 103.986C299.943 102.642 301.082 101.532 302.368 100.656C303.712 99.7794 305.172 99.3412 306.75 99.3412C308.444 99.3412 309.583 100.013 310.168 101.357C310.343 101.649 310.285 101.883 309.992 102.058C309.7 102.175 309.467 102.058 309.291 101.708C309.058 101.299 308.795 100.977 308.503 100.743C308.21 100.451 307.831 100.305 307.363 100.305C306.312 100.305 305.26 100.86 304.208 101.97C303.157 103.081 302.193 104.395 301.316 105.914C300.44 107.375 299.709 108.923 299.125 110.559C298.541 112.137 298.249 113.422 298.249 114.415C298.19 114.824 298.249 115.204 298.424 115.555C298.541 115.905 298.833 116.08 299.3 116.08C300.177 116.08 301.024 115.701 301.842 114.941C302.718 114.123 303.566 113.13 304.384 111.961C305.26 110.793 306.049 109.537 306.75 108.193C307.509 106.849 308.181 105.651 308.766 104.6C309.058 104.015 309.321 103.519 309.554 103.11C309.846 102.642 310.109 102.263 310.343 101.97C310.46 101.854 310.635 101.883 310.869 102.058C311.161 102.175 311.307 102.292 311.307 102.409C311.366 103.051 311.219 104.103 310.869 105.564C310.577 106.966 310.226 108.514 309.817 110.209C309.408 111.845 308.999 113.48 308.59 115.116C308.24 116.752 308.064 118.125 308.064 119.235C308.064 119.703 308.123 120.2 308.24 120.725C308.357 121.193 308.707 121.426 309.291 121.426C310.46 121.426 311.891 120.755 313.586 119.411C315.339 118.009 317.091 116.373 318.844 114.503C320.597 112.575 322.233 110.647 323.752 108.719C325.271 106.791 326.41 105.301 327.17 104.249Z" fill="white" filter="url(#dropShadow)" />
<path d="M298.864 104.249C299.04 103.957 299.244 103.928 299.478 104.161C299.77 104.337 299.828 104.541 299.653 104.775C298.835 105.943 297.696 107.346 296.235 108.982C294.833 110.618 293.285 112.195 291.59 113.714C289.954 115.175 288.26 116.431 286.507 117.483C284.813 118.534 283.264 119.06 281.862 119.06C280.343 119.06 279.35 118.505 278.883 117.395C278.357 116.226 278.094 115 278.094 113.714C278.094 111.26 278.357 109.274 278.883 107.755C279.35 106.236 279.934 105.009 280.635 104.074C280.752 103.898 280.986 103.811 281.336 103.811C281.745 103.811 281.979 103.898 282.038 104.074C282.096 104.658 282.067 105.418 281.95 106.352C281.833 107.229 281.687 108.193 281.512 109.245C281.336 110.296 281.161 111.406 280.986 112.575C280.869 113.743 280.811 114.883 280.811 115.993C280.811 116.46 280.869 116.928 280.986 117.395C281.103 117.862 281.453 118.096 282.038 118.096C283.206 118.096 284.608 117.57 286.244 116.519C287.88 115.467 289.516 114.211 291.152 112.75C292.788 111.289 294.307 109.77 295.709 108.193C297.112 106.615 298.163 105.301 298.864 104.249ZM281.95 101.795C281.482 101.795 281.103 101.649 280.811 101.357C280.518 101.065 280.372 100.685 280.372 100.218C280.372 99.7502 280.518 99.3704 280.811 99.0783C281.103 98.7862 281.482 98.6401 281.95 98.6401C282.417 98.6401 282.797 98.7862 283.089 99.0783C283.381 99.3704 283.527 99.7502 283.527 100.218C283.527 100.685 283.381 101.065 283.089 101.357C282.797 101.649 282.417 101.795 281.95 101.795Z" fill="white" filter="url(#dropShadow)" />
<path d="M280.511 104.161C280.686 103.928 280.891 103.928 281.124 104.161C281.358 104.337 281.416 104.541 281.3 104.775C280.657 105.651 279.81 106.849 278.758 108.368C277.706 109.829 276.509 111.436 275.165 113.188C273.821 114.883 272.419 116.606 270.958 118.359C269.497 120.112 268.037 121.689 266.576 123.092C265.115 124.494 263.713 125.633 262.369 126.51C261.026 127.444 259.828 127.883 258.776 127.824C257.374 127.766 256.381 127.269 255.796 126.334C255.271 125.399 255.008 124.289 255.008 123.004C255.008 121.251 255.241 119.528 255.709 117.833C256.176 116.08 256.702 114.386 257.286 112.75C257.87 111.114 258.426 109.595 258.951 108.193C259.477 106.732 259.74 105.476 259.74 104.424C259.74 103.373 259.536 102.409 259.127 101.532C258.718 100.597 258.192 99.6918 257.549 98.8154C256.322 100.86 255.008 102.905 253.605 104.95C253.372 105.242 253.109 105.301 252.817 105.125C252.583 104.95 252.554 104.716 252.729 104.424C254.365 102.146 255.738 99.9839 256.848 97.939C255.796 96.5368 254.745 95.1053 253.693 93.6446C252.7 92.1256 252.203 90.402 252.203 88.4739C252.203 86.9548 252.612 85.8155 253.43 85.0559C254.306 84.238 255.271 83.829 256.322 83.829C257.841 83.829 258.981 84.4425 259.74 85.6694C260.558 86.8379 260.967 88.0941 260.967 89.4379C260.967 90.7233 260.646 92.1256 260.003 93.6446C259.419 95.1053 258.835 96.3907 258.25 97.5008C259.185 98.7278 259.974 100.042 260.617 101.445C261.318 102.788 261.668 104.366 261.668 106.177C261.668 107.696 261.435 109.245 260.967 110.822C260.558 112.4 260.091 113.977 259.565 115.555C259.097 117.132 258.659 118.71 258.25 120.287C257.9 121.806 257.724 123.267 257.724 124.669C257.783 125.195 257.87 125.692 257.987 126.159C258.163 126.626 258.572 126.86 259.214 126.86C260.091 126.86 261.142 126.393 262.369 125.458C263.596 124.581 264.911 123.442 266.313 122.04C267.715 120.638 269.118 119.06 270.52 117.307C271.981 115.555 273.354 113.86 274.639 112.224C275.924 110.53 277.064 108.982 278.057 107.579C279.109 106.119 279.927 104.979 280.511 104.161ZM253.342 88.4739C253.342 90.0514 253.781 91.4829 254.657 92.7682C255.533 94.0536 256.497 95.3682 257.549 96.712C258.075 95.7188 258.601 94.5503 259.127 93.2064C259.711 91.8042 260.003 90.548 260.003 89.4379C260.003 88.3862 259.682 87.3638 259.039 86.3705C258.455 85.3189 257.578 84.793 256.41 84.793C255.592 84.793 254.862 85.1144 254.219 85.7571C253.635 86.3997 253.342 87.3054 253.342 88.4739Z" fill="white" filter="url(#dropShadow)" />
<path d="M252.952 104.161C253.127 103.928 253.332 103.928 253.566 104.161C253.799 104.337 253.858 104.541 253.741 104.775C253.098 105.651 252.251 106.849 251.199 108.368C250.148 109.829 248.95 111.436 247.606 113.188C246.262 114.883 244.86 116.606 243.399 118.359C241.939 120.112 240.478 121.689 239.017 123.092C237.557 124.494 236.155 125.633 234.811 126.51C233.467 127.444 232.269 127.883 231.218 127.824C229.815 127.766 228.822 127.269 228.238 126.334C227.712 125.399 227.449 124.289 227.449 123.004C227.449 121.251 227.683 119.528 228.15 117.833C228.618 116.08 229.143 114.386 229.728 112.75C230.312 111.114 230.867 109.595 231.393 108.193C231.919 106.732 232.182 105.476 232.182 104.424C232.182 103.373 231.977 102.409 231.568 101.532C231.159 100.597 230.633 99.6918 229.991 98.8154C228.764 100.86 227.449 102.905 226.047 104.95C225.813 105.242 225.55 105.301 225.258 105.125C225.024 104.95 224.995 104.716 225.17 104.424C226.806 102.146 228.179 99.9839 229.289 97.939C228.238 96.5368 227.186 95.1053 226.134 93.6446C225.141 92.1256 224.645 90.402 224.645 88.4739C224.645 86.9548 225.054 85.8155 225.871 85.0559C226.748 84.238 227.712 83.829 228.764 83.829C230.283 83.829 231.422 84.4425 232.182 85.6694C233 86.8379 233.409 88.0941 233.409 89.4379C233.409 90.7233 233.087 92.1256 232.444 93.6446C231.86 95.1053 231.276 96.3907 230.692 97.5008C231.626 98.7278 232.415 100.042 233.058 101.445C233.759 102.788 234.11 104.366 234.11 106.177C234.11 107.696 233.876 109.245 233.409 110.822C233 112.4 232.532 113.977 232.006 115.555C231.539 117.132 231.101 118.71 230.692 120.287C230.341 121.806 230.166 123.267 230.166 124.669C230.224 125.195 230.312 125.692 230.429 126.159C230.604 126.626 231.013 126.86 231.656 126.86C232.532 126.86 233.584 126.393 234.811 125.458C236.038 124.581 237.352 123.442 238.755 122.04C240.157 120.638 241.559 119.06 242.961 117.307C244.422 115.555 245.795 113.86 247.08 112.224C248.366 110.53 249.505 108.982 250.498 107.579C251.55 106.119 252.368 104.979 252.952 104.161ZM225.784 88.4739C225.784 90.0514 226.222 91.4829 227.098 92.7682C227.975 94.0536 228.939 95.3682 229.991 96.712C230.516 95.7188 231.042 94.5503 231.568 93.2064C232.152 91.8042 232.444 90.548 232.444 89.4379C232.444 88.3862 232.123 87.3638 231.48 86.3705C230.896 85.3189 230.02 84.793 228.851 84.793C228.033 84.793 227.303 85.1144 226.66 85.7571C226.076 86.3997 225.784 87.3054 225.784 88.4739Z" fill="white" filter="url(#dropShadow)" />
<path d="M225.238 104.249C225.414 103.957 225.618 103.928 225.852 104.161C226.144 104.337 226.202 104.541 226.027 104.775C225.209 106.002 224.011 107.609 222.434 109.595C220.915 111.582 219.25 113.539 217.438 115.467C215.627 117.337 213.816 118.973 212.005 120.375C210.193 121.719 208.587 122.391 207.184 122.391C206.425 122.391 205.811 122.244 205.344 121.952C204.877 121.602 204.497 121.193 204.205 120.725C203.913 120.2 203.708 119.615 203.591 118.973C203.474 118.33 203.416 117.687 203.416 117.044C203.416 116.051 203.504 115.029 203.679 113.977C203.913 112.925 204.175 111.845 204.468 110.734C203.416 112.429 202.277 113.919 201.05 115.204C199.881 116.489 198.625 117.132 197.281 117.132C195.996 117.074 195.09 116.636 194.564 115.818C193.98 115 193.717 113.919 193.776 112.575C193.776 111.289 194.068 109.858 194.652 108.281C195.236 106.703 196.025 105.272 197.018 103.986C198.011 102.642 199.151 101.532 200.436 100.656C201.78 99.7794 203.241 99.3412 204.818 99.3412C206.513 99.3412 207.652 100.013 208.236 101.357C208.411 101.649 208.353 101.883 208.061 102.058C207.769 102.175 207.535 102.058 207.36 101.708C207.126 101.299 206.863 100.977 206.571 100.743C206.279 100.451 205.899 100.305 205.432 100.305C204.38 100.305 203.328 100.86 202.277 101.97C201.225 103.081 200.261 104.395 199.384 105.914C198.508 107.375 197.778 108.923 197.193 110.559C196.609 112.137 196.317 113.422 196.317 114.415C196.259 114.824 196.317 115.204 196.492 115.555C196.609 115.905 196.901 116.08 197.369 116.08C198.245 116.08 199.092 115.701 199.91 114.941C200.787 114.123 201.634 113.13 202.452 111.961C203.328 110.793 204.117 109.537 204.818 108.193C205.578 106.849 206.25 105.651 206.834 104.6C207.126 104.015 207.389 103.519 207.623 103.11C207.915 102.642 208.178 102.263 208.411 101.97C208.528 101.854 208.704 101.883 208.937 102.058C209.229 102.175 209.375 102.292 209.375 102.409C209.434 103.051 209.288 104.103 208.937 105.564C208.645 106.966 208.295 108.514 207.886 110.209C207.477 111.845 207.068 113.48 206.659 115.116C206.308 116.752 206.133 118.125 206.133 119.235C206.133 119.703 206.191 120.2 206.308 120.725C206.425 121.193 206.775 121.426 207.36 121.426C208.528 121.426 209.96 120.755 211.654 119.411C213.407 118.009 215.16 116.373 216.912 114.503C218.665 112.575 220.301 110.647 221.82 108.719C223.339 106.791 224.479 105.301 225.238 104.249Z" fill="white" filter="url(#dropShadow)" />
<path d="M196.95 104.249C197.184 103.957 197.417 103.928 197.651 104.161C197.885 104.395 197.943 104.6 197.826 104.775C196.541 106.645 194.905 108.865 192.918 111.436C190.99 113.948 188.829 116.577 186.433 119.323C184.096 122.011 181.584 124.669 178.896 127.298C176.208 129.928 173.492 132.265 170.746 134.31C167.999 136.413 165.253 138.078 162.507 139.305C159.82 140.532 157.249 141.116 154.795 141.058C152.166 140.999 150.033 140.298 148.397 138.954C146.761 137.611 145.505 135.916 144.629 133.871C143.752 131.885 143.168 129.694 142.876 127.298C142.642 124.961 142.555 122.741 142.613 120.638C142.672 117.307 143.081 113.364 143.84 108.806C144.6 104.191 145.622 99.2828 146.908 94.0828C148.193 88.8244 149.712 83.4784 151.465 78.0447C153.276 72.6111 155.204 67.3819 157.249 62.3572C159.352 57.3325 161.543 52.7168 163.822 48.5101C166.101 44.3034 168.438 40.827 170.833 38.081L171.972 36.854C170.278 37.8473 168.467 39.1619 166.539 40.7978C164.611 42.3753 162.624 44.1281 160.579 46.0562C158.593 47.9843 156.636 50 154.707 52.1034C152.779 54.1483 150.968 56.1348 149.274 58.0629C147.579 59.9325 146.06 61.6561 144.717 63.2336C143.373 64.8111 142.35 66.0673 141.649 67.0021C139.429 69.865 137.355 72.7279 135.427 75.5908C133.499 78.4537 131.775 81.2582 130.256 84.0042C130.373 85.9908 130.373 87.948 130.256 89.8761C130.256 90.3435 130.168 91.2784 129.993 92.6806C129.876 94.0244 129.672 95.4266 129.38 96.8873C129.087 98.348 128.678 99.6334 128.153 100.743C127.627 101.854 126.984 102.409 126.225 102.409C125.816 102.409 125.494 102.292 125.26 102.058C125.027 101.766 124.822 101.445 124.647 101.094C124.53 100.685 124.442 100.276 124.384 99.8671C124.384 99.3996 124.384 99.0199 124.384 98.7277C124.326 96.2154 124.822 93.6446 125.874 91.0154C126.926 88.3862 128.065 85.9615 129.292 83.7413C129 79.4178 128.123 74.656 126.663 69.456C125.26 64.1977 123.449 59.0853 121.229 54.1191C119.184 49.5618 116.876 45.4719 114.305 41.8495C111.735 38.227 109.047 35.6271 106.243 34.0496C105.6 33.699 105.366 33.3776 105.542 33.0855C105.717 32.7934 106.067 32.7934 106.593 33.0855C109.573 34.7799 112.377 37.4675 115.007 41.1484C117.636 44.8293 120.002 49.036 122.105 53.7685C124.209 58.4426 125.962 63.292 127.364 68.3167C128.766 73.3414 129.672 77.9863 130.081 82.2515C131.6 79.6807 133.265 77.0807 135.076 74.4515C136.946 71.7639 138.903 69.0763 140.948 66.3886C141.824 65.2785 143.081 63.7302 144.717 61.7437C146.411 59.6988 148.31 57.5078 150.413 55.1707C152.575 52.8337 154.854 50.4382 157.249 47.9843C159.644 45.5304 162.011 43.3102 164.348 41.3237C166.685 39.3372 168.905 37.672 171.008 36.3282C173.112 34.9844 174.952 34.254 176.53 34.1372C176.88 34.0788 177.056 34.2248 177.056 34.5754C177.114 34.8675 176.939 35.0428 176.53 35.1012C175.069 35.3934 173.404 36.5911 171.534 38.6945C169.431 41.09 167.328 44.4495 165.224 48.773C163.179 53.0966 161.193 57.9168 159.265 63.2336C157.337 68.492 155.525 74.0425 153.831 79.8852C152.137 85.6694 150.676 91.2784 149.449 96.712C148.222 102.146 147.229 107.17 146.469 111.786C145.768 116.343 145.388 120.053 145.33 122.916C145.33 124.611 145.418 126.451 145.593 128.438C145.768 130.424 146.177 132.265 146.82 133.959C147.521 135.712 148.514 137.172 149.8 138.341C151.143 139.509 152.925 140.123 155.146 140.181C157.483 140.24 159.966 139.626 162.595 138.341C165.224 137.056 167.883 135.361 170.57 133.258C173.258 131.213 175.916 128.876 178.545 126.247C181.175 123.676 183.629 121.047 185.907 118.359C188.244 115.671 190.348 113.101 192.217 110.647C194.145 108.193 195.723 106.06 196.95 104.249ZM90.0293 31.508C94.8202 31.508 98.8809 32.2968 102.211 33.8743C105.6 35.4518 108.346 37.6428 110.449 40.4473C112.611 43.1933 114.159 46.4944 115.094 50.3506C116.029 54.1483 116.467 58.2674 116.409 62.7078C116.234 69.4268 115.182 76.2919 113.254 83.3031C111.326 90.3143 108.667 97.121 105.279 103.723C101.89 110.325 97.8584 116.606 93.1843 122.566C88.5102 128.525 83.3394 133.842 77.672 138.516C72.0631 143.19 66.0159 147.076 59.5306 150.172C53.1037 153.327 46.4138 155.372 39.4611 156.307C39.1105 156.366 38.906 156.219 38.8476 155.869C38.8476 155.577 38.9937 155.401 39.2858 155.343C46.1217 154.408 52.6655 152.334 58.9171 149.121C65.1688 145.966 70.9822 141.993 76.3575 137.202C81.7911 132.469 86.7282 127.094 91.1686 121.076C95.6674 115 99.5236 108.66 102.737 102.058C105.95 95.4559 108.492 88.7076 110.362 81.8133C112.231 74.9189 113.283 68.2291 113.517 61.7437C113.692 57.537 113.371 53.6517 112.553 50.0876C111.735 46.5236 110.362 43.427 108.434 40.7978C106.564 38.1686 104.11 36.1237 101.072 34.663C98.0337 33.2024 94.3528 32.472 90.0293 32.472C85.5888 32.472 81.0024 33.2024 76.2698 34.663C71.5373 36.0653 66.8047 38.0518 62.0722 40.6225C57.3396 43.1349 52.6947 46.1438 48.1374 49.6494C43.6386 53.155 39.3442 56.982 35.2544 61.1303C31.2229 65.2785 27.4836 69.6897 24.0365 74.3639C20.6477 78.9796 17.6972 83.7121 15.1849 88.5615C12.6725 93.3525 10.686 98.2019 9.22535 103.11C7.82311 107.959 7.09278 112.662 7.03435 117.22C7.03435 117.687 6.85907 117.921 6.50851 117.921C6.21638 117.862 6.07031 117.629 6.07031 117.22C6.12874 111.027 7.41412 104.629 9.92646 98.0266C12.4388 91.366 15.7983 84.8806 20.005 78.5706C24.2118 72.2021 29.0904 66.1842 34.6409 60.5168C40.1914 54.791 46.0633 49.7955 52.2565 45.5304C58.4497 41.2068 64.789 37.7889 71.2743 35.2765C77.7597 32.7642 84.0113 31.508 90.0293 31.508ZM129.292 88.4739C129.35 88.0065 129.38 87.5391 129.38 87.0716C129.38 86.6042 129.38 86.1368 129.38 85.6694C128.386 87.5391 127.451 89.6132 126.575 91.8918C125.757 94.1705 125.348 96.3907 125.348 98.5525C125.348 98.6693 125.348 98.903 125.348 99.2536C125.407 99.5457 125.465 99.8671 125.523 100.218C125.582 100.51 125.669 100.802 125.786 101.094C125.903 101.328 126.049 101.445 126.225 101.445C126.809 101.503 127.276 100.919 127.627 99.6918C128.036 98.4648 128.357 97.0918 128.591 95.5727C128.824 93.9952 129 92.5053 129.117 91.1031C129.233 89.7008 129.292 88.8244 129.292 88.4739Z" fill="white" filter="url(#dropShadow)" />
<path d="M681.313 136.862C681.43 136.628 681.605 136.628 681.839 136.862C682.131 137.037 682.219 137.213 682.102 137.388C678.947 141.828 676.113 145.48 673.601 148.343C672.9 149.161 672.053 150.067 671.059 151.06C670.125 152.053 669.102 152.988 667.992 153.864C666.94 154.682 665.83 155.383 664.662 155.968C663.493 156.552 662.354 156.844 661.244 156.844C660.251 156.844 659.462 156.581 658.878 156.055C658.293 155.588 657.855 155.004 657.563 154.302C657.271 153.543 657.066 152.725 656.949 151.849C656.833 150.972 656.774 150.154 656.774 149.395C656.774 147.116 657.037 144.604 657.563 141.858C658.03 139.112 658.644 136.336 659.403 133.532C660.163 130.669 660.952 127.864 661.77 125.118C662.646 122.314 663.435 119.714 664.136 117.318C662.909 117.377 661.682 117.406 660.455 117.406C659.286 117.348 658.206 117.26 657.212 117.143C655.167 116.91 653.502 116.471 652.217 115.829C650.873 115.186 650.23 114.134 650.289 112.674C650.289 112.323 650.464 112.206 650.815 112.323C651.107 112.381 651.253 112.498 651.253 112.674C651.253 113.842 651.837 114.689 653.006 115.215C654.116 115.683 655.547 116.004 657.3 116.179C658.293 116.296 659.403 116.354 660.63 116.354C661.916 116.354 663.172 116.354 664.399 116.354C664.808 115.069 665.158 113.871 665.45 112.761C665.743 111.651 665.947 110.687 666.064 109.869C666.122 109.635 666.298 109.548 666.59 109.606C666.94 109.665 667.116 109.752 667.116 109.869C667.116 111.271 666.794 113.433 666.152 116.354C667.612 116.354 669.044 116.354 670.446 116.354C671.907 116.354 673.338 116.413 674.74 116.53C676.376 116.705 677.691 117.056 678.684 117.581C679.736 118.049 680.232 118.808 680.174 119.86C680.174 120.035 679.999 120.152 679.648 120.211C679.356 120.211 679.21 120.065 679.21 119.772C679.152 119.071 678.713 118.545 677.895 118.195C677.077 117.844 675.996 117.611 674.653 117.494C673.25 117.377 671.819 117.318 670.358 117.318C668.898 117.318 667.437 117.318 665.976 117.318C665.45 119.948 664.808 122.869 664.048 126.082C663.347 129.296 662.646 132.539 661.945 135.81C661.244 139.024 660.66 142.091 660.192 145.013C659.725 147.876 659.491 150.271 659.491 152.199C659.491 152.55 659.491 152.959 659.491 153.426C659.549 153.835 659.637 154.244 659.754 154.653C659.871 155.004 660.046 155.296 660.28 155.529C660.572 155.763 660.952 155.88 661.419 155.88C662.412 155.88 663.435 155.588 664.486 155.004C665.597 154.419 666.648 153.718 667.642 152.9C668.693 152.024 669.657 151.118 670.534 150.183C671.468 149.249 672.257 148.431 672.9 147.73C674.068 146.386 675.354 144.808 676.756 142.997C678.158 141.186 679.677 139.141 681.313 136.862Z" fill="white" filter="url(#dropShadow)" />
<path d="M658.665 136.862C658.84 136.628 659.045 136.628 659.279 136.862C659.512 137.037 659.571 137.242 659.454 137.476C658.811 138.352 657.964 139.55 656.912 141.069C655.861 142.53 654.663 144.136 653.319 145.889C651.975 147.583 650.573 149.307 649.112 151.06C647.652 152.813 646.191 154.39 644.73 155.792C643.27 157.195 641.867 158.334 640.524 159.21C639.18 160.145 637.982 160.583 636.93 160.525C635.528 160.466 634.535 159.97 633.951 159.035C633.425 158.1 633.162 156.99 633.162 155.705C633.162 153.952 633.396 152.228 633.863 150.534C634.33 148.781 634.856 147.087 635.441 145.451C636.025 143.815 636.58 142.296 637.106 140.894C637.632 139.433 637.894 138.177 637.894 137.125C637.894 136.073 637.69 135.109 637.281 134.233C636.872 133.298 636.346 132.393 635.703 131.516C634.476 133.561 633.162 135.606 631.76 137.651C631.526 137.943 631.263 138.001 630.971 137.826C630.737 137.651 630.708 137.417 630.883 137.125C632.519 134.846 633.892 132.685 635.002 130.64C633.951 129.238 632.899 127.806 631.847 126.345C630.854 124.826 630.357 123.103 630.357 121.175C630.357 119.656 630.766 118.516 631.584 117.757C632.461 116.939 633.425 116.53 634.476 116.53C635.996 116.53 637.135 117.143 637.894 118.37C638.712 119.539 639.121 120.795 639.121 122.139C639.121 123.424 638.8 124.826 638.157 126.345C637.573 127.806 636.989 129.091 636.405 130.202C637.339 131.428 638.128 132.743 638.771 134.145C639.472 135.489 639.823 137.067 639.823 138.878C639.823 140.397 639.589 141.945 639.121 143.523C638.712 145.1 638.245 146.678 637.719 148.255C637.252 149.833 636.814 151.41 636.405 152.988C636.054 154.507 635.879 155.968 635.879 157.37C635.937 157.896 636.025 158.392 636.142 158.86C636.317 159.327 636.726 159.561 637.369 159.561C638.245 159.561 639.297 159.093 640.524 158.159C641.751 157.282 643.065 156.143 644.467 154.741C645.87 153.338 647.272 151.761 648.674 150.008C650.135 148.255 651.508 146.561 652.793 144.925C654.079 143.231 655.218 141.682 656.211 140.28C657.263 138.819 658.081 137.68 658.665 136.862ZM631.497 121.175C631.497 122.752 631.935 124.184 632.811 125.469C633.688 126.754 634.652 128.069 635.703 129.413C636.229 128.42 636.755 127.251 637.281 125.907C637.865 124.505 638.157 123.249 638.157 122.139C638.157 121.087 637.836 120.065 637.193 119.071C636.609 118.02 635.733 117.494 634.564 117.494C633.746 117.494 633.016 117.815 632.373 118.458C631.789 119.1 631.497 120.006 631.497 121.175Z" fill="white" filter="url(#dropShadow)" />
<path d="M631.088 136.862C631.205 136.687 631.38 136.716 631.614 136.95C631.906 137.125 631.994 137.3 631.877 137.476C631.059 138.644 630.095 139.754 628.985 140.806C627.875 141.799 626.648 142.676 625.304 143.435C623.96 144.136 622.558 144.691 621.097 145.1C619.695 145.509 618.293 145.714 616.891 145.714C615.722 145.714 614.758 145.597 613.999 145.363C613.356 146.765 612.45 147.963 611.282 148.956C610.172 149.891 608.799 150.329 607.163 150.271C605.118 150.271 603.657 149.628 602.781 148.343C601.846 146.999 601.408 145.48 601.466 143.786C601.466 142.383 601.787 141.01 602.43 139.667C603.014 138.264 603.862 137.154 604.972 136.336C605.439 135.986 605.848 136.015 606.199 136.424C606.549 136.775 606.491 137.154 606.023 137.563C605.614 137.972 605.264 138.732 604.972 139.842C604.738 140.952 604.621 142.121 604.621 143.348C604.621 144.867 604.826 146.269 605.235 147.554C605.702 148.781 606.52 149.395 607.689 149.395C608.915 149.336 609.967 148.898 610.844 148.08C611.778 147.262 612.538 146.269 613.122 145.1C611.545 144.458 610.376 143.318 609.617 141.682C608.915 139.988 608.594 138.323 608.653 136.687C608.711 135.402 609.003 134.291 609.529 133.357C610.113 132.422 610.931 131.954 611.983 131.954C613.268 131.954 614.203 132.568 614.787 133.795C615.372 135.022 615.693 136.482 615.751 138.177C615.751 139.17 615.635 140.222 615.401 141.332C615.226 142.383 614.904 143.435 614.437 144.487C615.138 144.662 615.956 144.75 616.891 144.75C619.578 144.75 622.237 143.99 624.866 142.471C627.495 140.952 629.569 139.082 631.088 136.862ZM613.473 144.136C613.94 143.085 614.262 142.033 614.437 140.981C614.612 139.871 614.7 138.907 614.7 138.089C614.7 136.628 614.495 135.402 614.086 134.408C613.677 133.415 612.976 132.918 611.983 132.918C611.223 132.918 610.639 133.327 610.23 134.145C609.821 134.905 609.617 135.84 609.617 136.95C609.558 138.352 609.85 139.754 610.493 141.157C611.136 142.559 612.129 143.552 613.473 144.136Z" fill="white" filter="url(#dropShadow)" />
<path d="M604.257 136.862C604.374 136.628 604.549 136.628 604.783 136.862C605.075 137.037 605.162 137.213 605.046 137.388C602.942 140.543 600.313 142.792 597.158 144.136C594.003 145.48 590.585 146.298 586.904 146.59C585.502 148.635 583.691 150.213 581.47 151.323C579.309 152.433 576.942 152.929 574.372 152.813C573.904 154.682 573.378 156.581 572.794 158.509C572.151 160.496 571.509 162.482 570.866 164.469C569.172 169.61 567.594 174.547 566.133 179.28C564.673 184.071 563.796 188.307 563.504 191.988C563.446 192.338 563.271 192.513 562.978 192.513C562.686 192.572 562.511 192.367 562.453 191.9C562.219 190.089 562.219 188.102 562.453 185.94C562.628 183.779 562.978 181.5 563.504 179.105C563.972 176.768 564.556 174.343 565.257 171.83C565.958 169.377 566.718 166.893 567.536 164.381C568.237 162.336 568.938 160.262 569.639 158.159C570.282 156.114 570.924 154.069 571.567 152.024C570.983 151.732 570.515 151.323 570.165 150.797C569.814 150.271 569.668 149.687 569.727 149.044C569.727 147.934 570.136 147.116 570.954 146.59C571.713 146.006 572.59 145.655 573.583 145.539C574.05 143.903 574.459 142.354 574.81 140.894C575.102 139.433 575.306 138.031 575.423 136.687C575.482 136.395 575.657 136.249 575.949 136.249C576.3 136.249 576.475 136.395 576.475 136.687C576.709 139.199 576.563 142.062 576.037 145.276C576.095 145.042 576.446 144.312 577.088 143.085C577.79 141.858 578.637 140.572 579.63 139.228C580.623 137.826 581.704 136.599 582.873 135.548C584.1 134.437 585.327 133.882 586.554 133.882C587.547 133.882 588.336 134.321 588.92 135.197C589.563 136.015 589.884 137.037 589.884 138.264C589.884 139.491 589.65 140.748 589.183 142.033C588.774 143.318 588.248 144.487 587.605 145.539C590.936 145.246 594.032 144.458 596.895 143.172C599.816 141.828 602.27 139.725 604.257 136.862ZM587.167 136.599C587.167 135.431 586.846 134.846 586.203 134.846C585.502 134.846 584.742 135.197 583.924 135.898C583.106 136.541 582.288 137.388 581.47 138.44C580.652 139.491 579.864 140.66 579.104 141.945C578.345 143.172 577.673 144.341 577.088 145.451C577.731 145.451 578.345 145.48 578.929 145.539C579.572 145.539 580.185 145.568 580.769 145.626C581.295 145.685 581.821 145.714 582.347 145.714C582.873 145.714 583.428 145.714 584.012 145.714C584.772 144.545 585.473 143.085 586.115 141.332C586.758 139.521 587.109 137.943 587.167 136.599ZM574.635 151.849C576.446 151.849 578.082 151.352 579.542 150.359C581.003 149.365 582.259 148.138 583.311 146.678C582.843 146.678 582.405 146.678 581.996 146.678C581.587 146.678 581.149 146.649 580.682 146.59C580.039 146.532 579.367 146.503 578.666 146.503C578.023 146.444 577.322 146.415 576.563 146.415L575.336 148.781L574.635 151.849ZM571.918 151.147C572.151 150.329 572.385 149.541 572.619 148.781C572.853 148.022 573.086 147.291 573.32 146.59C572.677 146.707 572.093 146.97 571.567 147.379C571.041 147.73 570.749 148.255 570.691 148.956C570.632 149.833 571.041 150.563 571.918 151.147Z" fill="white" filter="url(#dropShadow)" />
<path d="M575.577 136.862C575.752 136.628 575.956 136.628 576.19 136.862C576.482 137.037 576.57 137.213 576.453 137.388C575.577 138.673 574.379 140.163 572.86 141.858C571.341 143.552 569.705 145.159 567.952 146.678C566.199 148.197 564.388 149.482 562.518 150.534C560.707 151.586 558.983 152.112 557.347 152.112C555.478 152.112 554.105 151.469 553.228 150.183C552.294 148.898 551.826 147.321 551.826 145.451C551.826 143.99 552.089 142.471 552.615 140.894C553.082 139.258 553.783 137.797 554.718 136.512C555.712 135.168 556.909 134.058 558.312 133.181C559.714 132.305 561.291 131.867 563.044 131.867C564.329 131.867 565.323 132.188 566.024 132.831C566.783 133.473 567.163 134.35 567.163 135.46C567.163 136.103 566.959 136.745 566.55 137.388C566.199 137.972 565.586 138.527 564.709 139.053C563.833 139.579 562.664 139.988 561.204 140.28C559.801 140.572 558.049 140.718 555.945 140.718C555.244 142.763 554.894 144.75 554.894 146.678C554.894 147.963 555.098 149.044 555.507 149.921C555.916 150.738 556.588 151.147 557.523 151.147C558.983 151.147 560.59 150.622 562.343 149.57C564.096 148.518 565.819 147.262 567.514 145.801C569.208 144.282 570.756 142.705 572.159 141.069C573.619 139.433 574.759 138.031 575.577 136.862ZM563.745 132.918C562.051 132.918 560.59 133.59 559.363 134.934C558.136 136.278 557.114 137.885 556.296 139.754C558.165 139.754 559.743 139.637 561.028 139.404C562.314 139.112 563.336 138.761 564.096 138.352C564.855 137.885 565.381 137.388 565.673 136.862C566.024 136.336 566.199 135.81 566.199 135.285C566.141 134.642 565.878 134.087 565.41 133.619C564.943 133.152 564.388 132.918 563.745 132.918Z" fill="white" filter="url(#dropShadow)" />
<path d="M557.285 181.734C557.636 181.617 557.84 181.705 557.899 181.997C557.957 182.347 557.84 182.552 557.548 182.61C556.029 183.019 554.568 183.282 553.166 183.399C551.822 183.574 550.537 183.662 549.31 183.662C546.33 183.662 543.818 183.136 541.773 182.084C539.728 181.091 538.034 179.718 536.69 177.965C535.346 176.271 534.294 174.284 533.535 172.006C532.775 169.786 532.162 167.419 531.694 164.907C531.227 162.395 530.847 159.824 530.555 157.195C530.263 154.565 529.912 152.053 529.503 149.658C529.153 147.262 528.656 145.042 528.013 142.997C527.429 140.952 526.582 139.228 525.472 137.826C525.063 137.885 524.537 137.943 523.894 138.001C523.252 138.001 522.521 138.001 521.703 138.001C520.769 138.001 519.805 137.972 518.811 137.914C517.818 137.855 516.883 137.739 516.007 137.563C515.189 137.388 514.517 137.154 513.991 136.862C513.465 136.57 513.202 136.161 513.202 135.635C513.202 135.226 513.407 134.876 513.816 134.584C514.225 134.291 514.692 134.087 515.218 133.97C515.802 133.795 516.357 133.678 516.883 133.619C517.467 133.561 517.906 133.532 518.198 133.532C520.067 133.532 521.703 133.795 523.106 134.321C524.566 134.846 525.822 135.606 526.874 136.599C531.665 135.84 535.843 134.204 539.407 131.691C542.971 129.121 545.921 126.082 548.258 122.577C550.654 119.071 552.436 115.303 553.604 111.271C554.773 107.181 555.357 103.179 555.357 99.2647C555.357 96.2265 555.007 93.3636 554.305 90.676C553.663 87.9299 552.669 85.5344 551.326 83.4895C549.982 81.4446 548.287 79.8378 546.243 78.6693C544.256 77.4424 541.919 76.8581 539.231 76.9165C537.362 76.9165 535.55 77.2379 533.798 77.8806C532.045 78.4648 530.438 79.312 528.977 80.4221C527.517 81.4738 526.231 82.73 525.121 84.1906C524.011 85.6513 523.164 87.258 522.58 89.0108C521.703 92.2827 520.915 95.6422 520.214 99.0894C519.571 102.537 518.928 106.042 518.285 109.606C517.234 115.332 516.094 121.116 514.867 126.959C513.699 132.743 512.151 138.381 510.223 143.873C508.353 149.365 505.957 154.595 503.036 159.561C500.173 164.527 496.522 168.997 492.081 172.97C487.699 176.943 482.382 180.302 476.131 183.048C469.879 185.853 462.43 187.839 453.783 189.008C453.315 189.066 453.052 188.92 452.994 188.57C452.935 188.278 453.14 188.102 453.607 188.044C461.904 186.934 469.032 184.976 474.991 182.172C480.951 179.426 486.034 176.096 490.241 172.181C494.447 168.266 497.895 163.855 500.582 158.947C503.328 154.04 505.578 148.869 507.33 143.435C509.142 138.001 510.602 132.422 511.712 126.696C512.881 120.97 513.991 115.274 515.043 109.606C515.802 105.516 516.591 101.485 517.409 97.5119C518.285 93.5389 519.279 89.7411 520.389 86.1187C521.557 82.4963 522.901 79.0783 524.42 75.8648C525.998 72.6514 527.897 69.7301 530.117 67.1009C528.189 66.8087 526.261 66.5166 524.333 66.2245C522.405 65.9323 520.447 65.7863 518.461 65.7863C512.676 65.7863 506.951 66.429 501.283 67.7143C495.674 68.9997 490.211 70.8109 484.895 73.148C479.578 75.4266 474.466 78.2019 469.558 81.4738C464.708 84.6873 460.18 88.2221 455.974 92.0782C451.592 96.1681 447.589 100.55 443.967 105.224C440.344 109.84 437.248 114.631 434.677 119.597C432.106 124.563 430.12 129.617 428.718 134.759C427.315 139.842 426.585 144.896 426.527 149.92C426.527 150.329 426.351 150.534 426.001 150.534C425.709 150.534 425.562 150.3 425.562 149.833C425.621 144.75 426.351 139.608 427.753 134.408C429.214 129.208 431.23 124.125 433.801 119.159C436.43 114.134 439.556 109.285 443.178 104.611C446.801 99.8782 450.861 95.4669 455.36 91.3771C459.625 87.4625 464.212 83.8693 469.119 80.5974C474.027 77.3255 479.14 74.521 484.456 72.184C489.832 69.8469 495.382 68.0357 501.108 66.7503C506.834 65.4649 512.618 64.8222 518.461 64.8222C520.564 64.8222 522.638 64.9975 524.683 65.3481C526.728 65.6402 528.773 65.9323 530.818 66.2245C531.87 65.0559 533.097 63.9166 534.499 62.8065C535.959 61.638 537.508 61.0537 539.144 61.0537C539.962 61.0537 540.838 61.2874 541.773 61.7548C542.708 62.2222 543.175 62.9526 543.175 63.9458C543.175 64.6469 542.912 65.2604 542.386 65.7863C541.861 66.2537 541.218 66.6334 540.458 66.9256C539.757 67.1593 538.998 67.3346 538.18 67.4514C537.42 67.5683 536.777 67.6267 536.252 67.6267C534.733 67.6267 533.243 67.5391 531.782 67.3638C530.088 69.8177 528.598 72.4469 527.312 75.2514C526.027 78.0558 524.888 81.0356 523.894 84.1906C525.647 81.7367 527.838 79.7794 530.467 78.3188C533.155 76.7997 536.076 76.0109 539.231 75.9525C542.386 75.9525 545.162 76.6244 547.557 77.9682C549.953 79.2536 551.939 81.0064 553.517 83.2266C555.153 85.3884 556.38 87.9299 557.198 90.8512C558.015 93.7142 558.424 96.7523 558.424 99.9658C558.424 103.939 557.811 107.999 556.584 112.148C555.357 116.296 553.458 120.123 550.887 123.629C548.375 127.134 545.191 130.172 541.335 132.743C537.479 135.255 532.95 136.891 527.751 137.651C529.386 139.579 530.584 142.033 531.344 145.013C532.162 147.992 532.804 151.147 533.272 154.478C533.798 157.75 534.294 161.051 534.762 164.381C535.229 167.77 535.989 170.808 537.04 173.496C538.092 176.183 539.582 178.374 541.51 180.069C543.438 181.821 546.096 182.727 549.485 182.785C551.705 182.844 554.305 182.493 557.285 181.734ZM539.144 62.0178C537.625 62.0178 536.339 62.4852 535.288 63.42C534.236 64.3548 533.272 65.3481 532.395 66.3997C533.681 66.575 534.966 66.6627 536.252 66.6627C536.602 66.6627 537.099 66.6334 537.741 66.575C538.443 66.4582 539.114 66.3121 539.757 66.1368C540.458 65.9031 541.043 65.611 541.51 65.2604C541.977 64.9099 542.211 64.4425 542.211 63.8582C542.211 63.2155 541.831 62.7481 541.072 62.456C540.312 62.1638 539.67 62.0178 539.144 62.0178ZM521.44 137.037C522.142 137.037 522.755 137.037 523.281 137.037C523.865 136.979 524.303 136.921 524.595 136.862C523.778 136.103 522.843 135.518 521.791 135.109C520.798 134.7 519.6 134.496 518.198 134.496C518.023 134.496 517.73 134.525 517.321 134.584C516.912 134.584 516.474 134.642 516.007 134.759C515.539 134.817 515.13 134.934 514.78 135.109C514.429 135.226 514.254 135.401 514.254 135.635C514.254 135.927 514.458 136.161 514.867 136.336C515.335 136.512 515.919 136.658 516.62 136.775C517.321 136.891 518.081 136.979 518.899 137.037C519.775 137.037 520.622 137.037 521.44 137.037Z" fill="white" filter="url(#dropShadow)" />
<path d="M708.926 14.8408C697.617 10.1194 686.582 19.4182 683.992 34.6797C682.632 28.9228 679.324 23.9803 675.56 21.1796C672.091 18.5891 668.432 18.0947 665.281 19.649C657.367 23.5593 654.496 38.2298 655.597 51.3024C656.072 58.8578 657.445 66.4338 658.657 73.9326C658.711 74.2975 659.245 74.6493 659.429 74.5572C659.742 74.4022 659.65 73.8326 659.572 73.4076C656.794 59.133 654.194 42.847 658.539 30.8868C659.863 27.1314 661.845 23.8631 664.364 21.9308C666.395 20.3746 668.893 19.6782 671.417 20.3711C677.102 21.9367 683.072 29.6246 683.535 38.6274C683.482 39.4604 683.42 40.2956 683.413 41.1507C683.406 41.8254 684.179 42.2363 684.439 41.8967C684.781 41.4232 684.675 40.7913 684.66 40.1545C684.663 39.678 684.626 39.2106 684.595 38.7253C688.392 4.42042 726.581 8.25277 722.809 52.2859C720.616 73.4465 710.488 90.6406 702.724 105.403C693.17 119.882 684.484 132.657 674.831 146C671.992 149.924 670.163 152.098 666.882 154.517C666.4 155.006 665.276 155.633 664.794 156.122C664.542 156.362 664.293 156.617 664.04 156.856C663.927 157.03 660.189 157.356 662.695 157.356C662.901 158.243 666.177 154.18 666.882 154.517C679.161 141.742 690.8 128.399 703.477 107.106C704.995 104.557 705.484 103.69 706.414 101.996C711.394 92.9415 716.125 83.5859 719.655 72.8004C725.873 56.0048 727.968 22.9496 708.926 14.8408Z" fill="white" filter="url(#dropShadow)" />
</svg>
