<svg width="843" height="778" viewBox="0 0 843 778" fill="none" xmlns="http://www.w3.org/2000/svg">
<path d="M652.722 266.959C653.031 266.547 653.391 266.547 653.803 266.959C654.317 267.267 654.472 267.576 654.266 267.885C652.722 270.149 650.613 272.773 647.937 275.757C645.262 278.741 642.381 281.571 639.294 284.246C636.206 286.922 633.017 289.185 629.724 291.038C626.534 292.89 623.498 293.816 620.617 293.816C617.324 293.816 614.906 292.684 613.362 290.42C611.716 288.156 610.893 285.378 610.893 282.085C610.893 279.513 611.356 276.837 612.282 274.059C613.105 271.178 614.34 268.605 615.986 266.341C617.736 263.974 619.845 262.019 622.315 260.476C624.784 258.932 627.563 258.161 630.65 258.161C632.914 258.161 634.663 258.726 635.898 259.858C637.235 260.99 637.904 262.534 637.904 264.489C637.904 265.621 637.544 266.753 636.824 267.885C636.207 268.914 635.126 269.891 633.582 270.817C632.039 271.744 629.981 272.464 627.408 272.978C624.939 273.493 621.852 273.75 618.147 273.75C616.912 277.352 616.295 280.85 616.295 284.246C616.295 286.51 616.655 288.414 617.375 289.957C618.096 291.398 619.279 292.118 620.926 292.118C623.498 292.118 626.328 291.192 629.415 289.34C632.502 287.488 635.538 285.275 638.522 282.703C641.506 280.027 644.233 277.249 646.703 274.368C649.275 271.486 651.282 269.017 652.722 266.959ZM631.885 260.013C628.9 260.013 626.328 261.196 624.167 263.563C622.006 265.93 620.205 268.759 618.765 272.052C622.057 272.052 624.836 271.846 627.1 271.435C629.364 270.92 631.164 270.303 632.502 269.583C633.84 268.759 634.766 267.885 635.28 266.959C635.898 266.033 636.206 265.106 636.206 264.18C636.104 263.048 635.641 262.071 634.817 261.248C633.994 260.424 633.017 260.013 631.885 260.013Z" fill="#AE983C"/>
<path d="M615.797 266.959C616.105 266.547 616.466 266.547 616.877 266.959C617.392 267.267 617.546 267.576 617.34 267.885C612.504 274.676 606.999 280.542 600.825 285.481C594.65 290.42 588.168 294.948 581.376 299.064C580.553 302.769 579.472 307.348 578.135 312.801C576.797 318.358 575.151 324.121 573.195 330.089C571.343 336.16 569.079 342.18 566.404 348.148C563.831 354.22 560.847 359.622 557.451 364.355C554.056 369.089 550.248 372.948 546.029 375.932C541.81 378.916 537.18 380.357 532.138 380.254C529.153 380.254 526.529 379.585 524.266 378.247C522.002 377.012 520.098 375.366 518.554 373.308C517.011 371.353 515.879 369.089 515.159 366.516C514.335 363.944 513.924 361.268 513.924 358.49C513.924 352.316 515.21 346.862 517.783 342.129C520.355 337.498 523.802 333.228 528.124 329.317C532.446 325.51 537.437 321.908 543.097 318.513C548.756 315.22 554.724 311.875 561.001 308.48C563.471 307.142 565.941 305.753 568.41 304.312C570.983 302.974 573.556 301.585 576.128 300.145C577.672 294.382 579.061 288.98 580.296 283.937C581.53 278.792 582.714 274.213 583.846 270.2C582.714 272.258 581.479 274.47 580.141 276.837C578.804 279.101 577.363 281.211 575.819 283.166C574.379 285.121 572.835 286.716 571.189 287.951C569.645 289.185 567.999 289.803 566.25 289.803C564.089 289.7 562.545 288.928 561.619 287.488C560.59 286.047 560.127 284.143 560.23 281.777C560.23 279.513 560.744 276.992 561.773 274.213C562.802 271.435 564.191 268.914 565.941 266.65C567.69 264.283 569.697 262.328 571.961 260.785C574.327 259.241 576.9 258.469 579.678 258.469C581.222 258.469 582.457 258.778 583.383 259.395C584.309 259.91 585.081 260.785 585.698 262.019C585.904 262.534 585.749 262.945 585.235 263.254C584.823 263.46 584.412 263.254 584 262.637C583.28 260.99 582.199 260.167 580.759 260.167C578.906 260.167 577.003 261.145 575.048 263.1C573.195 265.055 571.498 267.37 569.954 270.046C568.41 272.618 567.124 275.345 566.095 278.226C565.066 281.005 564.552 283.269 564.552 285.018C564.552 285.738 564.654 286.407 564.86 287.025C565.066 287.642 565.581 287.951 566.404 287.951C568.256 287.951 570.108 286.973 571.961 285.018C573.813 283.063 575.562 280.748 577.209 278.072C578.958 275.294 580.553 272.567 581.993 269.891C583.434 267.216 584.617 265.158 585.544 263.717C585.544 263.306 585.904 263.1 586.624 263.1C587.447 263.1 587.756 263.357 587.55 263.872C587.036 267.782 586.315 272.567 585.389 278.226C584.463 283.886 583.331 290.06 581.993 296.749C588.476 292.838 594.599 288.517 600.362 283.783C606.124 278.947 611.269 273.339 615.797 266.959ZM531.674 378.556C535.791 378.556 539.649 377.064 543.251 374.08C546.75 371.198 549.991 367.442 552.975 362.812C555.959 358.181 558.686 352.985 561.156 347.222C563.523 341.563 565.632 335.903 567.484 330.243C569.439 324.584 571.034 319.284 572.269 314.345C573.607 309.406 574.687 305.444 575.511 302.46C573.247 303.798 570.983 305.084 568.719 306.319C566.455 307.553 564.14 308.788 561.773 310.023C555.599 313.316 549.734 316.557 544.177 319.747C538.62 323.04 533.732 326.539 529.513 330.243C525.295 334.051 521.95 338.218 519.481 342.746C516.908 347.377 515.622 352.625 515.622 358.49C515.622 360.857 515.982 363.223 516.702 365.59C517.423 367.957 518.452 370.066 519.789 371.919C521.127 373.874 522.825 375.469 524.883 376.704C526.838 377.938 529.102 378.556 531.674 378.556Z" fill="#AE983C"/>
<path d="M565.599 267.113C565.907 266.598 566.267 266.547 566.679 266.959C567.194 267.267 567.296 267.627 566.988 268.039C565.547 270.2 563.438 273.03 560.659 276.529C557.984 280.027 555.051 283.474 551.861 286.87C548.671 290.163 545.481 293.044 542.291 295.514C539.101 297.881 536.272 299.064 533.802 299.064C532.464 299.064 531.384 298.807 530.56 298.292C529.737 297.675 529.068 296.955 528.554 296.131C528.039 295.205 527.679 294.176 527.473 293.044C527.268 291.912 527.165 290.78 527.165 289.649C527.165 287.899 527.319 286.098 527.628 284.246C528.039 282.394 528.502 280.49 529.017 278.535C527.165 281.519 525.158 284.143 522.997 286.407C520.939 288.671 518.727 289.803 516.36 289.803C514.096 289.7 512.501 288.928 511.575 287.488C510.546 286.047 510.083 284.143 510.186 281.777C510.186 279.513 510.7 276.992 511.729 274.213C512.758 271.435 514.148 268.914 515.897 266.65C517.646 264.283 519.653 262.328 521.917 260.785C524.283 259.241 526.856 258.469 529.634 258.469C532.619 258.469 534.625 259.653 535.654 262.019C535.963 262.534 535.86 262.945 535.345 263.254C534.831 263.46 534.419 263.254 534.111 262.637C533.699 261.916 533.236 261.35 532.721 260.939C532.207 260.424 531.538 260.167 530.715 260.167C528.863 260.167 527.01 261.145 525.158 263.1C523.306 265.055 521.608 267.37 520.065 270.046C518.521 272.618 517.235 275.345 516.206 278.226C515.177 281.005 514.662 283.269 514.662 285.018C514.559 285.738 514.662 286.407 514.971 287.025C515.177 287.642 515.691 287.951 516.514 287.951C518.058 287.951 519.55 287.282 520.991 285.944C522.534 284.503 524.026 282.754 525.467 280.696C527.01 278.638 528.4 276.426 529.634 274.059C530.972 271.692 532.155 269.583 533.185 267.73C533.699 266.701 534.162 265.827 534.574 265.106C535.088 264.283 535.551 263.614 535.963 263.1C536.169 262.894 536.477 262.945 536.889 263.254C537.403 263.46 537.661 263.666 537.661 263.872C537.764 265.004 537.506 266.856 536.889 269.428C536.374 271.898 535.757 274.625 535.037 277.609C534.316 280.49 533.596 283.372 532.876 286.253C532.258 289.134 531.95 291.552 531.95 293.507C531.95 294.331 532.053 295.205 532.258 296.131C532.464 296.955 533.082 297.366 534.111 297.366C536.169 297.366 538.69 296.183 541.674 293.816C544.761 291.346 547.848 288.465 550.935 285.172C554.022 281.777 556.903 278.381 559.579 274.985C562.254 271.589 564.261 268.965 565.599 267.113Z" fill="#AE983C"/>
<path d="M515.746 267.113C516.054 266.598 516.415 266.547 516.826 266.959C517.341 267.267 517.444 267.627 517.135 268.039C515.694 270.097 513.688 272.567 511.115 275.448C508.645 278.329 505.919 281.108 502.934 283.783C500.053 286.356 497.069 288.568 493.982 290.42C490.998 292.272 488.271 293.199 485.801 293.199C483.126 293.199 481.376 292.221 480.553 290.266C479.627 288.208 479.164 286.047 479.164 283.783C479.164 279.461 479.627 275.963 480.553 273.287C481.376 270.612 482.405 268.451 483.64 266.804C483.846 266.496 484.258 266.341 484.875 266.341C485.595 266.341 486.007 266.496 486.11 266.804C486.213 267.833 486.161 269.171 485.956 270.817C485.75 272.361 485.493 274.059 485.184 275.911C484.875 277.763 484.566 279.718 484.258 281.776C484.052 283.835 483.949 285.841 483.949 287.796C483.949 288.619 484.052 289.443 484.258 290.266C484.464 291.089 485.081 291.501 486.11 291.501C488.168 291.501 490.638 290.575 493.519 288.722C496.4 286.87 499.281 284.658 502.163 282.085C505.044 279.513 507.719 276.837 510.189 274.059C512.659 271.28 514.511 268.965 515.746 267.113ZM485.956 262.791C485.132 262.791 484.464 262.534 483.949 262.019C483.434 261.505 483.177 260.836 483.177 260.013C483.177 259.19 483.434 258.521 483.949 258.006C484.464 257.492 485.132 257.234 485.956 257.234C486.779 257.234 487.448 257.492 487.962 258.006C488.477 258.521 488.734 259.19 488.734 260.013C488.734 260.836 488.477 261.505 487.962 262.019C487.448 262.534 486.779 262.791 485.956 262.791Z" fill="#AE983C"/>
<path d="M483.418 266.959C483.727 266.547 484.087 266.547 484.499 266.959C484.911 267.267 485.013 267.627 484.808 268.039C483.676 269.583 482.184 271.692 480.331 274.368C478.479 276.94 476.37 279.77 474.003 282.857C471.636 285.841 469.167 288.877 466.594 291.964C464.021 295.051 461.449 297.829 458.876 300.299C456.304 302.769 453.834 304.775 451.467 306.319C449.101 307.965 446.991 308.737 445.139 308.634C442.669 308.531 440.92 307.656 439.891 306.01C438.965 304.363 438.502 302.408 438.502 300.145C438.502 297.057 438.913 294.022 439.737 291.038C440.56 287.951 441.486 284.966 442.515 282.085C443.544 279.204 444.522 276.529 445.448 274.059C446.374 271.486 446.837 269.274 446.837 267.422C446.837 265.569 446.477 263.872 445.756 262.328C445.036 260.682 444.11 259.087 442.978 257.543C440.817 261.145 438.502 264.746 436.032 268.348C435.621 268.862 435.157 268.965 434.643 268.657C434.231 268.348 434.18 267.936 434.489 267.422C437.37 263.409 439.788 259.601 441.743 256C439.891 253.53 438.039 251.009 436.186 248.436C434.437 245.761 433.562 242.725 433.562 239.329C433.562 236.654 434.283 234.647 435.723 233.31C437.267 231.869 438.965 231.149 440.817 231.149C443.493 231.149 445.499 232.229 446.837 234.39C448.277 236.448 448.998 238.661 448.998 241.027C448.998 243.291 448.432 245.761 447.3 248.436C446.271 251.009 445.242 253.273 444.213 255.228C445.859 257.389 447.248 259.704 448.38 262.174C449.615 264.54 450.233 267.319 450.233 270.509C450.233 273.184 449.821 275.911 448.998 278.689C448.277 281.468 447.454 284.246 446.528 287.025C445.705 289.803 444.933 292.581 444.213 295.36C443.595 298.035 443.287 300.608 443.287 303.077C443.39 304.003 443.544 304.878 443.75 305.701C444.058 306.524 444.779 306.936 445.911 306.936C447.454 306.936 449.306 306.113 451.467 304.466C453.628 302.923 455.944 300.916 458.413 298.447C460.883 295.977 463.353 293.199 465.822 290.112C468.395 287.025 470.813 284.04 473.077 281.159C475.341 278.175 477.347 275.448 479.097 272.978C480.949 270.406 482.389 268.399 483.418 266.959ZM435.569 239.329C435.569 242.108 436.341 244.629 437.884 246.893C439.428 249.157 441.126 251.472 442.978 253.839C443.904 252.089 444.83 250.031 445.756 247.665C446.785 245.195 447.3 242.982 447.3 241.027C447.3 239.175 446.734 237.374 445.602 235.625C444.573 233.773 443.029 232.847 440.971 232.847C439.531 232.847 438.245 233.413 437.113 234.545C436.084 235.676 435.569 237.271 435.569 239.329Z" fill="#AE983C"/>
<path d="M434.883 266.959C435.192 266.547 435.552 266.547 435.964 266.959C436.375 267.267 436.478 267.627 436.273 268.039C435.141 269.583 433.649 271.692 431.796 274.368C429.944 276.94 427.835 279.77 425.468 282.857C423.101 285.841 420.631 288.877 418.059 291.964C415.486 295.051 412.914 297.829 410.341 300.299C407.769 302.769 405.299 304.775 402.932 306.319C400.566 307.965 398.456 308.737 396.604 308.634C394.134 308.531 392.385 307.656 391.356 306.01C390.43 304.363 389.967 302.408 389.967 300.145C389.967 297.057 390.378 294.022 391.201 291.038C392.025 287.951 392.951 284.966 393.98 282.085C395.009 279.204 395.986 276.529 396.913 274.059C397.839 271.486 398.302 269.274 398.302 267.422C398.302 265.569 397.942 263.872 397.221 262.328C396.501 260.682 395.575 259.087 394.443 257.543C392.282 261.145 389.967 264.746 387.497 268.348C387.085 268.862 386.622 268.965 386.108 268.657C385.696 268.348 385.645 267.936 385.953 267.422C388.835 263.409 391.253 259.601 393.208 256C391.356 253.53 389.504 251.009 387.651 248.436C385.902 245.761 385.027 242.725 385.027 239.329C385.027 236.654 385.748 234.647 387.188 233.31C388.732 231.869 390.43 231.149 392.282 231.149C394.957 231.149 396.964 232.229 398.302 234.39C399.742 236.448 400.463 238.661 400.463 241.027C400.463 243.291 399.897 245.761 398.765 248.436C397.736 251.009 396.707 253.273 395.678 255.228C397.324 257.389 398.713 259.704 399.845 262.174C401.08 264.54 401.697 267.319 401.697 270.509C401.697 273.184 401.286 275.911 400.463 278.689C399.742 281.468 398.919 284.246 397.993 287.025C397.17 289.803 396.398 292.581 395.678 295.36C395.06 298.035 394.752 300.608 394.752 303.077C394.854 304.003 395.009 304.878 395.215 305.701C395.523 306.524 396.244 306.936 397.376 306.936C398.919 306.936 400.771 306.113 402.932 304.466C405.093 302.923 407.409 300.916 409.878 298.447C412.348 295.977 414.817 293.199 417.287 290.112C419.86 287.025 422.278 284.04 424.542 281.159C426.806 278.175 428.812 275.448 430.561 272.978C432.414 270.406 433.854 268.399 434.883 266.959ZM387.034 239.329C387.034 242.108 387.806 244.629 389.349 246.893C390.893 249.157 392.591 251.472 394.443 253.839C395.369 252.089 396.295 250.031 397.221 247.665C398.25 245.195 398.765 242.982 398.765 241.027C398.765 239.175 398.199 237.374 397.067 235.625C396.038 233.773 394.494 232.847 392.436 232.847C390.996 232.847 389.709 233.413 388.577 234.545C387.548 235.676 387.034 237.271 387.034 239.329Z" fill="#AE983C"/>
<path d="M386.073 267.113C386.382 266.598 386.742 266.547 387.154 266.959C387.668 267.267 387.771 267.627 387.462 268.039C386.022 270.2 383.912 273.03 381.134 276.529C378.458 280.027 375.526 283.474 372.336 286.87C369.146 290.163 365.956 293.044 362.766 295.514C359.576 297.881 356.746 299.064 354.277 299.064C352.939 299.064 351.858 298.807 351.035 298.292C350.212 297.675 349.543 296.955 349.028 296.131C348.514 295.205 348.154 294.176 347.948 293.044C347.742 291.912 347.639 290.78 347.639 289.649C347.639 287.899 347.794 286.098 348.102 284.246C348.514 282.394 348.977 280.49 349.492 278.535C347.639 281.519 345.633 284.143 343.472 286.407C341.414 288.671 339.201 289.803 336.835 289.803C334.571 289.7 332.976 288.928 332.05 287.488C331.021 286.047 330.558 284.143 330.661 281.777C330.661 279.513 331.175 276.992 332.204 274.213C333.233 271.435 334.622 268.914 336.372 266.65C338.121 264.283 340.127 262.328 342.391 260.785C344.758 259.241 347.331 258.469 350.109 258.469C353.093 258.469 355.1 259.653 356.129 262.019C356.437 262.534 356.335 262.945 355.82 263.254C355.306 263.46 354.894 263.254 354.585 262.637C354.174 261.916 353.711 261.35 353.196 260.939C352.682 260.424 352.013 260.167 351.189 260.167C349.337 260.167 347.485 261.145 345.633 263.1C343.781 265.055 342.083 267.37 340.539 270.046C338.996 272.618 337.709 275.345 336.68 278.226C335.651 281.005 335.137 283.269 335.137 285.018C335.034 285.738 335.137 286.407 335.445 287.025C335.651 287.642 336.166 287.951 336.989 287.951C338.533 287.951 340.025 287.282 341.465 285.944C343.009 284.503 344.501 282.754 345.941 280.696C347.485 278.638 348.874 276.426 350.109 274.059C351.447 271.692 352.63 269.583 353.659 267.73C354.174 266.701 354.637 265.827 355.048 265.106C355.563 264.283 356.026 263.614 356.437 263.1C356.643 262.894 356.952 262.945 357.364 263.254C357.878 263.46 358.135 263.666 358.135 263.872C358.238 265.004 357.981 266.856 357.364 269.428C356.849 271.898 356.232 274.625 355.511 277.609C354.791 280.49 354.071 283.372 353.35 286.253C352.733 289.134 352.424 291.552 352.424 293.507C352.424 294.331 352.527 295.205 352.733 296.131C352.939 296.955 353.556 297.366 354.585 297.366C356.643 297.366 359.164 296.183 362.148 293.816C365.236 291.346 368.323 288.465 371.41 285.172C374.497 281.777 377.378 278.381 380.053 274.985C382.729 271.589 384.735 268.965 386.073 267.113Z" fill="#AE983C"/>
<path d="M336.251 267.113C336.663 266.598 337.074 266.547 337.486 266.959C337.897 267.37 338 267.73 337.795 268.039C335.531 271.332 332.649 275.242 329.151 279.77C325.755 284.195 321.948 288.825 317.729 293.662C313.613 298.395 309.188 303.077 304.454 307.708C299.721 312.338 294.936 316.454 290.099 320.056C285.263 323.76 280.427 326.693 275.59 328.854C270.857 331.015 266.329 332.044 262.007 331.941C257.377 331.838 253.621 330.603 250.739 328.237C247.858 325.87 245.646 322.886 244.102 319.284C242.559 315.786 241.53 311.927 241.015 307.708C240.604 303.592 240.449 299.681 240.552 295.977C240.655 290.112 241.375 283.166 242.713 275.139C244.051 267.01 245.852 258.366 248.115 249.208C250.379 239.947 253.055 230.531 256.142 220.961C259.332 211.392 262.728 202.182 266.329 193.332C270.034 184.483 273.892 176.353 277.906 168.944C281.919 161.536 286.035 155.413 290.254 150.576L292.26 148.416C289.276 150.165 286.086 152.48 282.691 155.361C279.295 158.14 275.796 161.227 272.195 164.623C268.696 168.018 265.249 171.568 261.853 175.273C258.457 178.875 255.267 182.373 252.283 185.769C249.299 189.062 246.623 192.097 244.257 194.876C241.89 197.654 240.089 199.867 238.854 201.513C234.944 206.555 231.291 211.597 227.895 216.64C224.499 221.682 221.464 226.621 218.788 231.457C218.994 234.956 218.994 238.403 218.788 241.799C218.788 242.622 218.634 244.269 218.325 246.738C218.12 249.105 217.759 251.575 217.245 254.147C216.73 256.72 216.01 258.984 215.084 260.939C214.158 262.894 213.026 263.872 211.688 263.872C210.968 263.872 210.402 263.666 209.99 263.254C209.579 262.74 209.219 262.174 208.91 261.556C208.704 260.836 208.55 260.116 208.447 259.395C208.447 258.572 208.447 257.903 208.447 257.389C208.344 252.964 209.219 248.436 211.071 243.806C212.923 239.175 214.93 234.905 217.091 230.994C216.576 223.38 215.033 214.993 212.46 205.835C209.99 196.574 206.8 187.57 202.89 178.823C199.289 170.797 195.224 163.594 190.696 157.214C186.169 150.834 181.435 146.255 176.496 143.476C175.364 142.859 174.952 142.293 175.261 141.778C175.57 141.264 176.187 141.264 177.113 141.778C182.361 144.763 187.3 149.496 191.931 155.979C196.562 162.462 200.729 169.871 204.434 178.206C208.138 186.438 211.225 194.979 213.695 203.828C216.164 212.678 217.759 220.859 218.48 228.37C221.155 223.843 224.088 219.264 227.278 214.633C230.571 209.899 234.018 205.166 237.619 200.432C239.163 198.477 241.375 195.75 244.257 192.252C247.241 188.65 250.585 184.791 254.29 180.675C258.097 176.559 262.11 172.34 266.329 168.018C270.548 163.696 274.716 159.786 278.832 156.288C282.948 152.789 286.858 149.856 290.563 147.489C294.267 145.123 297.508 143.836 300.287 143.631C300.904 143.528 301.213 143.785 301.213 144.402C301.316 144.917 301.007 145.226 300.287 145.328C297.714 145.843 294.782 147.952 291.489 151.657C287.784 155.876 284.08 161.793 280.375 169.408C276.774 177.022 273.275 185.512 269.879 194.876C266.483 204.137 263.294 213.913 260.309 224.203C257.325 234.39 254.753 244.269 252.592 253.839C250.431 263.408 248.681 272.258 247.344 280.387C246.109 288.414 245.44 294.948 245.337 299.99C245.337 302.974 245.491 306.216 245.8 309.714C246.109 313.213 246.829 316.454 247.961 319.439C249.196 322.526 250.945 325.098 253.209 327.156C255.576 329.214 258.714 330.295 262.625 330.398C266.741 330.501 271.114 329.42 275.745 327.156C280.375 324.892 285.057 321.908 289.791 318.204C294.524 314.602 299.206 310.486 303.837 305.856C308.467 301.328 312.789 296.697 316.803 291.964C320.919 287.23 324.623 282.703 327.916 278.381C331.312 274.059 334.09 270.303 336.251 267.113ZM147.94 139C156.378 139 163.53 140.389 169.395 143.168C175.364 145.946 180.2 149.805 183.905 154.744C187.712 159.58 190.439 165.394 192.085 172.186C193.732 178.875 194.504 186.129 194.401 193.95C194.092 205.783 192.24 217.874 188.844 230.223C185.448 242.571 180.766 254.559 174.798 266.187C168.83 277.815 161.729 288.877 153.497 299.373C145.265 309.869 136.158 319.233 126.177 327.465C116.298 335.697 105.648 342.54 94.2256 347.994C82.9064 353.551 71.1241 357.152 58.8788 358.799C58.2614 358.901 57.9012 358.644 57.7983 358.027C57.7983 357.512 58.0556 357.204 58.5701 357.101C70.6096 355.454 82.1346 351.801 93.1451 346.142C104.156 340.585 114.394 333.588 123.861 325.15C133.431 316.815 142.126 307.348 149.947 296.749C157.87 286.047 164.662 274.882 170.322 263.254C175.981 251.626 180.457 239.741 183.75 227.599C187.043 215.456 188.895 203.674 189.307 192.252C189.616 184.843 189.05 178 187.609 171.723C186.169 165.446 183.75 159.992 180.355 155.361C177.062 150.731 172.74 147.129 167.389 144.557C162.038 141.984 155.555 140.698 147.94 140.698C140.12 140.698 132.042 141.984 123.707 144.557C115.372 147.026 107.037 150.525 98.7019 155.053C90.3668 159.477 82.1861 164.777 74.1597 170.951C66.2363 177.125 58.673 183.865 51.4698 191.171C44.3696 198.477 37.7839 206.246 31.7127 214.479C25.7444 222.608 20.5478 230.943 16.123 239.484C11.6982 247.922 8.19957 256.463 5.62702 265.106C3.15737 273.647 1.8711 281.931 1.76819 289.957C1.76819 290.78 1.45949 291.192 0.842077 291.192C0.327567 291.089 0.0703125 290.677 0.0703125 289.957C0.173214 279.05 2.43706 267.782 6.86184 256.154C11.2866 244.423 17.2035 233.001 24.6124 221.888C32.0214 210.671 40.6137 200.072 50.3894 190.091C60.1651 180.006 70.5067 171.208 81.4143 163.696C92.3219 156.082 103.487 150.062 114.909 145.637C126.331 141.212 137.342 139 147.94 139ZM217.091 239.329C217.193 238.506 217.245 237.683 217.245 236.86C217.245 236.037 217.245 235.213 217.245 234.39C215.496 237.683 213.849 241.336 212.306 245.349C210.865 249.362 210.145 253.273 210.145 257.08C210.145 257.286 210.145 257.697 210.145 258.315C210.248 258.829 210.35 259.395 210.453 260.013C210.556 260.527 210.711 261.042 210.916 261.556C211.122 261.968 211.379 262.174 211.688 262.174C212.717 262.277 213.54 261.248 214.158 259.087C214.878 256.926 215.444 254.507 215.856 251.832C216.267 249.054 216.576 246.43 216.782 243.96C216.988 241.49 217.091 239.947 217.091 239.329Z" fill="#AE983C"/>
<path d="M775.995 312.564C756.077 304.248 736.642 320.626 732.08 347.505C729.684 337.366 723.859 328.661 717.229 323.728C711.119 319.165 704.675 318.295 699.125 321.032C685.188 327.919 680.131 353.757 682.071 376.781C682.907 390.087 685.325 403.431 687.459 416.638C687.554 417.28 688.494 417.9 688.819 417.738C689.37 417.465 689.209 416.461 689.071 415.713C684.178 390.572 679.6 361.889 687.252 340.824C689.583 334.21 693.074 328.454 697.51 325.051C701.087 322.31 705.487 321.084 709.932 322.304C719.945 325.061 730.46 338.601 731.274 354.457C731.182 355.924 731.072 357.395 731.061 358.901C731.048 360.09 732.41 360.813 732.868 360.215C733.47 359.381 733.283 358.268 733.257 357.147C733.261 356.308 733.196 355.484 733.142 354.63C739.829 294.211 807.088 300.961 800.446 378.513C796.584 415.781 778.745 446.064 765.071 472.064C748.245 497.564 732.946 520.064 715.946 543.564C710.946 550.476 707.724 554.304 701.946 558.564C701.097 559.426 699.117 560.529 698.268 561.392C697.824 561.813 697.386 562.262 696.941 562.684C696.741 562.991 690.158 563.564 694.571 563.564C694.935 565.127 700.704 557.971 701.946 558.564C723.571 536.064 744.071 512.564 766.397 475.064C769.071 470.573 769.932 469.048 771.571 466.064C780.342 450.116 788.674 433.639 794.89 414.643C805.842 385.063 809.531 326.845 775.995 312.564Z" fill="#AE983C"/>
<path d="M725.503 529.959C725.709 529.547 726.017 529.547 726.429 529.959C726.943 530.267 727.098 530.576 726.892 530.885C721.335 538.705 716.345 545.137 711.92 550.179C710.685 551.619 709.193 553.214 707.444 554.964C705.797 556.713 703.996 558.36 702.041 559.903C700.189 561.344 698.234 562.579 696.176 563.608C694.118 564.637 692.111 565.151 690.156 565.151C688.407 565.151 687.018 564.688 685.988 563.762C684.959 562.939 684.188 561.91 683.673 560.675C683.159 559.337 682.799 557.897 682.593 556.353C682.387 554.809 682.284 553.369 682.284 552.031C682.284 548.018 682.747 543.593 683.673 538.757C684.496 533.92 685.577 529.033 686.915 524.093C688.252 519.051 689.642 514.112 691.082 509.275C692.626 504.336 694.015 499.757 695.25 495.538C693.089 495.641 690.928 495.692 688.767 495.692C686.709 495.589 684.805 495.435 683.056 495.229C679.454 494.818 676.522 494.046 674.258 492.914C671.891 491.782 670.759 489.93 670.862 487.357C670.862 486.74 671.171 486.534 671.788 486.74C672.303 486.843 672.56 487.049 672.56 487.357C672.56 489.415 673.589 490.907 675.647 491.833C677.602 492.657 680.123 493.223 683.21 493.531C684.959 493.737 686.915 493.84 689.076 493.84C691.339 493.84 693.552 493.84 695.713 493.84C696.433 491.576 697.05 489.467 697.565 487.512C698.079 485.556 698.44 483.859 698.645 482.418C698.748 482.006 699.057 481.852 699.572 481.955C700.189 482.058 700.498 482.212 700.498 482.418C700.498 484.888 699.932 488.695 698.8 493.84C701.372 493.84 703.893 493.84 706.363 493.84C708.936 493.84 711.457 493.943 713.926 494.149C716.808 494.457 719.123 495.075 720.872 496.001C722.725 496.824 723.599 498.162 723.496 500.014C723.496 500.323 723.188 500.529 722.57 500.632C722.056 500.632 721.798 500.374 721.798 499.86C721.695 498.625 720.924 497.699 719.483 497.081C718.042 496.464 716.139 496.052 713.772 495.847C711.302 495.641 708.781 495.538 706.209 495.538C703.636 495.538 701.064 495.538 698.491 495.538C697.565 500.169 696.433 505.314 695.095 510.973C693.861 516.633 692.626 522.344 691.391 528.106C690.156 533.766 689.127 539.168 688.304 544.313C687.481 549.356 687.069 553.575 687.069 556.97C687.069 557.588 687.069 558.308 687.069 559.131C687.172 559.852 687.326 560.572 687.532 561.292C687.738 561.91 688.047 562.424 688.458 562.836C688.973 563.247 689.642 563.453 690.465 563.453C692.214 563.453 694.015 562.939 695.867 561.91C697.822 560.881 699.674 559.646 701.424 558.205C703.276 556.662 704.974 555.067 706.517 553.42C708.164 551.774 709.553 550.333 710.685 549.098C712.743 546.732 715.007 543.953 717.476 540.763C719.946 537.573 722.622 533.972 725.503 529.959Z" fill="#AE983C"/>
<path d="M685.614 529.959C685.923 529.547 686.283 529.547 686.694 529.959C687.106 530.267 687.209 530.627 687.003 531.039C685.871 532.583 684.379 534.692 682.527 537.368C680.675 539.94 678.565 542.77 676.198 545.857C673.832 548.841 671.362 551.877 668.789 554.964C666.217 558.051 663.644 560.829 661.072 563.299C658.499 565.769 656.029 567.775 653.663 569.319C651.296 570.965 649.187 571.737 647.334 571.634C644.865 571.531 643.115 570.656 642.086 569.01C641.16 567.363 640.697 565.408 640.697 563.145C640.697 560.057 641.109 557.022 641.932 554.038C642.755 550.951 643.681 547.966 644.71 545.085C645.739 542.204 646.717 539.529 647.643 537.059C648.569 534.486 649.032 532.274 649.032 530.422C649.032 528.569 648.672 526.872 647.952 525.328C647.231 523.682 646.305 522.087 645.173 520.543C643.012 524.145 640.697 527.746 638.227 531.348C637.816 531.862 637.353 531.965 636.838 531.657C636.427 531.348 636.375 530.936 636.684 530.422C639.565 526.409 641.983 522.601 643.939 519C642.086 516.53 640.234 514.009 638.382 511.436C636.632 508.761 635.758 505.725 635.758 502.329C635.758 499.654 636.478 497.647 637.919 496.31C639.462 494.869 641.16 494.149 643.012 494.149C645.688 494.149 647.694 495.229 649.032 497.39C650.473 499.448 651.193 501.661 651.193 504.027C651.193 506.291 650.627 508.761 649.495 511.436C648.466 514.009 647.437 516.273 646.408 518.228C648.055 520.389 649.444 522.704 650.576 525.174C651.811 527.54 652.428 530.319 652.428 533.509C652.428 536.184 652.016 538.911 651.193 541.689C650.473 544.468 649.65 547.246 648.723 550.025C647.9 552.803 647.128 555.581 646.408 558.36C645.791 561.035 645.482 563.608 645.482 566.077C645.585 567.003 645.739 567.878 645.945 568.701C646.254 569.524 646.974 569.936 648.106 569.936C649.65 569.936 651.502 569.113 653.663 567.466C655.824 565.923 658.139 563.916 660.609 561.447C663.078 558.977 665.548 556.199 668.018 553.112C670.59 550.025 673.008 547.04 675.272 544.159C677.536 541.175 679.543 538.448 681.292 535.978C683.144 533.406 684.585 531.399 685.614 529.959ZM637.764 502.329C637.764 505.108 638.536 507.629 640.08 509.893C641.623 512.157 643.321 514.472 645.173 516.839C646.099 515.089 647.026 513.031 647.952 510.665C648.981 508.195 649.495 505.982 649.495 504.027C649.495 502.175 648.929 500.374 647.797 498.625C646.768 496.773 645.225 495.847 643.167 495.847C641.726 495.847 640.44 496.413 639.308 497.545C638.279 498.676 637.764 500.271 637.764 502.329Z" fill="#AE983C"/>
<path d="M637.046 529.959C637.251 529.65 637.56 529.701 637.972 530.113C638.486 530.422 638.641 530.73 638.435 531.039C636.994 533.097 635.296 535.052 633.341 536.904C631.386 538.654 629.225 540.197 626.858 541.535C624.492 542.77 622.022 543.747 619.449 544.468C616.98 545.188 614.51 545.548 612.04 545.548C609.982 545.548 608.285 545.342 606.947 544.931C605.815 547.4 604.22 549.51 602.162 551.259C600.207 552.906 597.788 553.678 594.907 553.575C591.306 553.575 588.733 552.443 587.19 550.179C585.543 547.812 584.771 545.137 584.874 542.152C584.874 539.683 585.44 537.265 586.572 534.898C587.601 532.428 589.093 530.473 591.048 529.033C591.872 528.415 592.592 528.467 593.209 529.187C593.827 529.804 593.724 530.473 592.901 531.193C592.18 531.914 591.563 533.251 591.048 535.207C590.637 537.162 590.431 539.22 590.431 541.381C590.431 544.056 590.791 546.526 591.511 548.79C592.335 550.951 593.775 552.031 595.833 552.031C597.994 551.928 599.847 551.156 601.39 549.716C603.036 548.275 604.374 546.526 605.403 544.468C602.625 543.336 600.567 541.329 599.229 538.448C597.994 535.464 597.428 532.531 597.531 529.65C597.634 527.386 598.149 525.431 599.075 523.785C600.104 522.138 601.544 521.315 603.397 521.315C605.66 521.315 607.307 522.395 608.336 524.556C609.365 526.717 609.931 529.29 610.034 532.274C610.034 534.023 609.828 535.875 609.416 537.831C609.108 539.683 608.542 541.535 607.719 543.387C608.953 543.696 610.394 543.85 612.04 543.85C616.774 543.85 621.456 542.513 626.087 539.837C630.717 537.162 634.37 533.869 637.046 529.959ZM606.021 542.77C606.844 540.918 607.41 539.065 607.719 537.213C608.027 535.258 608.182 533.56 608.182 532.12C608.182 529.547 607.821 527.386 607.101 525.637C606.381 523.887 605.146 523.013 603.397 523.013C602.059 523.013 601.03 523.733 600.31 525.174C599.589 526.511 599.229 528.158 599.229 530.113C599.126 532.583 599.641 535.052 600.773 537.522C601.905 539.992 603.654 541.741 606.021 542.77Z" fill="#AE983C"/>
<path d="M589.791 529.959C589.996 529.547 590.305 529.547 590.717 529.959C591.231 530.267 591.386 530.576 591.18 530.885C587.475 536.441 582.845 540.403 577.288 542.77C571.731 545.137 565.711 546.577 559.229 547.092C556.759 550.693 553.569 553.472 549.659 555.427C545.851 557.382 541.684 558.257 537.156 558.051C536.333 561.344 535.407 564.688 534.378 568.084C533.246 571.582 532.114 575.081 530.982 578.58C527.998 587.635 525.22 596.33 522.647 604.665C520.074 613.103 518.531 620.564 518.016 627.047C517.914 627.664 517.605 627.973 517.09 627.973C516.576 628.076 516.267 627.715 516.164 626.892C515.753 623.702 515.753 620.204 516.164 616.396C516.473 612.589 517.09 608.576 518.016 604.357C518.84 600.241 519.869 595.97 521.103 591.545C522.338 587.224 523.676 582.85 525.117 578.425C526.351 574.824 527.586 571.171 528.821 567.466C529.953 563.865 531.085 560.263 532.217 556.662C531.188 556.147 530.365 555.427 529.747 554.501C529.13 553.575 528.873 552.546 528.975 551.414C528.975 549.459 529.696 548.018 531.136 547.092C532.474 546.063 534.018 545.445 535.767 545.24C536.59 542.358 537.311 539.631 537.928 537.059C538.442 534.486 538.803 532.017 539.008 529.65C539.111 529.135 539.42 528.878 539.935 528.878C540.552 528.878 540.861 529.135 540.861 529.65C541.272 534.075 541.015 539.117 540.089 544.777C540.192 544.365 540.809 543.079 541.941 540.918C543.176 538.757 544.668 536.493 546.417 534.126C548.167 531.657 550.07 529.496 552.128 527.643C554.289 525.688 556.45 524.711 558.611 524.711C560.361 524.711 561.75 525.482 562.779 527.026C563.911 528.467 564.477 530.267 564.477 532.428C564.477 534.589 564.065 536.802 563.242 539.065C562.522 541.329 561.595 543.387 560.463 545.24C566.329 544.725 571.783 543.336 576.825 541.072C581.97 538.705 586.292 535.001 589.791 529.959ZM559.692 529.496C559.692 527.438 559.126 526.409 557.994 526.409C556.759 526.409 555.421 527.026 553.981 528.261C552.54 529.393 551.099 530.885 549.659 532.737C548.218 534.589 546.829 536.647 545.491 538.911C544.154 541.072 542.97 543.13 541.941 545.085C543.073 545.085 544.153 545.137 545.183 545.24C546.314 545.24 547.395 545.291 548.424 545.394C549.35 545.497 550.276 545.548 551.202 545.548C552.128 545.548 553.106 545.548 554.135 545.548C555.473 543.49 556.708 540.918 557.839 537.831C558.971 534.641 559.589 531.862 559.692 529.496ZM537.619 556.353C540.809 556.353 543.69 555.478 546.263 553.729C548.836 551.98 551.048 549.819 552.9 547.246C552.077 547.246 551.305 547.246 550.585 547.246C549.865 547.246 549.093 547.195 548.27 547.092C547.138 546.989 545.954 546.937 544.719 546.937C543.588 546.835 542.353 546.783 541.015 546.783L538.854 550.951L537.619 556.353ZM532.834 555.118C533.246 553.678 533.658 552.288 534.069 550.951C534.481 549.613 534.892 548.327 535.304 547.092C534.172 547.298 533.143 547.761 532.217 548.481C531.291 549.098 530.776 550.025 530.673 551.259C530.57 552.803 531.291 554.089 532.834 555.118Z" fill="#AE983C"/>
<path d="M539.277 529.959C539.586 529.547 539.946 529.547 540.357 529.959C540.872 530.267 541.026 530.576 540.82 530.885C539.277 533.149 537.167 535.773 534.492 538.757C531.817 541.741 528.935 544.571 525.848 547.246C522.761 549.922 519.571 552.185 516.278 554.038C513.088 555.89 510.053 556.816 507.171 556.816C503.879 556.816 501.46 555.684 499.917 553.42C498.27 551.156 497.447 548.378 497.447 545.085C497.447 542.513 497.91 539.837 498.836 537.059C499.66 534.178 500.894 531.605 502.541 529.341C504.29 526.974 506.4 525.019 508.869 523.476C511.339 521.932 514.117 521.16 517.204 521.16C519.468 521.16 521.218 521.726 522.452 522.858C523.79 523.99 524.459 525.534 524.459 527.489C524.459 528.621 524.099 529.753 523.379 530.885C522.761 531.914 521.681 532.891 520.137 533.817C518.594 534.744 516.536 535.464 513.963 535.978C511.493 536.493 508.406 536.75 504.702 536.75C503.467 540.352 502.85 543.85 502.85 547.246C502.85 549.51 503.21 551.414 503.93 552.957C504.65 554.398 505.834 555.118 507.48 555.118C510.053 555.118 512.883 554.192 515.97 552.34C519.057 550.488 522.092 548.275 525.076 545.703C528.061 543.027 530.788 540.249 533.257 537.368C535.83 534.486 537.836 532.017 539.277 529.959ZM518.439 523.013C515.455 523.013 512.883 524.196 510.722 526.563C508.561 528.93 506.76 531.759 505.319 535.052C508.612 535.052 511.39 534.846 513.654 534.435C515.918 533.92 517.719 533.303 519.057 532.583C520.394 531.759 521.321 530.885 521.835 529.959C522.452 529.033 522.761 528.106 522.761 527.18C522.658 526.048 522.195 525.071 521.372 524.248C520.549 523.424 519.571 523.013 518.439 523.013Z" fill="#AE983C"/>
<path d="M507.063 608.987C507.68 608.782 508.04 608.936 508.143 609.45C508.246 610.068 508.04 610.428 507.526 610.531C504.85 611.251 502.278 611.714 499.808 611.92C497.441 612.229 495.178 612.383 493.017 612.383C487.769 612.383 483.344 611.457 479.742 609.605C476.141 607.855 473.157 605.437 470.79 602.35C468.423 599.366 466.571 595.867 465.233 591.854C463.895 587.944 462.815 583.776 461.992 579.352C461.169 574.927 460.5 570.399 459.985 565.769C459.471 561.138 458.853 556.713 458.133 552.494C457.515 548.275 456.641 544.365 455.509 540.763C454.48 537.162 452.988 534.126 451.033 531.657C450.312 531.759 449.386 531.862 448.254 531.965C447.122 531.965 445.836 531.965 444.395 531.965C442.749 531.965 441.051 531.914 439.302 531.811C437.553 531.708 435.906 531.502 434.363 531.193C432.922 530.885 431.739 530.473 430.812 529.959C429.886 529.444 429.423 528.724 429.423 527.798C429.423 527.077 429.783 526.46 430.504 525.945C431.224 525.431 432.047 525.071 432.973 524.865C434.002 524.556 434.98 524.35 435.906 524.248C436.935 524.145 437.707 524.093 438.221 524.093C441.514 524.093 444.396 524.556 446.865 525.482C449.438 526.409 451.65 527.746 453.502 529.496C461.94 528.158 469.298 525.277 475.575 520.852C481.852 516.324 487.048 510.973 491.164 504.799C495.383 498.625 498.522 491.988 500.58 484.888C502.638 477.684 503.667 470.636 503.667 463.741C503.667 458.39 503.05 453.348 501.815 448.615C500.683 443.778 498.934 439.559 496.567 435.958C494.2 432.356 491.216 429.526 487.614 427.468C484.116 425.307 480 424.278 475.266 424.381C471.973 424.381 468.783 424.947 465.696 426.079C462.609 427.108 459.779 428.6 457.207 430.555C454.634 432.408 452.37 434.62 450.415 437.193C448.46 439.765 446.968 442.595 445.939 445.682C444.395 451.444 443.006 457.361 441.771 463.433C440.64 469.504 439.508 475.678 438.376 481.955C436.523 492.039 434.517 502.227 432.356 512.517C430.298 522.704 427.571 532.634 424.175 542.307C420.882 551.98 416.663 561.189 411.518 569.936C406.476 578.683 400.045 586.555 392.224 593.552C384.507 600.549 375.142 606.466 364.132 611.303C353.121 616.242 340.001 619.741 324.772 621.799C323.949 621.902 323.486 621.644 323.383 621.027C323.28 620.512 323.64 620.204 324.463 620.101C339.075 618.146 351.629 614.698 362.125 609.759C372.621 604.923 381.574 599.057 388.983 592.163C396.392 585.268 402.463 577.499 407.196 568.856C412.033 560.212 415.995 551.105 419.082 541.535C422.272 531.965 424.844 522.138 426.799 512.054C428.857 501.969 430.812 491.936 432.665 481.955C434.002 474.752 435.392 467.651 436.832 460.654C438.376 453.657 440.125 446.968 442.08 440.588C444.138 434.208 446.505 428.189 449.18 422.529C451.959 416.869 455.303 411.724 459.213 407.094C455.818 406.579 452.422 406.065 449.026 405.55C445.63 405.036 442.183 404.778 438.684 404.778C428.497 404.778 418.413 405.91 408.431 408.174C398.553 410.438 388.931 413.628 379.567 417.744C370.203 421.757 361.199 426.645 352.555 432.408C344.015 438.067 336.04 444.293 328.631 451.084C320.913 458.287 313.864 466.005 307.484 474.237C301.105 482.366 295.651 490.804 291.123 499.551C286.595 508.298 283.097 517.199 280.627 526.254C278.157 535.207 276.871 544.108 276.768 552.957C276.768 553.678 276.459 554.038 275.842 554.038C275.328 554.038 275.07 553.626 275.07 552.803C275.173 543.85 276.459 534.795 278.929 525.637C281.502 516.478 285.052 507.526 289.579 498.779C294.21 489.93 299.715 481.389 306.095 473.157C312.475 464.822 319.627 457.053 327.55 449.849C335.062 442.955 343.14 436.627 351.784 430.864C360.427 425.102 369.431 420.162 378.795 416.046C388.262 411.93 398.038 408.74 408.123 406.476C418.207 404.212 428.394 403.081 438.684 403.081C442.389 403.081 446.042 403.389 449.643 404.007C453.245 404.521 456.847 405.036 460.448 405.55C462.3 403.492 464.461 401.486 466.931 399.53C469.504 397.472 472.23 396.443 475.112 396.443C476.552 396.443 478.096 396.855 479.742 397.678C481.389 398.501 482.212 399.788 482.212 401.537C482.212 402.772 481.749 403.852 480.823 404.778C479.897 405.602 478.765 406.27 477.427 406.785C476.192 407.197 474.854 407.505 473.414 407.711C472.076 407.917 470.944 408.02 470.018 408.02C467.343 408.02 464.719 407.865 462.146 407.557C459.162 411.879 456.538 416.509 454.274 421.449C452.01 426.388 450.004 431.636 448.254 437.193C451.341 432.871 455.2 429.423 459.831 426.851C464.564 424.175 469.709 422.786 475.266 422.683C480.823 422.683 485.711 423.867 489.93 426.233C494.149 428.497 497.647 431.584 500.426 435.495C503.307 439.302 505.468 443.778 506.908 448.923C508.349 453.966 509.069 459.316 509.069 464.976C509.069 471.973 507.989 479.125 505.828 486.431C503.667 493.737 500.323 500.477 495.795 506.651C491.37 512.825 485.762 518.176 478.971 522.704C472.179 527.129 464.204 530.01 455.046 531.348C457.927 534.744 460.037 539.065 461.374 544.313C462.815 549.561 463.947 555.118 464.77 560.984C465.696 566.746 466.571 572.56 467.394 578.425C468.217 584.394 469.555 589.745 471.407 594.478C473.259 599.212 475.883 603.07 479.279 606.055C482.675 609.142 487.357 610.737 493.325 610.84C497.236 610.942 501.815 610.325 507.063 608.987ZM475.112 398.141C472.436 398.141 470.172 398.964 468.32 400.611C466.468 402.257 464.77 404.007 463.227 405.859C465.49 406.168 467.754 406.322 470.018 406.322C470.635 406.322 471.51 406.27 472.642 406.168C473.877 405.962 475.06 405.705 476.192 405.396C477.427 404.984 478.456 404.47 479.279 403.852C480.102 403.235 480.514 402.412 480.514 401.383C480.514 400.251 479.845 399.427 478.507 398.913C477.17 398.398 476.038 398.141 475.112 398.141ZM443.932 530.267C445.167 530.267 446.248 530.267 447.174 530.267C448.203 530.164 448.975 530.062 449.489 529.959C448.049 528.621 446.402 527.592 444.55 526.872C442.801 526.151 440.691 525.791 438.221 525.791C437.913 525.791 437.398 525.843 436.678 525.945C435.958 525.945 435.186 526.048 434.363 526.254C433.539 526.357 432.819 526.563 432.202 526.872C431.584 527.077 431.275 527.386 431.275 527.798C431.275 528.312 431.636 528.724 432.356 529.033C433.179 529.341 434.208 529.598 435.443 529.804C436.678 530.01 438.016 530.164 439.456 530.267C441 530.267 442.492 530.267 443.932 530.267Z" fill="#AE983C"/>
</svg>
