<svg width="480" height="217" viewBox="0 0 480 217" fill="none" xmlns="http://www.w3.org/2000/svg">
<defs>
  <filter id="drop-shadow" x="-300%" y="-400%" width="600%" height="800%">
    <feFlood flood-color="#eeeeee" result="flood" />
    <feComposite in="flood" in2="SourceGraphic" operator="in" />
    <feGaussianBlur stdDeviation="10" />
    <feOffset dx="5" dy="5" />
    <feMerge>
      <feMergeNode/>
      <feMergeNode in="SourceGraphic"/>
    </feMerge>
  </filter>
</defs>
<style>
.mask-path {
  fill: none; /* 塗りつぶしはなし */
  stroke: #fff; /* マスクの描画には白を使用 */
  stroke-width: 12; /* 線の太さを調整して文字を覆う */
  stroke-dasharray: var(--path-length);
  stroke-dashoffset: var(--path-length);
  animation: draw-mask 4.5s ease-in-out forwards;
}

@keyframes draw-mask {
  to {
    stroke-dashoffset: 0;
  }
}

.mask0 {
  --path-length: 3590; /* 適切なパスの長さを設定 */
  animation-delay: 0s;
}
</style>
<mask id="mask0_17_514" style="mask-type:alpha" maskUnits="userSpaceOnUse" x="-2" y="-16" width="450" height="235">
<path class="mask-path mask0" d="M14.5 99L7 88.5L22.5 61L38.5 45L61.5 28L77.5 5H87L61.5 38.5L33 140L22.5 155.5L0.5 166.5H48.5L77.5 75.5H96L86 96L84.5 110.5C84.5 112.9 89.1667 109.333 90.5 110.5L95 105L102 99L122.5 61L127 63L113.5 94L117 98L122.5 99H132.5L128.5 87L162 41.5L181 50.5L164 61L162 65.5H172.5L176 70.5L177 79.5L172.5 89L167 94L159.5 99L153 100.5L142 99L138 87L145.5 21.5H198.5L181 58L192 59L198.5 54L217.5 45L229.5 40L220 3.5L209 43L196 77.5V87L198.5 93.1333L205 94L211.5 89L217.5 84.5L224 79.5L67.5 132L39 208L46 213.5L61 210.5L73.5 198L99 137L96 172L95 191L96 199.5L102 194L104 181.5L139.5 123.5L142 128.5L135 154L128.5 181.5L131 203L142 208L139.5 162.5L165.5 140L186 137L182.5 154L172.5 155.5L164 162.5L156.5 172L154.5 181.5V191H164L172.5 181.5L182.5 157.5L181 180L182.5 184.5H192L195 183.5L200 178L217.5 154L223.5 137.5L227 128.5L231 137.5L233.5 145L232.5 154L230 162.5L229 173L233.5 178H243.5L252.5 174.5L243.5 169L257.5 154L266.5 137L268.5 118.5L272 120.5L279.5 137L275.5 154V165L284.5 167L291 165L281 161L291 128.5L304 81.5L315.5 89L319.5 92.5L307.5 120.5L294 159L298 162.5L309 161L315.5 156.5L309 147L314 115.5L350.5 109.5V139.5L326.5 145L337.5 131.5V122.5L327.5 124.5L319.5 139.5L321 148.5L326.5 155.5L331 156.5L354.5 148.5L355 147L354.5 142L347 98L391.5 92.5V107L375 113.5L366.5 124.5L362.5 139.5L365 149.5L372.5 148L377 144L391.5 124.5L399 107L402.5 102.5L409 87.5L415 67.5L414 56L404 92.5L396 128.5L400.5 135L409 137L419 133H447.5" stroke="black" stroke-width="10"/>
</mask>
<g mask="url(#mask0_17_514)">
<path d="M434.671 128.871C435.449 128.711 436.421 128.511 437.588 128.27C438.833 128.014 440.063 127.883 441.278 127.876C442.493 127.869 443.584 128.05 444.552 128.418C445.52 128.786 446.124 129.554 446.364 130.721C446.717 132.432 446.53 133.89 445.805 135.093C445.08 136.297 443.861 137.075 442.15 137.427C441.916 137.475 441.489 137.563 440.866 137.692C440.322 137.804 439.73 137.885 439.092 137.935C438.437 137.908 437.814 137.834 437.221 137.712C436.706 137.575 436.409 137.312 436.329 136.923L434.671 128.871Z" fill="white" filter="url(#drop-shadow)" />
<path d="M358.646 142.458C357.845 138.568 358.149 134.532 359.559 130.349C361.046 126.15 363.204 122.259 366.035 118.676C368.865 115.093 372.165 112.021 375.936 109.461C379.691 106.822 383.435 105.119 387.169 104.35C388.648 104.045 390.104 104.029 391.539 104.302C392.973 104.574 394.43 104.558 395.908 104.253L396.608 104.109C396.821 103.173 397.247 101.504 397.888 99.1017C398.606 96.6831 399.34 94.1399 400.088 91.472C400.914 88.788 401.694 86.2756 402.428 83.9349C403.147 81.5164 403.69 79.8231 404.058 78.8553C404.61 77.201 405.4 75.1325 406.43 72.6499C407.443 70.0895 408.434 67.6149 409.402 65.2261C410.447 62.8212 411.363 60.7676 412.147 59.0653C412.932 57.3629 413.402 56.4957 413.558 56.4637L419.046 60.0776C419.078 60.2332 418.911 60.9974 418.545 62.3703C418.257 63.7271 417.854 65.513 417.337 67.7279C416.804 69.865 416.163 72.2675 415.415 74.9354C414.745 77.5874 414.036 80.2473 413.288 82.9153C412.539 85.5832 411.814 88.1653 411.112 90.6617C410.471 93.0642 409.875 95.0926 409.324 96.7469C407.665 100.9 405.983 105.139 404.279 109.463C402.636 113.694 401.412 117.595 400.607 121.167C399.863 124.645 399.74 127.59 400.236 130.001C400.811 132.397 402.478 133.797 405.237 134.202C409.729 132.385 413.157 131.314 415.523 130.989C417.889 130.664 419.416 130.796 420.105 131.384C420.856 131.878 420.938 132.672 420.352 133.766C419.751 134.782 418.666 135.816 417.099 136.869C415.609 137.905 413.799 138.764 411.669 139.446C409.539 140.128 407.313 140.343 404.99 140.092C402.668 139.84 400.42 138.965 398.246 137.466C396.072 135.968 394.158 133.564 392.504 130.255L377.516 149.033C377.516 149.033 377.221 149.175 376.631 149.459C376.118 149.726 375.45 150.026 374.626 150.358C373.88 150.674 373.095 150.998 372.272 151.329C371.448 151.661 370.772 151.922 370.243 152.112L369.543 152.256C367.754 152.625 366.212 152.618 364.917 152.236C363.683 151.76 362.651 151.08 361.821 150.197C360.974 149.236 360.29 148.079 359.768 146.727C359.324 145.359 358.95 143.936 358.646 142.458ZM365.967 139.612C366.063 140.079 366.136 140.632 366.186 141.27C366.314 141.892 366.473 142.468 366.663 142.996C366.915 143.431 367.237 143.811 367.628 144.136C368.097 144.445 368.682 144.527 369.382 144.383C370.393 144.175 371.527 143.576 372.783 142.588C374.101 141.505 375.356 140.314 376.548 139.015C377.74 137.715 378.815 136.439 379.774 135.188C380.81 133.92 381.553 132.997 382.001 132.418C382.434 131.761 383.245 130.581 384.435 128.876C385.608 127.093 386.805 125.225 388.025 123.271C389.322 121.301 390.527 119.472 391.638 117.783C392.75 116.094 393.515 114.883 393.931 114.148L393.859 113.798C393.827 113.643 393.811 113.565 393.811 113.565C393.873 113.471 393.896 113.385 393.88 113.307C393.735 112.607 393.398 112.15 392.867 111.935C392.398 111.626 391.844 111.496 391.206 111.547C390.629 111.503 390.038 111.585 389.431 111.791C388.809 111.919 388.303 112.023 387.914 112.103C385.114 112.68 382.278 113.872 379.406 115.679C376.535 117.487 373.985 119.675 371.756 122.242C369.589 124.715 367.931 127.49 366.78 130.565C365.613 133.562 365.342 136.578 365.967 139.612Z" fill="white" filter="url(#drop-shadow)" />
<path d="M320.216 156.088C318.285 153.404 317.109 150.646 316.688 147.813C316.25 144.903 316.32 142.09 316.897 139.377C317.535 136.569 318.541 133.97 319.913 131.579C321.348 129.094 322.963 126.896 324.759 124.986C326.539 122.997 328.4 121.398 330.34 120.187C332.358 118.961 334.2 118.257 335.866 118.076C337.515 117.818 338.919 118.137 340.077 119.034C341.235 119.931 341.89 121.539 342.044 123.859C342.668 126.893 342.241 129.739 340.76 132.395C339.358 135.036 337.674 137.491 335.708 139.761C333.821 142.014 332.057 144.081 330.416 145.959C328.837 147.744 328.176 149.259 328.432 150.503C328.577 151.204 329.078 151.668 329.936 151.897C330.872 152.11 331.908 152.221 333.045 152.23C334.167 152.161 335.28 152.053 336.385 151.907C337.49 151.761 338.284 151.678 338.767 151.66C345.759 148.598 351.051 146.535 354.644 145.471C358.22 144.329 360.523 143.896 361.553 144.17C362.566 144.367 362.508 145.068 361.378 146.274C360.309 147.386 358.556 148.72 356.12 150.276C353.667 151.754 350.77 153.243 347.43 154.742C344.089 156.24 340.723 157.42 337.332 158.28C333.925 159.063 330.664 159.37 327.547 159.201C324.509 159.015 322.065 157.978 320.216 156.088ZM335.159 125.277C333.603 125.597 332.213 126.33 330.989 127.474C329.765 128.618 328.705 129.971 327.811 131.534C326.978 133.003 326.333 134.595 325.875 136.312C325.402 137.95 325.106 139.47 324.99 140.873C325.161 140.919 325.286 140.934 325.364 140.918L325.714 140.845C326.803 140.621 327.952 139.898 329.16 138.676C330.368 137.454 331.458 136.054 332.431 134.475C333.387 132.819 334.141 131.163 334.692 129.509C335.244 127.855 335.399 126.444 335.159 125.277Z" fill="white" />
<path d="M290.964 160.53C290.74 159.441 290.665 158.483 290.738 157.657C290.795 156.753 290.998 155.576 291.349 154.125C291.733 153.235 292.401 151.557 293.353 149.09C294.382 146.608 295.427 144 296.486 141.268C297.623 138.52 298.676 135.952 299.643 133.563C300.673 131.081 301.372 129.355 301.74 128.387C302.232 127.232 302.665 126.575 303.038 126.417C303.411 126.259 304.142 126.068 305.231 125.844C305.931 125.7 306.678 125.587 307.472 125.504C308.344 125.406 309 125.838 309.442 126.802C308.898 129.671 307.94 132.504 306.57 135.3C305.261 138.002 303.952 140.704 302.643 143.406C301.413 146.093 300.392 148.817 299.582 151.578C298.756 154.262 298.632 157.005 299.208 159.805C299.519 159.741 299.994 159.684 300.633 159.634C301.349 159.567 302.104 159.493 302.898 159.411C303.692 159.328 304.408 159.262 305.046 159.211C305.763 159.145 306.268 159.041 306.563 158.899C307.014 158.725 307.76 158.409 308.801 157.952C309.904 157.4 311.046 156.841 312.226 156.273C313.485 155.69 314.665 155.122 315.768 154.571C316.871 154.019 317.64 153.618 318.075 153.366C318.107 153.522 318.163 153.794 318.243 154.183C318.385 154.478 318.472 154.704 318.504 154.859C318.824 156.415 318.349 157.851 317.08 159.166C315.887 160.466 314.383 161.627 312.566 162.65C310.811 163.579 308.947 164.369 306.972 165.019C305.059 165.575 303.558 165.965 302.469 166.189C301.302 166.429 300.072 166.561 298.779 166.584C297.548 166.513 296.402 166.262 295.34 165.832C294.279 165.402 293.341 164.784 292.526 163.979C291.773 163.08 291.253 161.93 290.964 160.53ZM310.841 85.1558C311.853 84.9475 312.794 84.7942 313.666 84.6958C314.538 84.5974 315.317 84.6397 316.003 84.8227C316.69 85.0057 317.291 85.3684 317.809 85.9106C318.326 86.4529 318.696 87.2686 318.921 88.3577C319.017 88.8245 319.121 89.3302 319.233 89.8747C319.345 90.4193 319.38 90.9799 319.336 91.5565C319.354 92.0393 319.248 92.5072 319.017 92.9603C318.77 93.3355 318.296 93.5952 317.596 93.7394C316.507 93.9637 315.532 93.7589 314.672 93.1251C313.889 92.4753 313.238 91.6768 312.719 90.7295C312.183 89.7045 311.765 88.6554 311.463 87.5823C311.161 86.5092 310.953 85.7003 310.841 85.1558Z" fill="white" />
<path d="M271.771 163.022C271.291 160.688 271.317 158.453 271.85 156.316C272.445 154.085 273.142 151.954 273.94 149.925C274.739 147.895 275.42 145.89 275.986 143.908C276.629 141.911 276.742 139.901 276.325 137.878C276.229 137.411 276.078 136.875 275.872 136.268C275.728 135.568 275.514 134.923 275.23 134.333C275.024 133.726 274.687 133.269 274.218 132.96C273.81 132.557 273.335 132.412 272.79 132.524C272.712 132.54 272.565 132.611 272.347 132.737C272.192 132.769 272.122 132.824 272.138 132.901C271.353 134.604 270.375 136.549 269.204 138.736C268.094 140.83 266.867 142.948 265.524 145.089C264.181 147.231 262.861 149.287 261.564 151.257C260.267 153.227 259.069 154.893 257.971 156.254C257.213 157.302 256.17 158.733 254.841 160.548C253.589 162.346 252.299 164.153 250.969 165.967C249.702 167.688 248.558 169.221 247.537 170.567C246.595 171.896 246.045 172.577 245.89 172.609L239.585 169.163C240.285 169.019 240.953 168.719 241.589 168.264C242.148 167.824 242.698 167.346 243.24 166.829C247.267 162.756 250.731 158.313 253.632 153.498C256.611 148.668 259.448 143.543 262.144 138.122C262.251 137.857 262.504 137.115 262.902 135.898C263.362 134.587 263.837 133.151 264.326 131.591C264.8 129.952 265.281 128.353 265.771 126.792C266.245 125.154 266.588 123.867 266.801 122.931C267.059 121.824 267.163 120.951 267.113 120.312C267.14 119.658 267.161 119.167 267.175 118.84C267.25 118.419 267.427 118.099 267.707 117.879C267.986 117.659 268.631 117.445 269.642 117.237C269.798 117.205 270.156 117.172 270.717 117.138C271.355 117.087 271.76 117.085 271.932 117.131C273.375 119.023 274.654 120.706 275.769 122.179C276.883 123.653 277.865 125.073 278.714 126.439C279.547 127.727 280.232 129.086 280.77 130.516C281.385 131.93 281.877 133.532 282.246 135.321C281.763 138.096 281.18 140.974 280.495 143.953C279.795 146.854 279.266 149.599 278.907 152.187C278.547 154.774 278.451 157.065 278.618 159.058C278.863 161.035 279.612 162.502 280.863 163.461C282.177 164.326 284.086 164.541 286.591 164.106C289.175 163.655 292.656 162.249 297.035 159.888C298.408 160.254 298.685 161.008 297.866 162.15C297.031 163.214 295.643 164.351 293.703 165.561C291.84 166.756 289.721 167.881 287.343 168.939C285.028 169.902 283.029 170.435 281.347 170.538C279.869 170.843 278.576 170.865 277.469 170.607C276.423 170.255 275.501 169.715 274.703 168.987C273.982 168.243 273.354 167.359 272.818 166.334C272.361 165.293 272.012 164.189 271.771 163.022Z" fill="white" />
<path d="M226.378 172.369C225.898 170.035 225.924 167.8 226.457 165.663C227.052 163.432 227.749 161.301 228.547 159.272C229.346 157.242 230.027 155.237 230.593 153.255C231.235 151.258 231.349 149.248 230.932 147.225C230.836 146.758 230.685 146.222 230.479 145.615C230.335 144.915 230.121 144.27 229.837 143.68C229.631 143.073 229.294 142.616 228.825 142.307C228.417 141.904 227.941 141.759 227.397 141.871C227.319 141.887 227.172 141.958 226.954 142.084C226.799 142.116 226.729 142.171 226.745 142.248C225.96 143.951 224.982 145.896 223.81 148.083C222.701 150.177 221.474 152.294 220.131 154.436C218.788 156.578 217.468 158.634 216.171 160.604C214.874 162.574 213.676 164.24 212.578 165.601C211.82 166.649 210.777 168.08 209.448 169.895C208.196 171.693 206.906 173.5 205.576 175.314C204.309 177.035 203.165 178.568 202.144 179.914C201.201 181.243 200.652 181.924 200.497 181.956L194.192 178.51C194.892 178.366 195.56 178.066 196.196 177.611C196.754 177.171 197.305 176.693 197.847 176.176C201.874 172.103 205.338 167.659 208.239 162.845C211.218 158.015 214.055 152.89 216.751 147.469C216.858 147.204 217.111 146.462 217.509 145.245C217.969 143.934 218.444 142.498 218.933 140.938C219.407 139.299 219.888 137.7 220.378 136.139C220.852 134.501 221.195 133.214 221.408 132.278C221.666 131.171 221.77 130.298 221.72 129.659C221.747 129.005 221.768 128.514 221.782 128.187C221.857 127.766 222.034 127.446 222.313 127.226C222.593 127.006 223.238 126.792 224.249 126.584C224.405 126.552 224.763 126.519 225.323 126.485C225.962 126.434 226.367 126.432 226.538 126.478C227.982 128.37 229.261 130.053 230.376 131.526C231.49 133 232.472 134.42 233.321 135.785C234.154 137.074 234.839 138.433 235.377 139.863C235.992 141.277 236.484 142.879 236.853 144.668C236.37 147.443 235.786 150.321 235.102 153.3C234.402 156.201 233.873 158.946 233.514 161.533C233.154 164.121 233.058 166.412 233.225 168.405C233.47 170.382 234.219 171.849 235.47 172.808C236.784 173.673 238.693 173.888 241.198 173.453C243.782 173.002 247.263 171.596 251.642 169.235C253.015 169.601 253.292 170.355 252.473 171.497C251.638 172.561 250.25 173.698 248.31 174.908C246.447 176.103 244.328 177.228 241.95 178.286C239.635 179.249 237.636 179.782 235.954 179.885C234.476 180.189 233.183 180.212 232.076 179.954C231.03 179.602 230.108 179.062 229.31 178.334C228.589 177.59 227.961 176.706 227.425 175.681C226.968 174.64 226.619 173.536 226.378 172.369Z" fill="white" />
<path d="M151.283 189.292C151.07 184.713 151.552 180.356 152.728 176.222C153.904 172.087 155.456 168.402 157.385 165.167C159.375 161.838 161.665 158.974 164.252 156.576C166.84 154.178 169.486 152.457 172.191 151.414C174.879 150.292 177.47 149.881 179.965 150.178C182.536 150.459 184.802 151.615 186.76 153.644C187.129 155.434 187.053 157.233 186.534 159.043C186.092 160.837 185.534 162.655 184.859 164.497C184.262 166.323 183.712 168.179 183.208 170.067C182.783 171.939 182.77 173.847 183.171 175.792C183.587 177.815 184.352 179.36 185.464 180.429C186.637 181.403 188.352 181.659 190.608 181.194C192.476 180.81 194.209 180.169 195.808 179.272C197.485 178.359 199.218 177.718 201.008 177.35C201.319 177.286 201.833 177.22 202.549 177.154C203.327 176.994 203.832 176.89 204.066 176.842C203.405 178.356 202.431 179.733 201.145 180.971C199.859 182.209 198.472 183.346 196.982 184.382C195.476 185.341 193.861 186.16 192.136 186.84C190.488 187.503 188.926 187.987 187.448 188.292C186.047 188.58 184.739 188.525 183.521 188.127C182.304 187.729 181.202 187.104 180.216 186.253C179.23 185.402 178.375 184.402 177.652 183.254C176.991 182.011 176.532 180.768 176.276 179.523C175.381 181.086 174.386 182.75 173.29 184.517C172.256 186.189 171.081 187.769 169.765 189.257C168.527 190.728 167.094 192.037 165.465 193.183C163.914 194.314 162.204 195.071 160.337 195.455C158.315 195.872 156.412 195.493 154.63 194.32C152.831 193.068 151.716 191.392 151.283 189.292ZM158.24 184.088C158.368 184.711 158.512 185.411 158.672 186.189C158.91 186.951 159.52 187.352 160.502 187.393C162.351 186.526 164.359 185.058 166.529 182.99C168.682 180.843 170.631 178.496 172.377 175.947C174.106 173.32 175.462 170.649 176.444 167.933C177.409 165.139 177.66 162.614 177.195 160.358C177.163 160.202 177.076 159.977 176.934 159.682C176.854 159.293 176.798 159.02 176.766 158.865C174.121 159.409 171.549 160.507 169.051 162.156C166.552 163.806 164.414 165.828 162.636 168.221C160.842 170.537 159.501 173.084 158.614 175.861C157.804 178.623 157.679 181.365 158.24 184.088Z" fill="white" />
<path d="M126.767 196.651C125.838 192.139 125.485 187.467 125.706 182.637C125.99 177.713 126.562 172.811 127.422 167.93C128.36 163.034 129.447 158.269 130.682 153.635C131.902 148.924 133.061 144.509 134.159 140.391L133.846 138.874C133.183 139.983 132.126 141.742 130.675 144.149C129.286 146.462 127.681 149.104 125.86 152.074C124.117 155.028 122.25 158.17 120.259 161.499C118.33 164.734 116.455 167.837 114.634 170.807C112.891 173.761 111.332 176.433 109.96 178.825C108.571 181.138 107.545 182.849 106.881 183.959C106.218 185.069 105.689 186.637 105.296 188.665C104.886 190.614 104.407 192.619 103.858 194.678C103.309 196.737 102.595 198.587 101.716 200.228C100.915 201.852 99.8149 202.809 98.4146 203.097C97.2477 203.337 96.2901 203.413 95.5419 203.324C94.8715 203.218 94.3326 202.964 93.9253 202.562C93.502 202.081 93.1714 201.46 92.9334 200.698C92.6954 199.936 92.4643 199.011 92.24 197.922C91.0546 192.165 90.7261 186.434 91.2545 180.73C91.8447 174.932 92.4966 169.04 93.2104 163.054L92.898 161.537C92.7744 161.725 92.5582 162.053 92.2493 162.522C91.9244 162.914 91.7391 163.195 91.6934 163.367C90.403 166.552 89.1217 169.978 87.8496 173.646C86.5615 177.236 85.1956 180.842 83.7519 184.464C82.2922 188.009 80.6529 191.468 78.8339 194.843C77.015 198.218 74.9375 201.322 72.6014 204.155C70.2493 206.91 67.5368 209.293 64.464 211.304C61.4689 213.3 57.9876 214.706 54.02 215.523C53.1643 215.699 51.9894 215.9 50.4952 216.127C49.0789 216.337 47.6305 216.392 46.1501 216.292C44.7475 216.175 43.4525 215.793 42.2649 215.145C41.1552 214.482 40.4401 213.372 40.1197 211.816C39.9916 211.194 40.1815 210.344 40.6894 209.266C41.2591 208.095 41.7762 207.258 42.2407 206.757C43.6982 208.322 44.8412 209.344 45.6695 209.822C46.5595 210.206 47.7047 210.254 49.1051 209.966C51.4389 209.486 53.8174 208.631 56.2404 207.402C58.7253 206.079 61.0454 204.548 63.2007 202.806C65.4338 201.049 67.4713 199.129 69.3132 197.047C71.1551 194.965 72.6308 192.877 73.7405 190.783C74.5871 188.987 75.5789 186.715 76.716 183.967C77.9149 181.125 79.1515 178.073 80.4259 174.81C81.7621 171.453 83.1291 168.049 84.5271 164.599C85.925 161.148 87.2772 157.87 88.5836 154.762C89.9518 151.561 91.2285 148.703 92.4137 146.189C93.5988 143.674 94.6627 141.752 95.6054 140.423C96.6945 140.198 97.5514 140.225 98.1761 140.501C98.7847 140.701 99.2698 141.087 99.6313 141.661C99.9929 142.236 100.262 142.951 100.438 143.807C100.614 144.662 100.798 145.557 100.991 146.49C101.663 149.758 101.814 153.052 101.444 156.372C101.151 159.676 100.726 162.926 100.167 166.122C99.5932 169.241 99.0887 172.305 98.6541 175.314C98.2972 178.307 98.3991 181.164 98.9598 183.887C98.9918 184.043 99.0479 184.315 99.128 184.704C99.2859 185.077 99.3808 185.341 99.4129 185.497C105.06 175.9 109.919 167.601 113.992 160.6C118.065 153.598 121.505 147.659 124.312 142.783C127.181 137.813 129.518 133.805 131.324 130.757C133.113 127.631 134.563 125.224 135.675 123.535C136.771 121.769 137.613 120.541 138.201 119.853C138.867 119.148 139.433 118.747 139.9 118.651C140.678 118.491 141.31 118.604 141.795 118.991C142.28 119.378 142.625 119.874 142.831 120.481C143.115 121.071 143.29 121.724 143.356 122.44C143.501 123.14 143.621 123.724 143.717 124.191C144.39 127.458 144.456 130.931 143.916 134.611C143.438 138.196 142.634 141.97 141.504 145.933C140.435 149.803 139.188 153.79 137.763 157.895C136.399 161.906 135.176 166.009 134.094 170.206C133.09 174.386 132.374 178.588 131.946 182.812C131.58 186.942 131.822 191.069 132.671 195.192C133.103 197.292 133.462 198.84 133.748 199.836C134.019 200.753 134.412 201.483 134.929 202.025C135.462 202.645 136.229 203.217 137.229 203.741C138.245 204.343 139.699 205.301 141.591 206.614C140.01 207.994 138.34 208.743 136.58 208.862C134.915 209.043 133.339 208.678 131.854 207.767C130.447 206.841 129.263 205.422 128.302 203.512C127.341 201.601 126.829 199.314 126.767 196.651Z" fill="white" />
<path d="M191.801 86.7341C191.455 84.4568 191.541 82.1139 192.06 79.7055C192.578 77.2972 193.259 74.9042 194.103 72.5267C194.936 70.0706 195.774 67.6538 196.618 65.2763C197.541 62.8868 198.156 60.5843 198.462 58.3687C197.101 59.4589 195.883 60.166 194.807 60.4899C193.799 60.7233 192.548 60.9532 191.056 61.1796C190.899 61.2035 190.389 61.2809 189.525 61.412C188.728 61.4526 188.211 61.4908 187.976 61.5266C188.185 59.7275 188.816 58.0651 189.87 56.5395C190.912 54.9353 192.147 53.5429 193.574 52.3622C195.068 51.0911 196.632 50.0104 198.264 49.12C199.963 48.1392 201.489 47.3452 202.843 46.7381C204.639 42.6897 206.003 38.707 206.935 34.7898C207.855 30.794 208.793 26.916 209.749 23.1559C210.771 19.3052 212.059 15.6152 213.612 12.0857C215.232 8.4658 217.6 5.01349 220.717 1.72878L221.985 6.11551L212.498 42.8629C213.326 42.4962 214.35 42.0998 215.571 41.6735C216.792 41.2473 218.013 40.8211 219.233 40.3948C220.532 39.9567 221.759 39.5697 222.913 39.2339C224.134 38.8076 225.158 38.4112 225.986 38.0445C226.065 38.0326 226.3 37.9969 226.693 37.9373C227.074 37.7992 227.382 37.7122 227.618 37.6765C228.717 37.5097 229.65 37.569 230.416 37.8543C231.182 38.1397 231.903 38.9142 232.576 40.1777C227.475 42.5585 222.895 44.9405 218.839 47.3235C214.782 49.7065 211.358 52.5558 208.567 55.8713C205.843 59.0965 203.788 63.0235 202.402 67.6523C201.082 72.1908 200.536 77.857 200.763 84.651C200.978 86.0646 201.253 87.3483 201.589 88.5024C201.925 89.6565 203.013 90.2143 204.855 90.1758C206.662 89.9018 208.296 89.2922 209.76 88.3471C211.223 87.402 212.641 86.4237 214.014 85.412C215.375 84.3218 216.748 83.3101 218.132 82.3769C219.596 81.4318 221.231 80.8223 223.037 80.5482C223.323 82.4329 222.76 84.2856 221.349 86.1064C219.939 87.9272 218.145 89.6053 215.968 91.1407C213.869 92.6642 211.65 93.9248 209.311 94.9224C206.972 95.92 205.017 96.538 203.447 96.7763C201.876 97.0146 200.415 96.915 199.063 96.4774C197.712 96.0399 196.526 95.3762 195.508 94.4864C194.555 93.5062 193.737 92.3451 193.051 91.0031C192.444 89.6491 192.027 88.2261 191.801 86.7341Z" fill="white" />
<path d="M135.835 93.5395C135.608 92.0475 135.608 90.722 135.834 89.563C136.138 88.3921 137.193 87.6696 139 87.3956C139.157 87.3717 139.516 87.3574 140.078 87.3525C140.706 87.2572 141.144 87.2309 141.391 87.2737C141.873 90.9764 142.885 93.6748 144.427 95.3688C145.958 96.9843 148.45 97.5299 151.906 97.0056C154.733 96.5766 157.455 95.7217 160.072 94.4408C162.69 93.1599 164.973 91.5281 166.921 89.5454C168.936 87.4722 170.427 85.1171 171.392 82.4802C172.437 79.8313 172.726 76.9756 172.261 73.913C171.975 72.0283 171.105 70.7946 169.651 70.2119C168.276 69.6173 166.767 69.2035 165.125 68.9707C163.483 68.7379 161.952 68.4479 160.534 68.1007C159.182 67.6632 158.393 66.6984 158.167 65.2063C157.893 63.4002 158.73 61.5058 160.679 59.523C162.627 57.5403 164.998 55.6943 167.791 53.985C170.573 52.1972 173.363 50.7295 176.161 49.5818C179.026 48.3437 181.244 47.6055 182.814 47.3672C183.16 49.6445 182.894 51.3318 182.016 52.4291C181.217 53.5144 180.152 54.4391 178.822 55.2033C177.492 55.9675 176.122 56.7377 174.714 57.5138C173.372 58.1994 172.337 59.3205 171.609 60.877C173.02 61.7072 174.184 62.4946 175.1 63.2393C176.083 63.8935 176.882 64.656 177.496 65.5269C178.11 66.3977 178.585 67.4102 178.921 68.5643C179.245 69.6398 179.526 70.9629 179.764 72.5334C180.384 76.6169 180.047 80.484 178.753 84.1348C177.526 87.6951 175.684 90.907 173.226 93.7703C170.757 96.5552 167.817 98.8891 164.407 100.772C160.986 102.577 157.39 103.765 153.621 104.337C151.579 104.647 149.541 104.715 147.506 104.542C145.538 104.278 143.725 103.71 142.066 102.837C140.485 101.952 139.138 100.751 138.024 99.2325C136.91 97.7145 136.18 95.8168 135.835 93.5395Z" fill="white" />
<path d="M80.3849 109.304C80.2061 108.127 80.3093 106.424 80.6943 104.196C81.0674 101.89 81.613 99.3974 82.3311 96.7177C83.1277 94.0261 84.0361 91.2773 85.0564 88.4714C86.1552 85.6535 87.2897 83.0713 88.46 80.7246C89.6303 78.3779 90.7817 76.4358 91.9141 74.8983C93.0465 73.3607 94.1231 72.5145 95.144 72.3596C97.3428 72.0259 98.603 72.9192 98.9248 75.0395C99.0678 75.9818 98.9906 76.7969 98.6933 77.4847C98.4745 78.1606 98.1712 78.8091 97.7835 79.4303C97.3957 80.0515 96.9687 80.6787 96.5024 81.3118C96.0242 81.8664 95.6424 82.5268 95.357 83.2932C94.829 84.5783 94.2095 86.3192 93.4985 88.5159C92.7874 90.7125 92.0704 92.8699 91.3474 94.988C90.6911 97.0157 90.1227 98.8292 89.6424 100.428C89.162 102.028 88.9338 102.906 88.9576 103.063L89.19 104.594C92.1692 103.58 94.9174 101.837 97.4346 99.3665C99.9398 96.8173 102.234 93.9385 104.318 90.7302C106.481 87.5099 108.468 84.1957 110.281 80.7876C112.16 77.2889 113.924 74.089 115.572 71.1878C117.209 68.208 118.799 65.7173 120.343 63.7156C121.887 61.7139 123.445 60.5939 125.015 60.3555C125.456 63.2611 125.266 65.9811 124.446 68.5157C123.625 71.0503 122.681 73.5635 121.613 76.0553C120.624 78.5352 119.725 81.0817 118.916 83.6948C118.096 86.2294 117.912 88.9887 118.365 91.9728C118.556 93.2293 119.474 94.2547 121.121 95.0492C122.835 95.7532 124.727 96.3096 126.797 96.7185C128.934 97.0369 130.975 97.2494 132.919 97.3561C134.864 97.4627 136.195 97.5017 136.914 97.473L137.378 100.536C135.584 100.888 133.352 101.267 130.682 101.672C128 101.999 125.283 102.09 122.529 101.945C119.776 101.801 117.205 101.267 114.815 100.344C112.492 99.331 110.787 97.6216 109.699 95.2159C107.86 96.8607 106.135 98.7292 104.524 100.821C102.913 102.913 101.206 104.9 99.4031 106.78C97.6782 108.649 95.7997 110.299 93.7678 111.732C91.7358 113.165 89.4241 114.079 86.8327 114.472C85.2621 114.71 83.8259 114.245 82.5239 113.077C81.3005 111.897 80.5875 110.639 80.3849 109.304Z" fill="white" />
<path d="M5.99316 165.421C5.41963 165.347 4.86749 165.15 4.33674 164.828C3.81791 164.586 3.44421 164.241 3.21566 163.794C2.90858 163.358 2.79782 162.893 2.88338 162.398C2.89041 161.915 3.22347 161.463 3.88256 161.041C7.15905 159.339 10.2666 157.582 13.2051 155.77C16.1437 153.959 18.8049 151.908 21.1889 149.618C23.6633 147.395 25.8033 144.821 27.6089 141.896C29.4929 138.959 30.9855 135.559 32.0864 131.697L61.0745 33.6658L59.5432 33.8982C59.3861 33.922 58.5759 34.4064 57.1126 35.3515C55.6493 36.2966 53.929 37.4012 51.9518 38.6652C50.053 39.9174 48.0817 41.2207 46.0378 42.5753C43.994 43.9298 42.3582 45.0617 41.1304 45.971C39.3887 47.1994 37.3925 48.868 35.1418 50.9769C32.9576 52.9954 30.6974 55.3066 28.3611 57.9106C26.1033 60.5026 23.9146 63.285 21.795 66.2577C19.6634 69.1519 17.7793 72.0889 16.1427 75.0687C14.5727 77.958 13.3561 80.7937 12.4929 83.5758C11.7082 86.346 11.4827 88.8305 11.8164 91.0293C11.9474 91.8931 12.2177 92.6153 12.6272 93.1958C13.1151 93.7645 13.6424 94.3272 14.2089 94.8839C14.7634 95.3621 15.2514 95.9307 15.6728 96.5898C16.1607 97.1585 16.4643 97.8354 16.5835 98.6207C14.9344 98.8709 13.4792 98.8106 12.2178 98.4396C10.9446 97.9901 9.84381 97.3538 8.91553 96.5306C8.05387 95.617 7.33139 94.5618 6.74809 93.3649C6.24332 92.1561 5.88964 90.8842 5.68707 89.5493C5.37725 87.5075 5.43868 85.53 5.87136 83.6166C6.29213 81.6247 6.92709 79.7207 7.77624 77.9048C8.69201 75.9985 9.74344 74.192 10.9305 72.4855C12.1057 70.7004 13.3261 68.9487 14.5918 67.2302C15.6575 65.7831 17.1016 63.9171 18.924 61.6322C20.7344 59.2687 22.5508 56.9445 24.3732 54.6596C26.1955 52.3746 27.824 50.4003 29.2586 48.7365C30.6813 46.9943 31.4985 46.0267 31.7103 45.8339L65.3408 20.4859C66.9135 19.2029 68.1851 17.5238 69.1555 15.4484C70.2045 13.3612 71.2202 11.3191 72.2026 9.32234C73.2516 7.23509 74.4993 5.39885 75.9458 3.81363C77.3804 2.14989 79.3542 1.12736 81.8671 0.746041C82.5738 0.638796 83.2259 0.700523 83.8233 0.931223C84.4087 1.08339 85.0906 1.34144 85.8688 1.70536C85.995 2.00756 86.1355 2.66909 86.2905 3.68996C86.512 4.62038 86.6466 5.24265 86.6942 5.55676C86.8491 6.57762 86.9743 7.40217 87.0696 8.03039C87.153 8.58009 87.1127 9.1084 86.9486 9.61532C86.8511 10.0318 86.5966 10.4721 86.185 10.9362C85.8519 11.3885 85.2679 12.0394 84.4328 12.8892C83.8094 13.5461 82.696 14.6791 81.0924 16.2882C79.5673 17.8853 77.921 19.7419 76.1533 21.8578C74.3738 23.8953 72.6906 26.0386 71.1038 28.2878C69.5837 30.4465 68.5953 32.4041 68.1388 34.1604L49.497 91.5777C49.4781 91.9823 49.3616 92.8033 49.1477 94.0408C49.0004 95.1879 48.8781 95.9696 48.7806 96.3861C48.343 97.7379 47.7747 99.5513 47.0755 101.827C46.443 104.011 45.7225 106.41 44.914 109.023C44.1721 111.546 43.3695 114.198 42.5063 116.98C41.7097 119.672 40.9285 122.201 40.1628 124.566C39.4756 126.92 38.8585 128.942 38.3115 130.631C37.7765 132.4 37.3876 133.543 37.145 134.062C36.2033 136.856 34.7202 140.054 32.6959 143.655C30.7501 147.244 28.4152 150.651 25.6911 153.876C22.967 157.101 19.924 159.812 16.5619 162.009C13.1999 164.207 9.67695 165.344 5.99316 165.421Z" fill="white" />
</g>
</svg>
