<svg width="728" height="181" viewBox="0 0 728 181" fill="none" xmlns="http://www.w3.org/2000/svg">
<path d="M603.294 120.544C599.488 120.544 596.882 119.717 595.476 118.062C594.07 116.325 593.366 114.257 593.366 111.858C593.366 110.12 593.656 108.3 594.235 106.397C594.814 104.495 595.435 102.716 596.096 101.061C594.938 102.302 593.366 103.957 591.381 106.025C589.395 108.093 587.203 110.203 584.804 112.354C582.405 114.422 579.923 116.201 577.358 117.69C574.877 119.096 572.56 119.799 570.409 119.799C569.334 119.799 568.3 119.551 567.307 119.055C566.314 118.559 565.446 117.773 564.701 116.697C563.791 115.456 563.336 114.008 563.336 112.354C563.336 110.534 563.832 108.714 564.825 106.894C565.901 105.074 567.1 103.337 568.424 101.682C569.83 99.9446 571.03 98.3314 572.022 96.8423C573.842 94.195 575.456 91.5064 576.862 88.7763C578.351 86.0463 579.096 83.7712 579.096 81.9512C579.096 80.7103 578.723 79.8003 577.979 79.2212C577.152 78.5594 576.738 77.8562 576.738 77.1116C576.738 76.7807 576.903 76.6152 577.234 76.6152C577.648 76.6152 578.144 76.8221 578.723 77.2357C579.303 77.5666 579.923 78.0216 580.585 78.6007C581.247 79.1798 581.867 79.8416 582.446 80.5862C582.943 81.1653 583.439 81.8271 583.935 82.5717C584.432 83.3162 584.68 84.1849 584.68 85.1776C584.68 86.4186 584.225 87.7836 583.315 89.2727C582.405 90.8445 581.247 92.5818 579.84 94.4846C578.517 96.3873 577.11 98.2901 575.621 100.193C574.959 101.103 573.925 102.551 572.519 104.536C571.112 106.522 569.83 108.59 568.672 110.741C567.514 112.809 566.935 114.546 566.935 115.953C566.935 117.442 567.721 118.186 569.292 118.186C570.616 118.186 572.147 117.69 573.884 116.697C575.704 115.704 577.4 114.588 578.972 113.347C580.626 112.106 581.826 111.154 582.57 110.493C585.218 108.259 587.989 105.901 590.885 103.419C593.78 100.855 596.551 98.4142 599.199 96.0978C599.612 95.8496 600.067 95.7255 600.564 95.7255C601.556 95.7255 602.342 96.0151 602.921 96.5942C603.17 96.8423 603.294 97.1733 603.294 97.5869C603.294 98.5796 602.839 99.9446 601.929 101.682C601.019 103.419 600.067 105.281 599.075 107.266C598.165 109.252 597.586 111.113 597.337 112.85C597.255 113.181 597.213 113.471 597.213 113.719C597.213 113.967 597.213 114.215 597.213 114.463C597.213 116.035 597.627 117.111 598.454 117.69C599.364 118.269 600.481 118.559 601.805 118.559C603.459 118.559 605.155 118.31 606.892 117.814C608.713 117.235 609.922 116.975 610.998 116.561C615.382 114.907 619.701 113.636 624.086 110.741C624.461 110.493 633.247 106.964 637.407 104.782C638.317 104.038 641.228 102.744 641.972 102.165C642.8 101.503 643.326 102.12 644.154 101.292C644.733 100.713 647.738 98.9678 647.644 99.6053C647.644 99.6053 649.389 98.5092 649.389 98.6746C649.389 98.6746 649.403 97.8247 649.389 99.1109C649.374 100.397 646.771 100.052 647.738 100.052C646.993 101.293 640.987 102.88 638.919 104.782C635.999 106.527 633.442 106.64 630.63 108.709C627.9 110.777 622.341 112.85 622.341 112.85C619.197 114.67 615.014 116.904 611.87 118.062C608.809 119.22 605.941 120.544 603.294 120.544Z" fill="#AE983C"/>
<path d="M512.187 121.413C509.209 121.413 507.058 120.627 505.734 119.055C504.494 117.484 503.873 115.705 503.873 113.72C503.873 113.058 503.914 112.437 503.997 111.858C504.08 111.196 504.245 110.576 504.494 109.997C505.073 108.177 506.148 105.984 507.72 103.42C509.375 100.855 511.195 98.4561 513.18 96.2224C515.248 93.9061 517.151 92.3756 518.888 91.631C517.813 90.5556 517.275 89.356 517.275 88.0323C517.275 86.7914 517.813 85.6332 518.888 84.5577C519.964 83.3995 521.618 82.4895 523.852 81.8277C525.01 81.4141 526.251 81.1659 527.575 81.0831C528.981 80.9177 530.429 80.835 531.918 80.835C533.821 80.835 535.682 80.9591 537.502 81.2072C540.067 81.6209 542.3 82.7377 544.203 84.5577C546.106 86.3778 547.223 88.5701 547.554 91.1346C547.719 92.2101 547.719 93.327 547.554 94.4852C548.96 94.5679 550.366 94.6092 551.773 94.6092C553.179 94.5265 554.503 94.4852 555.744 94.4852C558.226 94.4852 560.79 94.3197 563.438 93.9888C566.168 93.5751 568.649 93.0788 570.883 92.4997C573.199 91.9206 574.937 91.3415 576.095 90.7624C576.674 90.4315 577.129 90.266 577.46 90.266C577.791 90.266 577.956 90.3901 577.956 90.6383C577.956 91.2174 577.295 91.7965 575.971 92.3756C574.151 93.2029 571.338 94.0715 567.533 94.9815C563.81 95.8088 559.88 96.3052 555.744 96.4706C554.668 96.5534 553.386 96.6361 551.897 96.7188C550.408 96.7188 548.795 96.7188 547.057 96.7188C546.23 100.111 544.493 103.296 541.845 106.274C539.281 109.252 536.22 111.899 532.663 114.216C529.188 116.45 525.631 118.187 521.991 119.428C518.351 120.751 515.083 121.413 512.187 121.413ZM544.079 94.237C544.575 92.8306 544.824 91.5069 544.824 90.266C544.824 88.5287 544.12 87.081 542.714 85.9228C541.39 84.6818 538.991 84.0614 535.517 84.0614C532.208 84.0614 529.271 84.5577 526.706 85.5505C524.142 86.5432 522.859 87.6187 522.859 88.7769C522.859 89.7696 523.811 90.5555 525.713 91.1346C528.526 92.0447 531.504 92.7479 534.648 93.2442C537.874 93.7406 541.018 94.0715 544.079 94.237ZM512.063 119.18C512.477 119.18 512.89 119.18 513.304 119.18C513.718 119.097 514.173 119.014 514.669 118.931C516.324 118.6 518.351 117.856 520.75 116.698C523.231 115.457 525.796 113.885 528.443 111.982C531.173 110.079 533.697 108.053 536.013 105.902C537.254 104.743 538.495 103.337 539.736 101.683C541.059 100.028 542.135 98.332 542.962 96.5947C539.653 96.5947 536.551 96.4706 533.655 96.2224C530.76 95.9743 528.154 95.5606 525.837 94.9815C525.755 95.0642 525.589 95.0229 525.341 94.8574C525.176 94.8574 525.052 94.8161 524.969 94.7333C523.893 94.7333 522.404 95.4779 520.501 96.967C518.599 98.4561 516.655 100.359 514.669 102.675C512.766 104.909 511.112 107.225 509.705 109.624C508.382 111.941 507.72 113.968 507.72 115.705C507.72 118.021 509.168 119.18 512.063 119.18Z" fill="#AE983C"/>
<path d="M408.628 180.604C406.146 180.604 403.83 180.191 401.679 179.363C399.445 178.619 397.625 177.461 396.219 175.889C394.813 174.4 394.109 172.621 394.109 170.553C394.109 166.665 395.143 163.066 397.212 159.757C399.28 156.53 401.969 153.552 405.278 150.822C408.587 148.092 412.227 145.652 416.198 143.501C420.086 141.35 423.933 139.406 427.738 137.668C431.544 135.931 434.895 134.4 437.79 133.077C439.693 132.167 442.092 131.174 444.987 130.099C447.966 129.023 451.151 127.906 454.542 126.748C457.934 125.59 461.285 124.473 464.594 123.398C467.903 122.405 470.881 121.536 473.529 120.792C474.852 118.393 476.011 115.538 477.003 112.229C477.996 108.837 478.492 105.859 478.492 103.295C478.492 102.136 478.368 101.144 478.12 100.316C477.872 99.4064 477.458 98.7859 476.879 98.455L476.135 99.1996C474.894 100.358 473.198 102.054 471.047 104.287C468.896 106.521 466.497 108.837 463.849 111.237C461.285 113.553 458.638 115.538 455.908 117.193C453.26 118.765 450.82 119.551 448.586 119.551C446.435 119.551 444.656 118.599 443.25 116.697C442.423 115.538 442.009 114.173 442.009 112.602C442.009 109.954 442.961 107.1 444.863 104.039C446.849 100.978 449.248 98.0414 452.061 95.2286C452.226 94.9804 452.681 94.4427 453.426 93.6154C454.17 92.7881 454.915 91.9608 455.659 91.1335C456.487 90.3062 457.066 89.7685 457.397 89.5203C457.066 89.2721 457.231 88.6517 457.893 87.6589C458.555 86.6662 459.423 85.7562 460.499 84.9289C461.657 84.1016 462.65 83.9362 463.477 84.4325C464.222 84.8462 464.842 85.3012 465.339 85.7975C465.918 86.2112 466.207 86.6662 466.207 87.1626C466.207 87.6589 465.835 88.2794 465.09 89.024L462.484 91.5058C460.913 93.0776 459.134 94.8563 457.148 96.8418C455.246 98.8273 453.426 100.854 451.688 102.922C449.951 104.908 448.503 106.811 447.345 108.631C446.187 110.368 445.525 111.816 445.36 112.974C445.277 113.305 445.236 113.594 445.236 113.842C445.236 114.091 445.236 114.339 445.236 114.587C445.236 116.986 446.146 118.186 447.966 118.186C449.289 118.186 450.82 117.689 452.557 116.697C454.377 115.621 456.073 114.463 457.645 113.222C459.299 111.981 460.458 111.071 461.119 110.492C463.601 108.341 466 106.107 468.317 103.791C470.716 101.475 473.074 99.2823 475.39 97.2141C475.307 96.7177 475.473 96.2213 475.886 95.725C476.383 95.1459 477.293 94.7736 478.616 94.6081C480.437 94.4427 481.843 95.0631 482.836 96.4695C483.828 97.7932 484.325 99.7786 484.325 102.426C484.325 104.494 483.994 106.852 483.332 109.499C482.67 112.147 481.595 115.042 480.106 118.186C486.227 115.538 491.936 112.726 497.23 109.747C502.525 106.769 507.53 103.129 512.246 98.8273C512.907 98.2482 513.735 97.4623 514.727 96.4695C515.72 95.394 516.63 94.484 517.457 93.7395C518.367 92.9122 518.947 92.5399 519.195 92.6226C519.608 92.7054 519.526 93.2431 518.947 94.2358C518.367 95.1459 516.878 96.8418 514.479 99.3236C509.929 103.956 504.8 107.969 499.092 111.361C493.384 114.67 486.558 117.938 478.616 121.164C474.48 129.271 469.64 136.882 464.098 143.997C458.638 151.194 452.764 157.523 446.476 162.983C440.189 168.526 433.819 172.828 427.366 175.889C420.913 179.032 414.667 180.604 408.628 180.604ZM406.395 177.874C409.952 177.874 414.13 177.006 418.928 175.268C423.643 173.531 428.442 171.132 433.323 168.071C438.286 165.01 442.795 161.453 446.849 157.399C448.752 155.496 450.985 153.014 453.55 149.953C456.114 146.975 458.679 143.79 461.243 140.398C463.808 137.006 466.083 133.821 468.069 130.843C470.137 127.865 471.585 125.507 472.412 123.77C466.373 125.176 459.961 127.12 453.177 129.602C446.476 132.084 439.858 134.897 433.323 138.041C426.87 141.267 420.996 144.659 415.701 148.216C410.324 151.856 405.981 155.496 402.672 159.136C399.363 162.859 397.543 166.416 397.212 169.808C397.046 172.621 397.832 174.648 399.569 175.889C401.224 177.212 403.499 177.874 406.395 177.874Z" fill="#AE983C"/>
<path d="M365.825 121.288C362.102 121.288 358.958 120.295 356.394 118.31C353.912 116.242 352.092 113.636 350.934 110.492C349.776 107.266 349.238 103.957 349.321 100.565C346.26 103.047 343.405 105.611 340.758 108.258C338.194 110.906 335.836 113.512 333.685 116.076L334.057 117.317C334.223 117.648 334.305 118.103 334.305 118.682C334.305 119.51 333.974 120.13 333.313 120.544C332.733 120.957 332.072 121.164 331.327 121.164C330.748 121.164 330.21 121.04 329.714 120.792C329.217 120.626 328.887 120.295 328.721 119.799C328.225 118.641 327.977 117.4 327.977 116.076C327.977 112.933 328.845 109.375 330.583 105.404C332.403 101.433 334.347 97.5451 336.415 93.7396C336.167 93.8223 335.877 93.8637 335.546 93.8637C334.884 93.8637 334.553 93.6982 334.553 93.3673C334.553 93.0364 334.802 92.7055 335.298 92.3746C337.118 91.2991 338.235 90.3477 338.649 89.5205C340.138 86.4595 342.082 82.9436 344.481 78.9726C346.963 75.0016 349.776 70.8652 352.919 66.5633C356.146 62.1787 359.579 57.9596 363.219 53.9059C366.942 49.7695 370.747 46.0467 374.635 42.7375C378.524 39.4284 382.412 36.7811 386.3 34.7956C390.188 32.8101 393.911 31.8174 397.468 31.8174C400.281 31.8174 402.225 32.3965 403.301 33.5547C404.376 34.7129 404.914 36.1193 404.914 37.7738C404.914 38.932 404.666 40.1316 404.169 41.3725C403.756 42.6134 403.218 43.7716 402.556 44.8471C400.323 48.4872 397.344 52.1686 393.622 55.8914C389.982 59.5314 385.928 63.0887 381.46 66.5633C377.076 69.9552 372.526 73.1402 367.81 76.1185C363.178 79.0967 358.71 81.7854 354.408 84.1845C350.189 86.5009 346.466 88.445 343.24 90.0168C341.585 93.1605 339.807 96.7178 337.904 100.689C336.001 104.66 334.719 108.217 334.057 111.361C335.712 109.541 337.904 107.431 340.634 105.032C343.364 102.55 346.342 100.027 349.569 97.4624C349.817 95.5596 350.231 93.9464 350.81 92.6228C351.306 91.2164 351.844 90.2237 352.423 89.6446C353.002 89.0655 353.581 88.7759 354.16 88.7759C354.822 88.7759 355.401 89.1068 355.897 89.7686C356.394 90.3477 356.725 91.0096 356.89 91.7541C360.53 89.0241 364.129 86.5422 367.686 84.3086C371.326 81.9922 374.635 80.1308 377.614 78.7244C380.675 77.318 383.115 76.6148 384.935 76.6148C387.251 76.6148 388.41 77.4835 388.41 79.2208C388.41 80.0481 387.996 80.9167 387.169 81.8267C386.341 82.654 385.142 83.1917 383.57 83.4399C379.02 84.1017 374.387 85.5081 369.672 87.6591C365.039 89.7273 360.572 92.2505 356.27 95.2287C355.111 98.0415 354.532 100.978 354.532 104.039C354.532 106.438 354.946 108.755 355.773 110.988C356.601 113.139 357.883 114.918 359.62 116.324C361.44 117.648 363.798 118.31 366.693 118.31C369.506 118.31 372.526 117.731 375.752 116.573C378.979 115.414 382.205 113.967 385.431 112.229C388.741 110.409 391.843 108.465 394.738 106.397C397.717 104.329 400.281 102.426 402.432 100.689C403.342 99.9442 404.169 99.3238 404.914 98.8274C405.741 98.331 406.569 97.6692 407.396 96.8419C407.561 96.7592 407.768 96.7178 408.016 96.7178C408.265 96.7178 408.389 96.8419 408.389 97.0901C408.389 97.3383 408.223 97.6692 407.892 98.0829C407.396 98.662 406.279 99.7374 404.542 101.309C402.804 102.881 400.653 104.66 398.089 106.645C395.607 108.631 392.877 110.575 389.899 112.478C387.003 114.38 384.066 116.035 381.088 117.441C379.434 118.269 377.159 119.096 374.263 119.923C371.45 120.833 368.638 121.288 365.825 121.288ZM344.729 87.0386C349.527 84.3913 354.491 81.5785 359.62 78.6003C364.749 75.5394 369.754 72.2716 374.635 68.797C379.599 65.3224 384.191 61.5169 388.41 57.3805C392.629 53.244 396.186 48.7767 399.082 43.9785C399.495 43.3166 400.074 42.2825 400.819 40.8761C401.564 39.4698 401.936 38.1875 401.936 37.0293C401.936 36.4502 401.729 35.9538 401.315 35.5402C400.984 35.0438 400.323 34.7956 399.33 34.7956C397.758 34.7956 395.648 35.4161 393.001 36.657C390.354 37.8152 387.541 39.387 384.563 41.3725C381.585 43.2753 378.73 45.3021 376 47.4531C373.353 49.604 371.161 51.6722 369.424 53.6577C367.273 56.1395 364.956 58.8696 362.474 61.8478C359.992 64.7433 357.552 67.7215 355.153 70.7825C352.836 73.8434 350.727 76.7803 348.824 79.5931C347.004 82.4058 345.639 84.8877 344.729 87.0386Z" fill="#AE983C"/>
<path d="M259.576 123.025C258.666 123.025 258.211 122.529 258.211 121.536C258.211 120.378 258.79 118.723 259.948 116.572C261.106 114.421 262.43 112.229 263.919 109.995C265.408 107.762 266.649 105.942 267.642 104.535C268.304 103.625 269.214 102.384 270.372 100.813C271.53 99.2408 272.73 97.5448 273.971 95.7248C275.212 93.8221 276.246 91.9607 277.073 90.1406C277.983 88.3206 278.438 86.7074 278.438 85.301C278.438 83.8946 277.983 82.8605 277.073 82.1987C276.246 81.5369 275.832 80.8337 275.832 80.0891C275.832 79.7582 275.998 79.5928 276.328 79.5928C276.742 79.5928 277.238 79.7996 277.818 80.2132C278.397 80.5441 279.017 80.9992 279.679 81.5783C280.341 82.1573 280.961 82.8192 281.54 83.5637C282.037 84.1428 282.533 84.8047 283.029 85.5492C283.526 86.2938 283.774 87.1624 283.774 88.1552C283.774 89.3961 283.319 90.7611 282.409 92.2502C280.92 94.8148 279.183 97.1726 277.197 99.3235C275.212 101.474 273.185 103.749 271.117 106.149C268.883 108.713 266.856 111.112 265.036 113.346C263.299 115.497 262.223 116.862 261.81 117.441C262.802 116.283 264.416 114.628 266.649 112.477C268.966 110.244 271.572 107.803 274.467 105.156C277.363 102.509 280.258 99.9853 283.154 97.5862C286.132 95.1871 288.738 93.243 290.971 91.7538C291.881 91.1747 293.04 90.637 294.446 90.1406C295.852 89.5615 297.217 89.272 298.541 89.272C299.699 89.272 300.651 89.6443 301.395 90.3888C302.222 91.0507 302.636 92.2916 302.636 94.1116C302.636 95.6834 302.305 97.5035 301.643 99.5717C301.064 101.64 300.402 103.543 299.658 105.28C299.079 106.604 298.624 107.927 298.293 109.251C297.962 110.492 297.796 111.65 297.796 112.726C297.796 114.297 298.21 115.538 299.037 116.448C299.947 117.358 301.312 117.813 303.132 117.813C304.952 117.813 307.269 117.317 310.082 116.324C314.466 114.67 318.851 112.395 323.235 109.499C327.62 106.604 331.591 103.667 335.148 100.689C336.058 99.944 336.886 99.3235 337.63 98.8271C338.375 98.3308 339.161 97.6689 339.988 96.8416C340.153 96.7589 340.319 96.7176 340.484 96.7176C340.733 96.7176 340.857 96.8416 340.857 97.0898C340.857 97.338 340.733 97.6689 340.484 98.0826C339.988 98.7444 338.788 99.9853 336.886 101.805C334.983 103.543 332.625 105.528 329.812 107.762C327 109.913 323.939 112.022 320.63 114.091C317.403 116.076 314.135 117.648 310.826 118.806C309.337 119.22 307.765 119.551 306.111 119.799C304.539 120.13 303.008 120.295 301.519 120.295C299.037 120.295 296.886 119.757 295.066 118.682C293.246 117.606 292.336 115.745 292.336 113.098C292.336 111.443 292.75 109.499 293.577 107.265C294.156 105.694 294.777 104.122 295.439 102.55C296.183 100.895 296.68 99.2408 296.928 97.5862C297.011 97.2553 297.052 96.9657 297.052 96.7176C297.052 96.3866 297.052 96.0971 297.052 95.8489C297.052 93.8634 296.349 92.8707 294.942 92.8707C294.032 92.8707 292.916 93.243 291.592 93.9875C290.351 94.6493 289.234 95.3112 288.241 95.973C287.331 96.5521 285.842 97.7517 283.774 99.5717C281.789 101.309 279.638 103.253 277.321 105.404C275.005 107.555 272.812 109.623 270.744 111.609C269.007 113.263 267.352 115.001 265.781 116.821C264.209 118.558 262.885 120.006 261.81 121.164C260.734 122.405 259.99 123.025 259.576 123.025Z" fill="#AE983C"/>
<path d="M232.57 120.543C230.088 120.543 227.895 119.923 225.993 118.682C224.173 117.441 223.263 115.125 223.263 111.733C223.345 109.996 223.635 108.217 224.131 106.397C224.71 104.494 225.331 102.715 225.993 101.061C224.917 102.302 223.304 103.956 221.153 106.025C219.002 108.093 216.562 110.202 213.832 112.353C211.184 114.422 208.454 116.2 205.642 117.689C202.829 119.178 200.181 119.923 197.7 119.923C195.218 119.923 193.191 119.013 191.619 117.193C190.544 116.035 190.006 114.504 190.006 112.601C190.006 110.202 190.833 107.555 192.488 104.66C194.225 101.681 196.541 98.7445 199.437 95.849C202.332 92.8708 205.642 90.1407 209.364 87.6589C213.17 85.177 217.141 83.2329 221.277 81.8265C225.745 80.2547 229.633 79.4688 232.942 79.4688C238.567 79.4688 241.38 81.8679 241.38 86.6661C241.38 87.0798 241.339 87.5348 241.256 88.0311C241.256 88.4448 241.215 88.8998 241.132 89.3962C240.967 90.3889 240.636 91.1748 240.139 91.7539C239.726 92.333 239.395 92.6226 239.147 92.6226C238.733 92.6226 238.65 92.1676 238.898 91.2576C239.064 90.8439 239.147 90.4303 239.147 90.0166C239.147 89.5203 239.147 89.1066 239.147 88.7757C239.147 87.452 238.816 86.4179 238.154 85.6734C237.492 84.8461 236.334 84.4325 234.679 84.4325C233.19 84.4325 231.329 84.7634 229.095 85.4252C226.944 86.0043 224.628 86.7902 222.146 87.783C219.664 88.693 217.265 89.7271 214.948 90.8853C212.715 92.0435 210.853 93.2017 209.364 94.3599C206.8 96.1799 204.401 98.2067 202.167 100.44C199.933 102.674 198.072 104.866 196.583 107.017C195.094 109.086 194.225 110.988 193.977 112.726C193.894 112.974 193.853 113.222 193.853 113.47C193.853 113.718 193.853 113.925 193.853 114.091C193.853 115.58 194.142 116.614 194.721 117.193C195.383 117.772 196.21 118.062 197.203 118.062C198.692 118.062 200.388 117.607 202.291 116.697C204.277 115.787 206.097 114.752 207.751 113.594C209.406 112.436 210.564 111.567 211.226 110.988C213.873 108.755 216.851 106.314 220.16 103.667C223.47 100.937 226.406 98.4136 228.971 96.0972C229.385 95.849 229.84 95.7249 230.336 95.7249C231.494 95.7249 232.446 96.0144 233.19 96.5935C233.438 96.8417 233.562 97.1726 233.562 97.5863C233.562 97.9999 233.438 98.5376 233.19 99.1995C233.025 99.7786 232.776 100.44 232.446 101.185C231.039 104.08 229.881 106.686 228.971 109.003C228.061 111.319 227.606 113.263 227.606 114.835C227.606 117.317 228.971 118.558 231.701 118.558C233.769 118.558 236.83 117.813 240.884 116.324C245.268 114.67 249.653 112.395 254.038 109.499C258.422 106.604 262.393 103.667 265.951 100.689C266.861 99.944 267.688 99.3236 268.432 98.8272C269.177 98.3308 269.963 97.669 270.79 96.8417C270.956 96.759 271.162 96.7176 271.411 96.7176C271.659 96.7176 271.783 96.8417 271.783 97.0899C271.783 97.3381 271.617 97.669 271.287 98.0826C270.79 98.7445 269.591 99.9854 267.688 101.805C265.785 103.543 263.427 105.528 260.615 107.762C257.802 109.913 254.741 112.022 251.432 114.091C248.205 116.076 244.938 117.648 241.628 118.806C240.387 119.22 238.94 119.592 237.285 119.923C235.713 120.337 234.141 120.543 232.57 120.543Z" fill="#AE983C"/>
<path d="M163.172 121.289C159.78 121.289 157.05 120.503 154.982 118.931C152.914 117.277 151.425 115.126 150.515 112.478C149.605 109.748 149.15 106.811 149.15 103.668C149.15 101.599 149.315 99.5313 149.646 97.4631C149.977 95.3121 150.432 93.2025 151.011 91.1343C149.191 93.368 147.04 95.8085 144.558 98.4558C142.077 101.103 139.471 103.709 136.741 106.274C134.093 108.838 131.653 111.113 129.419 113.099C127.185 115.001 125.407 116.325 124.083 117.07C124.414 117.649 124.579 118.187 124.579 118.683C124.579 119.841 123.918 120.42 122.594 120.42C122.015 120.42 121.394 120.213 120.733 119.8C120.071 119.386 119.533 118.724 119.119 117.814C118.789 117.152 118.623 116.325 118.623 115.332C118.623 112.851 119.45 109.831 121.105 106.274C122.759 102.716 124.786 98.9935 127.185 95.1053C129.585 91.2171 131.86 87.577 134.011 84.1852C133.431 83.7715 133.059 83.3579 132.894 82.9442C132.728 82.5306 132.646 82.241 132.646 82.0756C132.563 81.8274 132.604 81.6206 132.77 81.4551C132.935 81.2069 133.183 81.2069 133.514 81.4551C133.762 82.0342 134.217 82.5306 134.879 82.9442C135.376 82.1997 136.534 80.3796 138.354 77.4841C140.257 74.5059 142.656 70.8659 145.551 66.564C148.529 62.1794 151.88 57.5052 155.603 52.5415C159.408 47.5778 163.462 42.6968 167.764 37.8986C172.148 33.0176 176.616 28.5916 181.166 24.6207C185.799 20.567 190.431 17.3406 195.064 14.9415C199.697 12.5423 204.206 11.3428 208.59 11.3428C212.727 11.3428 215.746 12.3769 217.649 14.4451C219.634 16.5133 220.627 19.2433 220.627 22.6352C220.627 27.3507 219.593 31.9421 217.525 36.4095C215.457 40.7941 212.685 45.0132 209.211 49.0669C205.819 53.0379 202.013 56.802 197.794 60.3594C193.575 63.9167 189.273 67.1845 184.889 70.1627C180.669 73.0582 176.119 75.6228 171.238 77.8564C166.357 80.0074 161.642 81.786 157.092 83.1924C157.505 83.5233 157.878 83.937 158.209 84.4333C158.622 84.9297 159.077 85.5088 159.574 86.1706C159.739 86.5015 159.822 86.7911 159.822 87.0393C159.822 87.5356 159.739 88.0734 159.574 88.6525C159.408 89.1488 159.243 89.5211 159.077 89.7693C157.34 92.4166 156.016 95.188 155.106 98.0835C154.196 100.979 153.741 103.75 153.741 106.398C153.741 109.872 154.61 112.809 156.347 115.208C158.085 117.607 160.815 118.807 164.537 118.807C166.44 118.807 168.55 118.476 170.866 117.814C173.182 117.152 175.747 116.036 178.56 114.464C182.2 112.726 185.881 110.617 189.604 108.135C193.327 105.653 196.719 103.171 199.78 100.689C200.69 99.9449 201.517 99.3244 202.261 98.8281C203.089 98.3317 203.916 97.6699 204.743 96.8426C204.909 96.7599 205.116 96.7185 205.364 96.7185C205.612 96.7185 205.736 96.8426 205.736 97.0908C205.736 97.339 205.571 97.6699 205.24 98.0835C204.743 98.6626 203.627 99.7381 201.889 101.31C200.152 102.882 198.001 104.66 195.436 106.646C192.955 108.631 190.224 110.576 187.246 112.478C184.351 114.381 181.414 116.036 178.436 117.442C176.781 118.269 174.506 119.097 171.611 119.924C168.798 120.834 165.985 121.289 163.172 121.289ZM138.478 83.937C140.215 83.937 142.821 83.5233 146.296 82.696C149.77 81.8688 153.659 80.7105 157.96 79.2214C162.262 77.6496 166.647 75.8296 171.114 73.7614C175.582 71.6104 179.677 69.2527 183.399 66.6881C185.799 65.0335 188.487 63.0067 191.465 60.6075C194.444 58.1257 197.463 55.3956 200.524 52.4174C203.585 49.3565 206.398 46.1714 208.962 42.8623C211.527 39.4704 213.595 36.0372 215.167 32.5626C216.739 29.0053 217.525 25.5307 217.525 22.1388C217.525 17.1751 214.547 14.6933 208.59 14.6933C206.439 14.6933 203.957 15.3965 201.145 16.8028C198.332 18.1265 195.395 19.9052 192.334 22.1388C189.273 24.3725 186.212 26.8543 183.151 29.5844C180.09 32.2317 177.236 34.9204 174.589 37.6504C172.024 40.3804 169.791 42.8623 167.888 45.096C164.165 49.646 160.318 54.4029 156.347 59.3666C152.459 64.3303 148.902 68.9631 145.675 73.265C142.532 77.5669 140.132 81.1242 138.478 83.937ZM123.587 114.464C124.331 114.05 125.614 113.057 127.434 111.486C129.336 109.914 131.487 107.97 133.886 105.653C136.286 103.337 138.685 100.938 141.084 98.4558C143.566 95.9739 145.841 93.6575 147.909 91.5066C149.977 89.2729 151.59 87.4943 152.749 86.1706C152.914 85.757 153.079 85.3847 153.245 85.0538C153.41 84.6402 153.576 84.3092 153.741 84.0611C148.943 85.302 144.765 85.9224 141.208 85.9224C140.629 85.9224 140.05 85.9224 139.471 85.9224C138.892 85.8397 138.354 85.757 137.857 85.6743H137.733C135.996 88.2388 134.217 90.9689 132.397 93.8644C130.66 96.6771 129.047 99.4485 127.558 102.179C126.151 104.826 125.076 107.225 124.331 109.376C123.587 111.527 123.339 113.223 123.587 114.464Z" fill="#AE983C"/>
<path d="M34.6567 141.515C24.2329 141.515 16.0015 138.495 9.96229 132.456C3.92312 126.5 0.862164 118.144 0.779435 107.389C0.779435 104.411 1.02762 101.226 1.52399 97.8343C2.10309 94.4425 3.05447 91.1747 4.37812 88.031C5.70178 84.8873 7.5218 82.1987 9.8382 79.965C7.10816 77.9795 4.87449 75.5804 3.1372 72.7676C1.3999 69.9548 0.53125 66.8112 0.53125 63.3366C0.53125 61.3511 0.820799 59.4483 1.3999 57.6283C2.64082 53.0783 4.95722 49.5209 8.34909 46.9564C11.8237 44.3918 16.0015 42.5717 20.8824 41.4963C25.7634 40.3381 31.058 39.759 36.7663 39.759C38.4209 39.759 40.0754 39.8003 41.73 39.8831C43.4673 39.9658 45.1632 40.0899 46.8178 40.2553C56.6625 41.2481 66.3417 43.0268 75.8555 45.5913C85.3692 48.0732 95.1726 50.6378 105.265 53.2851C107.168 53.7814 109.071 54.3192 110.974 54.8983C112.959 55.3946 114.862 55.8497 116.682 56.2633L125.12 36.1603C125.368 36.0776 125.575 36.0362 125.741 36.0362C125.989 35.9535 126.237 35.9121 126.485 35.9121C128.057 35.9121 129.215 36.6567 129.96 38.1458C130.704 39.5522 131.077 40.8758 131.077 42.1167C131.077 42.7786 130.953 43.3163 130.704 43.7299L123.755 57.7524C127.478 58.5797 131.242 59.2415 135.048 59.7379C138.853 60.1515 142.783 60.3584 146.836 60.3584C147.498 60.3584 148.16 60.3584 148.822 60.3584C149.484 60.2756 150.146 60.2343 150.807 60.2343C152.379 60.1515 154.117 59.862 156.019 59.3656C157.922 58.7865 159.577 57.9592 160.983 56.8838C162.389 55.8083 163.093 54.4846 163.093 52.9128C163.093 52.3337 162.969 51.7132 162.72 51.0514C162.555 50.3896 162.183 49.6864 161.603 48.9418C161.107 48.28 160.445 47.6182 159.618 46.9564C158.791 46.2945 157.757 45.4672 156.516 44.4745C156.433 44.3918 156.392 44.2677 156.392 44.1022C156.392 43.7713 156.64 43.6058 157.136 43.6058C157.467 43.6058 157.881 43.7299 158.377 43.9781C159.37 44.4745 160.528 45.2604 161.852 46.3359C163.258 47.4114 164.458 48.6523 165.45 50.0587C166.526 51.465 167.064 52.9955 167.064 54.6501C167.064 56.7183 166.236 58.4142 164.582 59.7379C162.927 60.9788 160.983 61.8888 158.749 62.4679C156.598 63.047 154.613 63.3779 152.793 63.4607C152.214 63.4607 151.593 63.502 150.932 63.5848C150.352 63.5848 149.732 63.5848 149.07 63.5848C144.686 63.5848 140.26 63.2538 135.792 62.592C131.408 61.9302 127.023 61.1029 122.638 60.1102C118.916 67.473 114.821 75.0013 110.353 82.695C105.969 90.306 101.129 97.6275 95.8344 104.659C90.6225 111.609 84.9142 117.855 78.7096 123.397C72.505 129.023 65.7212 133.449 58.3584 136.675C51.0783 139.902 43.1778 141.515 34.6567 141.515ZM37.0145 135.807C45.2873 135.807 52.8156 134.318 59.5993 131.339C66.3831 128.444 72.505 124.432 77.965 119.302C83.5079 114.256 88.5129 108.424 92.9803 101.805C97.5303 95.187 101.667 88.1965 105.39 80.8336C109.112 73.3881 112.587 65.9012 115.813 58.3729C113.745 57.8765 111.677 57.3801 109.609 56.8838C107.54 56.3874 105.514 55.8497 103.528 55.2706C97.489 53.6987 91.1189 52.0855 84.4179 50.4309C77.7169 48.6936 70.8504 47.2459 63.8185 46.0877C56.7866 44.9295 49.6719 44.3504 42.4746 44.3504C39.91 44.3504 37.304 44.4745 34.6567 44.7227C32.0921 44.8881 29.4862 45.1777 26.8389 45.5913C22.8679 46.2532 19.1038 47.5768 15.5465 49.5623C12.0719 51.465 9.21773 53.7814 6.98407 56.5115C4.83313 59.2415 3.75766 62.137 3.75766 65.198C3.75766 68.3416 5.08131 71.3612 7.72862 74.2567C8.14227 74.8358 8.76273 75.4149 9.59001 75.994C10.4173 76.5731 11.3273 77.1936 12.3201 77.8554C13.1473 77.2763 13.9746 76.8213 14.8019 76.4904C15.2983 76.3249 15.6706 76.2422 15.9187 76.2422C16.3324 76.2422 16.6219 76.3663 16.7874 76.6145C16.9528 76.7799 16.8287 76.9868 16.4151 77.2349C15.5051 77.7313 14.7192 78.2691 14.0573 78.8481C16.0428 80.0063 18.1524 81.1232 20.3861 82.1987C22.6197 83.1914 24.5225 83.8946 26.0943 84.3082C27.1698 84.391 27.7075 84.7632 27.7075 85.4251C27.7075 85.9214 27.2939 86.0455 26.4666 85.7973C21.3374 85.6319 16.4565 84.1428 11.8237 81.33C9.34183 84.391 7.5218 88.1965 6.3636 92.7465C5.20541 97.2966 4.62631 101.557 4.62631 105.528C4.62631 116.035 7.48044 123.687 13.1887 128.485C18.9797 133.366 26.9216 135.807 37.0145 135.807Z" fill="#AE983C"/>
<g clip-path="url(#clip0_301_1369)">
<path d="M714.466 4.793C700.397 -1.52294 682.21 4.25727 673.746 16.8469C673.718 11.6306 670.746 6.72444 666.457 3.56647C662.509 0.648165 657.626 -0.507878 652.785 0.197026C640.627 1.97338 631.965 13.999 629.29 25.4467C627.521 32.0305 626.983 38.8117 626.247 45.4942C626.205 45.8184 626.828 46.2273 627.111 46.185C627.592 46.1145 627.649 45.607 627.677 45.2263C628.427 32.4111 630.069 17.9042 639.891 8.5008C642.92 5.5402 646.699 3.12943 650.789 1.97338C654.087 1.04291 657.753 0.944225 661.008 2.04387C668.34 4.52514 674.1 12.3214 671.85 20.1458C671.51 20.8507 671.156 21.5556 670.873 22.2887C670.647 22.8667 671.581 23.3743 672.048 23.1346C672.671 22.7963 672.727 22.2323 672.911 21.6825C673.067 21.2737 673.166 20.8648 673.279 20.4419C689.513 -8.26182 740.905 2.66419 721.585 39.7281C711.777 57.4634 694.708 69.6583 678.162 80.8099C661.773 91.8628 644.463 101.548 626.445 109.711C621.393 112.009 616.071 114.265 610.834 116.351C610.013 116.675 609.164 116.986 608.343 117.31C607.919 117.465 607.494 117.634 607.069 117.789C606.857 117.916 606.064 118.085 606.064 118.367C606.064 119.171 609.759 118.071 610.226 117.888C633.834 108.724 656.493 97.0791 677.624 83.1079C679.479 81.8813 681.304 80.6407 683.13 79.3719C692.896 72.5907 702.336 65.2738 710.659 56.7162C724.614 43.5345 738.102 15.5639 714.466 4.793Z" fill="#AE983C"/>
</g>
<defs>
<clipPath id="clip0_301_1369">
<rect x="606.064" width="121.281" height="118.664" fill="white"/>
</clipPath>
</defs>
</svg>
