<?xml version="1.0" encoding="UTF-8"?>
<svg id="_レイヤー_1" data-name="レイヤー_1" xmlns="http://www.w3.org/2000/svg" version="1.1" viewBox="0 0 512 512">
  <!-- Generator: Adobe Illustrator 29.6.1, SVG Export Plug-In . SVG Version: 2.1.1 Build 9)  -->
  <defs>
    <style>
      .st0 {
        fill: #ab984f;
      }

      .st1 {
        fill: #fff;
      }
    </style>
  </defs>
  <circle class="st0" cx="256" cy="256" r="256"/>
  <path class="st1" d="M280.14,143.94c53.59,10.37,94.85,58.47,93.46,113.64,62.96,29.44,68.49,123.99,10.63,162.58-41.87,27.92-92.06,14.95-128.35-15.47-19.29,13.33-37.77,26.08-61.6,29.85-107.26,16.98-147.5-130.91-55.62-176.98-2.23-54.65,39.42-103.03,92.1-113.62l-28.58-40.24c.4-2.12,30.33-25.91,33.67-26.65,6.13-1.37,29.74-1.01,36.8-.35,7.22.67,24.05,15.03,30.07,20.67,2.1,1.97,4.45,3.85,6,6.33l-28.58,40.24ZM230.08,98.7c16.83-.58,33.88,0,50.74,0,.6,0,5.5,4.9,2.08-.71-3.38-1.87-6.89-6.39-10.59-7.24-4.13-.94-31.35-.87-34.63.45-2.44.99-7.05,6.33-10.35,7.48-1.37,3.76,2.53.02,2.76,0ZM285.62,112.41h-58.97l18.54,27.4c2.8,2.31,17.76,2.19,20.64.12,5.08-3.66,13.96-22.37,19.79-27.52ZM355.55,250.92c-2.04-73.05-86.41-114.78-149.01-79.77-27.77,15.53-50.39,47.36-51.18,79.77,38.58-12.4,71.12,6.41,101.02,28.61,28.8-22.07,61.51-41.46,99.17-28.61ZM241.73,293.41c.52-2.11-.34-2.19-1.45-3.31-2.78-2.8-10.62-8.05-14.27-10.41-20.66-13.39-45.87-21.13-69.39-10.04,2.49,26.46,17.9,48.4,36.44,66.28l48.67-42.51ZM355.53,268.81c-32.65-12.17-61.1,2.86-86.36,22.56l48.68,44.55c19.4-17.91,34.79-40.14,37.68-67.11ZM140.25,276.98c-1.91-2.01-16.12,12.32-17.85,14.36-27.74,32.79-22.11,85.41,11.69,111.77l45.53-54.14c-17.73-21.27-36.02-43.26-39.36-71.99ZM372.03,276.98c-4.71,28.82-22.09,50.86-41.06,71.8l47.21,53.04c40.66-29.27,38.1-100.15-6.15-124.84ZM207.46,349.63l48.43,34.09,48.9-36.13-48.65-43.25c-1.81,0-24.9,19.69-28.13,22.66-4.7,4.32-16.04,14.59-19.21,19.19-.79,1.15-1.87,1.44-1.33,3.43ZM240.36,393.56l-47.96-32.93-43.88,50.05c18.64,11.73,43.96,9.09,63.54.49l28.3-17.61ZM271.91,393.57c23.53,21.26,61.34,34.53,90.48,17.12l-44.53-49.81-45.95,32.69Z"/>
</svg>