<svg xmlns="http://www.w3.org/2000/svg" xmlns:xlink="http://www.w3.org/1999/xlink" width="516.254" height="516.259" viewBox="0 0 516.254 516.259"><defs><clipPath id="a"><rect width="516.254" height="516.258" fill="#ffcfd2"/></clipPath></defs><g opacity="0.24"><g clip-path="url(#a)"><text transform="translate(254.495 34.873) rotate(2.919)" fill="#ffcfd2" font-size="41" font-family="MomoTrustDisplay-Regular, Momo Trust Display"><tspan x="0" y="0">K</tspan></text><text transform="matrix(0.982, 0.187, -0.187, 0.982, 284.031, 36.239)" fill="#ffcfd2" font-size="41" font-family="MomoTrustDisplay-Regular, Momo Trust Display"><tspan x="0" y="0">N</tspan></text><text transform="translate(315.379 42.112) rotate(19.177)" fill="#ffcfd2" font-size="41" font-family="MomoTrustDisplay-Regular, Momo Trust Display"><tspan x="0" y="0">O</tspan></text></g><text transform="translate(345.484 52.686) rotate(26.55)" fill="#ffcfd2" font-size="41" font-family="MomoTrustDisplay-Regular, Momo Trust Display"><tspan x="0" y="0">T</tspan></text><text transform="translate(368.177 63.653) rotate(33.892)" fill="#ffcfd2" font-size="41" font-family="MomoTrustDisplay-Regular, Momo Trust Display"><tspan x="0" y="0">O</tspan></text><text transform="translate(395.557 82.148) rotate(41.846)" fill="#ffcfd2" font-size="41" font-family="MomoTrustDisplay-Regular, Momo Trust Display"><tspan x="0" y="0">R</tspan></text><text transform="translate(417.705 100.612) rotate(48.982)" fill="#ffcfd2" font-size="40" font-family="MomoTrustDisplay-Regular, Momo Trust Display"><tspan x="0" y="0">Y</tspan></text><text transform="matrix(0.592, 0.806, -0.806, 0.592, 437.434, 120.831)" fill="#ffcfd2" font-size="38" font-family="MomoTrustDisplay-Regular, Momo Trust Display"><tspan x="0" y="0"> </tspan></text><text transform="translate(440.999 129.022) rotate(60.301)" fill="#ffcfd2" font-size="41" font-family="MomoTrustDisplay-Regular, Momo Trust Display"><tspan x="0" y="0">W</tspan></text><g clip-path="url(#a)"><text transform="translate(462.794 166.521) rotate(69.294)" fill="#ffcfd2" font-size="40" font-family="MomoTrustDisplay-Regular, Momo Trust Display"><tspan x="0" y="0">E</tspan></text><text transform="translate(471.205 191.205) rotate(76.448)" fill="#ffcfd2" font-size="41" font-family="MomoTrustDisplay-Regular, Momo Trust Display"><tspan x="0" y="0">R</tspan></text><text transform="translate(478.162 220.14) rotate(84.02)" fill="#ffcfd2" font-size="41" font-family="MomoTrustDisplay-Regular, Momo Trust Display"><tspan x="0" y="0">S</tspan></text><text transform="translate(480.778 248.627) rotate(89.071)" fill="#ffcfd2" font-size="41" font-family="MomoTrustDisplay-Regular, Momo Trust Display"><tspan x="0" y="0">I</tspan></text><text transform="translate(481.278 261.903) rotate(94.379)" fill="#ffcfd2" font-size="41" font-family="MomoTrustDisplay-Regular, Momo Trust Display"><tspan x="0" y="0">T</tspan></text><text transform="translate(480.278 288.399) rotate(101.116)" fill="#ffcfd2" font-size="40" font-family="MomoTrustDisplay-Regular, Momo Trust Display"><tspan x="0" y="0">E</tspan></text><text transform="translate(476.794 314.75) rotate(105.666)" fill="#ffcfd2" font-size="38" font-family="MomoTrustDisplay-Regular, Momo Trust Display"><tspan x="0" y="0"> </tspan></text><text transform="matrix(-0.357, 0.934, -0.934, -0.357, 472.067, 322.548)" fill="#ffcfd2" font-size="41" font-family="MomoTrustDisplay-Regular, Momo Trust Display"><tspan x="0" y="0">D</tspan></text></g><text transform="matrix(-0.475, 0.88, -0.88, -0.475, 461.499, 352.57)" fill="#ffcfd2" font-size="40" font-family="MomoTrustDisplay-Regular, Momo Trust Display"><tspan x="0" y="0">E</tspan></text><text transform="translate(448.337 375.076) rotate(125.381)" fill="#ffcfd2" font-size="41" font-family="MomoTrustDisplay-Regular, Momo Trust Display"><tspan x="0" y="0">S</tspan></text><text transform="translate(431.468 398.246) rotate(130.74)" fill="#ffcfd2" font-size="41" font-family="MomoTrustDisplay-Regular, Momo Trust Display"><tspan x="0" y="0">I</tspan></text><text transform="translate(423.252 408.56) rotate(136.521)" fill="#ffcfd2" font-size="41" font-family="MomoTrustDisplay-Regular, Momo Trust Display"><tspan x="0" y="0">G</tspan></text><text transform="matrix(-0.816, 0.578, -0.578, -0.816, 400.12, 430.572)" fill="#ffcfd2" font-size="41" font-family="MomoTrustDisplay-Regular, Momo Trust Display"><tspan x="0" y="0">N</tspan></text><text transform="translate(375.088 451.342) rotate(149.938)" fill="#ffcfd2" font-size="38" font-family="MomoTrustDisplay-Regular, Momo Trust Display"><tspan x="0" y="0"> </tspan></text><text transform="translate(366.192 453.579) rotate(154.922)" fill="#ffcfd2" font-size="41" font-family="MomoTrustDisplay-Regular, Momo Trust Display"><tspan x="0" y="0">K</tspan></text><g clip-path="url(#a)"><text transform="translate(339.503 466.224) rotate(162.856)" fill="#ffcfd2" font-size="41" font-family="MomoTrustDisplay-Regular, Momo Trust Display"><tspan x="0" y="0">N</tspan></text><text transform="translate(309.03 475.722) rotate(171.239)" fill="#ffcfd2" font-size="41" font-family="MomoTrustDisplay-Regular, Momo Trust Display"><tspan x="0" y="0">O</tspan></text><text transform="matrix(-1, 0.026, -0.026, -1, 277.5, 480.481)" fill="#ffcfd2" font-size="41" font-family="MomoTrustDisplay-Regular, Momo Trust Display"><tspan x="0" y="0">T</tspan></text><text transform="matrix(-0.995, -0.1, 0.1, -0.995, 252.292, 481.465)" fill="#ffcfd2" font-size="41" font-family="MomoTrustDisplay-Regular, Momo Trust Display"><tspan x="0" y="0">O</tspan></text><text transform="matrix(-0.971, -0.238, 0.238, -0.971, 219.442, 478.071)" fill="#ffcfd2" font-size="41" font-family="MomoTrustDisplay-Regular, Momo Trust Display"><tspan x="0" y="0">R</tspan></text><text transform="translate(191.191 472.198) rotate(-158.991)" fill="#ffcfd2" font-size="40" font-family="MomoTrustDisplay-Regular, Momo Trust Display"><tspan x="0" y="0">Y</tspan></text></g><text transform="translate(164.291 463.594) rotate(-154.235)" fill="#ffcfd2" font-size="38" font-family="MomoTrustDisplay-Regular, Momo Trust Display"><tspan x="0" y="0"> </tspan></text><text transform="matrix(-0.844, -0.536, 0.536, -0.844, 157.321, 458.034)" fill="#ffcfd2" font-size="41" font-family="MomoTrustDisplay-Regular, Momo Trust Display"><tspan x="0" y="0">W</tspan></text><text transform="matrix(-0.751, -0.66, 0.66, -0.751, 120.506, 435.098)" fill="#ffcfd2" font-size="40" font-family="MomoTrustDisplay-Regular, Momo Trust Display"><tspan x="0" y="0">E</tspan></text><text transform="translate(101.497 417.245) rotate(-131.632)" fill="#ffcfd2" font-size="41" font-family="MomoTrustDisplay-Regular, Momo Trust Display"><tspan x="0" y="0">R</tspan></text><text transform="matrix(-0.561, -0.828, 0.828, -0.561, 81.723, 394.976)" fill="#ffcfd2" font-size="41" font-family="MomoTrustDisplay-Regular, Momo Trust Display"><tspan x="0" y="0">S</tspan></text><text transform="translate(65.943 371.077) rotate(-118.729)" fill="#ffcfd2" font-size="41" font-family="MomoTrustDisplay-Regular, Momo Trust Display"><tspan x="0" y="0">I</tspan></text><text transform="translate(59.3 359.622) rotate(-113.601)" fill="#ffcfd2" font-size="41" font-family="MomoTrustDisplay-Regular, Momo Trust Display"><tspan x="0" y="0">T</tspan></text><g clip-path="url(#a)"><text transform="matrix(-0.289, -0.957, 0.957, -0.289, 47.75, 335.739)" fill="#ffcfd2" font-size="40" font-family="MomoTrustDisplay-Regular, Momo Trust Display"><tspan x="0" y="0">E</tspan></text><text transform="matrix(-0.212, -0.977, 0.977, -0.212, 38.493, 310.851)" fill="#ffcfd2" font-size="38" font-family="MomoTrustDisplay-Regular, Momo Trust Display"><tspan x="0" y="0"> </tspan></text><text transform="matrix(-0.122, -0.992, 0.992, -0.122, 39.016, 301.725)" fill="#ffcfd2" font-size="41" font-family="MomoTrustDisplay-Regular, Momo Trust Display"><tspan x="0" y="0">D</tspan></text><text transform="translate(34.139 270.267) rotate(-89.071)" fill="#ffcfd2" font-size="40" font-family="MomoTrustDisplay-Regular, Momo Trust Display"><tspan x="0" y="0">E</tspan></text><text transform="matrix(0.126, -0.992, 0.992, 0.126, 35.305, 244.188)" fill="#ffcfd2" font-size="41" font-family="MomoTrustDisplay-Regular, Momo Trust Display"><tspan x="0" y="0">S</tspan></text><text transform="translate(39.257 215.822) rotate(-77.348)" fill="#ffcfd2" font-size="41" font-family="MomoTrustDisplay-Regular, Momo Trust Display"><tspan x="0" y="0">I</tspan></text><text transform="translate(41.644 202.844) rotate(-71.487)" fill="#ffcfd2" font-size="41" font-family="MomoTrustDisplay-Regular, Momo Trust Display"><tspan x="0" y="0">G</tspan></text></g><text transform="matrix(0.45, -0.893, 0.893, 0.45, 51.727, 172.562)" fill="#ffcfd2" font-size="41" font-family="MomoTrustDisplay-Regular, Momo Trust Display"><tspan x="0" y="0">N</tspan></text><text transform="translate(64.119 142.492) rotate(-57.972)" fill="#ffcfd2" font-size="38" font-family="MomoTrustDisplay-Regular, Momo Trust Display"><tspan x="0" y="0"> </tspan></text><text transform="matrix(0.602, -0.799, 0.799, 0.602, 70.941, 136.346)" fill="#ffcfd2" font-size="41" font-family="MomoTrustDisplay-Regular, Momo Trust Display"><tspan x="0" y="0">K</tspan></text><text transform="matrix(0.705, -0.709, 0.709, 0.705, 88.608, 112.667)" fill="#ffcfd2" font-size="41" font-family="MomoTrustDisplay-Regular, Momo Trust Display"><tspan x="0" y="0">N</tspan></text><text transform="translate(111.04 89.963) rotate(-36.882)" fill="#ffcfd2" font-size="41" font-family="MomoTrustDisplay-Regular, Momo Trust Display"><tspan x="0" y="0">O</tspan></text><text transform="translate(136.616 70.891) rotate(-29.564)" fill="#ffcfd2" font-size="41" font-family="MomoTrustDisplay-Regular, Momo Trust Display"><tspan x="0" y="0">T</tspan></text><text transform="translate(158.378 58.16) rotate(-22.197)" fill="#ffcfd2" font-size="41" font-family="MomoTrustDisplay-Regular, Momo Trust Display"><tspan x="0" y="0">O</tspan></text><g clip-path="url(#a)"><text transform="matrix(0.97, -0.245, 0.245, 0.97, 188.981, 45.762)" fill="#ffcfd2" font-size="41" font-family="MomoTrustDisplay-Regular, Momo Trust Display"><tspan x="0" y="0">R</tspan></text><text transform="matrix(0.993, -0.121, 0.121, 0.993, 216.684, 37.725)" fill="#ffcfd2" font-size="40" font-family="MomoTrustDisplay-Regular, Momo Trust Display"><tspan x="0" y="0">Y</tspan></text><text transform="translate(244.469 32.713) rotate(-2.25)" fill="#ffcfd2" font-size="38" font-family="MomoTrustDisplay-Regular, Momo Trust Display"><tspan x="0" y="0"> </tspan></text></g></g></svg>