<svg xmlns="http://www.w3.org/2000/svg" width="20.4" height="34.6" viewBox="0 0 20.4 34.6"><path d="M-.48-4.76a.594.594,0,0,0,.52-.4,2.439,2.439,0,0,0,.2-1.08L.2-8.44a18.42,18.42,0,0,1,.26-3.22,6.782,6.782,0,0,1,.74-2.26,5.549,5.549,0,0,1,1.38-1.6,20.6,20.6,0,0,1,2.18-1.44q1.08-.64,1.78-1.12a7.917,7.917,0,0,0,1.3-1.12A6.587,6.587,0,0,0,9.3-21.64a8.621,8.621,0,0,0,.5-2.84A8.059,8.059,0,0,0,8.46-29,9.2,9.2,0,0,0,4.8-32.2,11.2,11.2,0,0,0-.28-33.36a12.137,12.137,0,0,0-5.74,1.24,8.594,8.594,0,0,0-3.46,3.1,7.128,7.128,0,0,0-1.12,3.7,6.877,6.877,0,0,0,1.06,3.98A3.081,3.081,0,0,0-6.96-19.8,1.631,1.631,0,0,0-6-20.08a.881.881,0,0,0,.4-.76,2.032,2.032,0,0,0-.22-.92,4.1,4.1,0,0,0-.78-1,3.918,3.918,0,0,1-.82-1.2,4.642,4.642,0,0,1-.3-1.84,5.716,5.716,0,0,1,.84-2.86,6.785,6.785,0,0,1,2.42-2.42,7.063,7.063,0,0,1,3.74-.96,8.135,8.135,0,0,1,4.06.98A6.837,6.837,0,0,1,6-28.46a6.97,6.97,0,0,1,.92,3.5,7.455,7.455,0,0,1-.84,3.36A6.508,6.508,0,0,1,3.84-19,17,17,0,0,0,.62-16.46,6.587,6.587,0,0,0-.9-13.94a11,11,0,0,0-.42,3.26q0,2.4.12,4.28A4.806,4.806,0,0,0-.96-5.16Q-.8-4.76-.48-4.76Zm.12,6A1.772,1.772,0,0,0,.94.7,1.772,1.772,0,0,0,1.48-.6,1.772,1.772,0,0,0,.94-1.9a1.772,1.772,0,0,0-1.3-.54,1.839,1.839,0,0,0-1.32.54A1.741,1.741,0,0,0-2.24-.6,1.741,1.741,0,0,0-1.68.7,1.839,1.839,0,0,0-.36,1.24Z" transform="translate(10.6 33.36)" fill="#001738"/></svg>