<svg xmlns="http://www.w3.org/2000/svg" width="14.625" height="14.625" viewBox="0 0 14.625 14.625"><defs><style>.a{fill:#AE983C;}</style></defs><g transform="translate(-3.375 -3.375)"><path class="a" d="M14.614,10.18a.681.681,0,0,1,.96,0l3.354,3.364a.678.678,0,0,1,.021.935l-3.3,3.315a.677.677,0,1,1-.96-.956l2.809-2.851-2.879-2.851A.671.671,0,0,1,14.614,10.18Z" transform="translate(-5.52 -3.304)"/><path class="a" d="M3.375,10.688a7.313,7.313,0,1,0,7.313-7.312A7.311,7.311,0,0,0,3.375,10.688Zm1.125,0a6.194,6.194,0,1,1,1.814,4.373A6.134,6.134,0,0,1,4.5,10.688Z"/></g></svg>