<svg xmlns="http://www.w3.org/2000/svg" width="45" height="45" viewBox="0 0 45 45">
  <g id="Icon_ionic-ios-arrow-dropright" data-name="Icon ionic-ios-arrow-dropright" transform="translate(48.375 48.375) rotate(180)">
    <path id="パス_1" data-name="パス 1" d="M26.269,10.583a2.176,2.176,0,0,0-3,0L12.781,20.8a2.014,2.014,0,0,0-.066,2.839L23.048,33.7a2.169,2.169,0,0,0,3,.011,2.016,2.016,0,0,0,0-2.914l-8.772-8.645,9-8.655A2.016,2.016,0,0,0,26.269,10.583Z" transform="translate(4.627 3.723)" fill="#d8bfae"/>
    <path id="パス_2" data-name="パス 2" d="M25.875,3.375a22.5,22.5,0,1,0,22.5,22.5A22.5,22.5,0,0,0,25.875,3.375ZM39.332,39.332A19.031,19.031,0,1,1,12.418,12.418,19.031,19.031,0,1,1,39.332,39.332Z" transform="translate(0 0)" fill="#d8bfae"/>
  </g>
</svg>