<svg width="334" height="166" viewBox="0 0 334 166" fill="none" xmlns="http://www.w3.org/2000/svg">
<path d="M291.109 22.8591C289.502 20.6097 288.526 18.3002 288.182 15.9308C287.825 13.4962 287.891 11.1453 288.381 8.87817C288.923 6.53274 289.771 4.36243 290.926 2.36724C292.132 0.293802 293.489 -1.53905 294.996 -3.1313C296.49 -4.78865 298.05 -6.12055 299.675 -7.12703C301.366 -8.14667 302.908 -8.72969 304.301 -8.8761C305.681 -9.08759 306.854 -8.81675 307.819 -8.06358C308.785 -7.3104 309.328 -5.96371 309.45 -4.0235C309.964 -1.48511 309.598 0.892486 308.353 3.10927C307.172 5.31289 305.757 7.36075 304.108 9.25287C302.523 11.1318 301.042 12.8542 299.665 14.4202C298.34 15.9078 297.783 17.1723 297.994 18.2137C298.113 18.7995 298.53 19.1893 299.247 19.383C300.029 19.5636 300.895 19.6593 301.846 19.6702C302.783 19.616 303.714 19.5292 304.639 19.4099C305.563 19.2906 306.227 19.224 306.631 19.21C312.486 16.6703 316.916 14.9607 319.923 14.0814C322.916 13.1369 324.842 12.7809 325.703 13.0134C326.549 13.1808 326.499 13.767 325.55 14.7719C324.654 15.6986 323.185 16.8089 321.143 18.1028C319.088 19.3317 316.662 20.5679 313.865 21.8114C311.067 23.0549 308.25 24.0316 305.413 24.7412C302.562 25.3858 299.834 25.6329 297.229 25.4825C294.689 25.3189 292.649 24.4445 291.109 22.8591ZM303.69 -2.85792C302.388 -2.59451 301.224 -1.98629 300.197 -1.03327C299.17 -0.0802424 298.281 1.04829 297.528 2.35233C296.828 3.57811 296.284 4.90772 295.896 6.34116C295.496 7.70952 295.245 8.97987 295.143 10.1522C295.287 10.1909 295.391 10.2037 295.456 10.1906L295.749 10.1313C296.66 9.94691 297.622 9.34566 298.636 8.32755C299.649 7.30944 300.565 6.14178 301.382 4.82457C302.187 3.44228 302.822 2.06036 303.287 0.678834C303.753 -0.702695 303.887 -1.88161 303.69 -2.85792Z" fill="#F5F4F0"/>
<path d="M239.85 92.4807C239.099 88.7707 239.078 85.3195 239.787 82.1272C240.431 78.9481 241.538 75.8786 243.107 72.9187C244.689 70.0239 246.597 67.2326 248.831 64.5448C251.078 61.922 253.397 59.3186 255.788 56.7346C258.191 54.2156 260.523 51.6773 262.784 49.1196C265.044 46.5619 266.985 43.9333 268.607 41.2338C270.229 38.5343 271.388 35.7252 272.084 32.8064C272.846 29.8744 272.898 26.7812 272.239 23.5269C272.213 23.3967 272.154 23.1038 272.062 22.6482C271.956 22.1275 271.858 21.8086 271.766 21.6916C271.39 22.1744 270.63 22.9379 269.486 23.9824C268.329 24.9618 267.088 26.026 265.762 27.175C264.488 28.2458 263.234 29.2449 261.998 30.1724C260.763 31.0998 259.873 31.7205 259.326 32.0343C259.261 32.0474 259.007 32.1326 258.565 32.2899C258.188 32.434 257.713 32.5979 257.14 32.7815C256.633 32.952 256.125 33.1224 255.617 33.2929C255.097 33.3982 254.674 33.4838 254.348 33.5497C251.314 33.6217 249.157 33.0079 247.878 31.7085C246.586 30.344 245.957 28.5742 245.991 26.3992C246.025 24.2242 246.586 21.8071 247.674 19.1479C248.814 16.4104 250.273 13.7438 252.051 11.1482C253.881 8.47425 255.927 6.02775 258.188 3.80867C260.501 1.51133 262.822 -0.245559 265.15 -1.46199C267.531 -2.75668 269.808 -3.38695 271.983 -3.3528C274.21 -3.3969 276.127 -2.46355 277.733 -0.552739C278.677 2.1019 279.197 4.67284 279.294 7.16008C279.377 9.58224 279.324 11.9982 279.134 14.4079C278.944 16.8177 278.761 19.26 278.584 21.7348C278.394 24.1446 278.511 26.7295 278.934 29.4895L279.812 29.3117C280.124 28.8421 280.637 28.027 281.35 26.8663C282.129 25.6924 282.934 24.4795 283.764 23.2273C284.647 21.897 285.484 20.6774 286.276 19.5686C287.055 18.3947 287.6 17.573 287.911 17.1035C288.067 16.8687 288.405 16.5293 288.925 16.0854C289.51 15.6282 289.933 15.3733 290.193 15.3206L290.252 15.6135L290.292 15.8088C290.305 15.8739 290.344 15.8998 290.409 15.8867C290.883 18.2298 290.635 20.516 289.663 22.7452C288.756 24.9612 287.53 27.1063 285.985 29.1805C284.44 31.2547 282.804 33.2119 281.076 35.0521C279.361 36.9574 277.958 38.7317 276.868 40.3752C276.223 42.8771 275.591 45.952 274.975 49.6C274.371 53.313 273.676 57.2476 272.891 61.4039C272.12 65.6252 271.159 69.9186 270.01 74.284C268.939 78.7013 267.542 82.8459 265.818 86.7177C264.16 90.5764 262.143 93.9996 259.766 96.9873C257.403 100.04 254.536 102.28 251.166 103.707C249.474 104.05 247.989 103.91 246.711 103.288C245.369 102.679 244.24 101.789 243.326 100.619C242.425 99.514 241.686 98.2068 241.109 96.6974C240.546 95.2531 240.126 93.8475 239.85 92.4807ZM246.091 96.7057C246.862 97.837 247.632 98.4603 248.4 98.5758C249.169 98.6913 250.009 98.6568 250.92 98.4724C252.612 98.13 254.29 96.876 255.952 94.7103C257.614 92.5447 259.17 89.8584 260.622 86.6513C262.151 83.4962 263.518 80.0354 264.72 76.269C265.923 72.5025 266.918 68.8798 267.704 65.4007C268.556 61.9086 269.135 58.7426 269.441 55.9028C269.825 53.1149 269.886 51.0701 269.622 49.7684C269.596 49.6382 269.517 49.417 269.386 49.1047C269.334 48.8443 269.294 48.6491 269.268 48.5189C269.099 48.6886 268.683 48.9761 268.02 49.3813C267.435 49.8384 267.09 50.1452 266.986 50.3018C264.661 52.8726 262.017 55.7112 259.055 58.8174C256.171 61.9756 253.561 65.3155 251.224 68.8371C248.823 72.3718 246.956 76.0356 245.623 79.8284C244.303 83.6863 244.045 87.6004 244.849 91.5707C244.888 91.766 244.961 92.124 245.066 92.6447C245.171 93.1654 245.309 93.6795 245.48 94.187C245.585 94.7077 245.716 95.1893 245.874 95.6317C245.979 96.1524 246.051 96.5104 246.091 96.7057ZM271.722 1.88319C270.68 2.09392 269.386 2.72847 267.838 3.78686C266.278 4.78017 264.64 6.06016 262.924 7.62684C261.274 9.18035 259.624 10.9032 257.974 12.7953C256.324 14.6874 254.851 16.6117 253.553 18.5681C252.32 20.5114 251.38 22.3954 250.733 24.2201C250.086 26.0448 249.9 27.6406 250.177 29.0075C251.544 28.7309 253.151 28.1347 254.998 27.2189C256.832 26.238 258.699 25.0812 260.597 23.7485C262.547 22.3376 264.439 20.8031 266.271 19.145C268.091 17.4218 269.669 15.6796 271.006 13.9184C272.409 12.1441 273.479 10.403 274.218 8.69528C274.956 6.98755 275.181 5.41773 274.891 3.98582C274.535 2.22846 273.479 1.52759 271.722 1.88319Z" fill="#F5F4F0"/>
<path d="M204.839 38.9946C204.674 35.1661 205.089 31.5252 206.084 28.0717C207.079 24.6183 208.388 21.5418 210.01 18.8423C211.683 16.0645 213.605 13.6769 215.776 11.6794C217.946 9.68196 220.163 8.25089 222.428 7.38623C224.678 6.45649 226.846 6.11949 228.93 6.37525C231.08 6.61784 232.97 7.59032 234.602 9.2927C234.905 10.7897 234.837 12.2941 234.398 13.8058C234.023 15.3043 233.551 16.8226 232.982 18.3606C232.477 19.8855 232.012 21.4363 231.586 23.0131C231.225 24.5767 231.209 26.1721 231.538 27.7993C231.88 29.4916 232.515 30.786 233.442 31.6825C234.42 32.5008 235.853 32.7189 237.741 32.337C239.303 32.0209 240.754 31.4902 242.094 30.7448C243.498 29.9863 244.949 29.4555 246.446 29.1526C246.707 29.0999 247.136 29.0469 247.735 28.9934C248.386 28.8617 248.809 28.7761 249.004 28.7366C248.447 30.0011 247.629 31.149 246.551 32.1803C245.472 33.2116 244.309 34.1584 243.06 35.0208C241.799 35.8181 240.446 36.4983 239.002 37.0616C237.622 37.6117 236.315 38.0119 235.078 38.2621C233.906 38.4992 232.812 38.4496 231.796 38.1132C230.779 37.7769 229.86 37.2516 229.038 36.5371C228.216 35.8227 227.504 34.9843 226.903 34.0219C226.353 32.9813 225.973 31.9403 225.763 30.8989C225.01 32.2029 224.173 33.5918 223.252 35.0655C222.383 36.461 221.396 37.7786 220.292 39.0183C219.252 40.2449 218.05 41.335 216.685 42.2888C215.385 43.2294 213.954 43.8578 212.391 44.1739C210.699 44.5163 209.11 44.1943 207.623 43.2079C206.123 42.1564 205.195 40.752 204.839 38.9946ZM210.67 34.6642C210.776 35.1849 210.894 35.7707 211.026 36.4216C211.223 37.0593 211.732 37.3967 212.552 37.4339C214.1 36.7141 215.784 35.4927 217.603 33.7695C219.41 31.9812 221.046 30.024 222.513 27.8978C223.967 25.7066 225.108 23.4771 225.936 21.2091C226.751 18.8761 226.968 16.7658 226.586 14.8783C226.56 14.7481 226.488 14.5594 226.37 14.3123C226.304 13.9868 226.258 13.759 226.231 13.6289C224.018 14.0767 221.865 14.9866 219.772 16.3588C217.678 17.731 215.884 19.4151 214.391 21.411C212.885 23.3419 211.757 25.4672 211.007 27.7871C210.322 30.0938 210.209 32.3862 210.67 34.6642Z" fill="#F5F4F0"/>
<path d="M180.432 43.9335C180.247 43.0223 180.187 42.2215 180.25 41.5311C180.301 40.7757 180.474 39.792 180.771 38.5802C181.095 37.8371 181.658 36.4358 182.461 34.3763C183.329 32.3036 184.21 30.1267 185.103 27.8456C186.062 25.5513 186.949 23.407 187.765 21.4126C188.633 19.3399 189.222 17.8995 189.533 17.0913C189.947 16.1267 190.311 15.5789 190.623 15.4479C190.935 15.317 191.547 15.1593 192.458 14.9749C193.044 14.8564 193.669 14.7638 194.333 14.6972C195.062 14.6174 195.61 14.9808 195.977 15.7875C195.513 18.1848 194.704 20.5504 193.551 22.8842C192.449 25.1397 191.347 27.3952 190.245 29.6508C189.208 31.8931 188.347 34.1677 187.662 36.4743C186.964 38.7159 186.852 41.0083 187.326 43.3514C187.586 43.2988 187.984 43.2523 188.517 43.212C189.116 43.1586 189.748 43.0985 190.412 43.0319C191.076 42.9653 191.675 42.9118 192.209 42.8716C192.808 42.8181 193.231 42.7325 193.478 42.6147C193.855 42.4706 194.48 42.2088 195.352 41.8291C196.275 41.3712 197.231 40.9067 198.22 40.4356C199.274 39.9514 200.263 39.4803 201.186 39.0224C202.11 38.5645 202.754 38.231 203.118 38.0218C203.144 38.1519 203.19 38.3797 203.256 38.7052C203.374 38.9524 203.446 39.141 203.472 39.2712C203.736 40.5729 203.335 41.772 202.269 42.8684C201.269 43.9516 200.008 44.9181 198.486 45.7681C197.016 46.5398 195.455 47.1945 193.802 47.7322C192.201 48.1916 190.945 48.5135 190.034 48.6979C189.058 48.8955 188.029 49.002 186.948 49.0175C185.919 48.9547 184.962 48.7419 184.075 48.3793C183.189 48.0166 182.406 47.4975 181.727 46.8218C181.101 46.0679 180.669 45.1051 180.432 43.9335ZM197.265 -19.0269C198.111 -19.1981 198.899 -19.3236 199.628 -19.4034C200.357 -19.4832 201.009 -19.4456 201.582 -19.2906C202.155 -19.1356 202.657 -18.8307 203.088 -18.3759C203.519 -17.921 203.827 -17.238 204.011 -16.3268C204.09 -15.9363 204.176 -15.5132 204.268 -15.0576C204.36 -14.602 204.387 -14.1332 204.349 -13.6512C204.363 -13.2476 204.273 -12.8566 204.078 -12.4785C203.871 -12.1655 203.474 -11.9497 202.888 -11.8312C201.977 -11.6468 201.163 -11.8208 200.445 -12.3531C199.793 -12.8986 199.251 -13.5681 198.819 -14.3615C198.374 -15.2201 198.027 -16.0984 197.778 -16.9964C197.528 -17.8945 197.357 -18.5713 197.265 -19.0269Z" fill="#F5F4F0"/>
<path d="M164.378 45.9624C163.983 44.0098 164.012 42.1408 164.463 40.3556C164.967 38.4921 165.556 36.7131 166.229 35.0186C166.902 33.324 167.478 31.6492 167.956 29.9942C168.499 28.3259 168.6 26.6457 168.257 24.9534C168.178 24.5629 168.054 24.1139 167.883 23.6064C167.765 23.0206 167.588 22.4805 167.352 21.9861C167.182 21.4786 166.901 21.0951 166.51 20.8355C166.17 20.4976 165.773 20.3748 165.317 20.467C165.252 20.4802 165.128 20.5391 164.946 20.6437C164.816 20.67 164.758 20.7157 164.771 20.7808C164.11 22.2018 163.286 23.8251 162.301 25.6506C161.367 27.3979 160.336 29.1648 159.207 30.9516C158.078 32.7384 156.968 34.4534 155.878 36.0968C154.788 37.7403 153.781 39.1295 152.859 40.2646C152.223 41.1386 151.347 42.3323 150.23 43.8455C149.179 45.3455 148.095 46.8522 146.978 48.3654C145.913 49.8004 144.953 51.0789 144.096 52.2008C143.304 53.3096 142.843 53.8771 142.712 53.9035L137.451 51.0047C138.037 50.8861 138.596 50.6374 139.129 50.2585C139.597 49.8928 140.059 49.4946 140.514 49.0638C143.892 45.6701 146.801 41.9648 149.24 37.9481C151.745 33.9183 154.131 29.6412 156.4 25.117C156.491 24.8954 156.704 24.2763 157.04 23.2597C157.429 22.1648 157.83 20.9658 158.244 19.6625C158.644 18.2942 159.051 16.9583 159.465 15.6551C159.866 14.2867 160.156 13.2116 160.337 12.4298C160.556 11.5047 160.646 10.7751 160.606 10.2413C160.63 9.69424 160.649 9.28397 160.661 9.01045C160.726 8.65867 160.875 8.39135 161.109 8.2085C161.343 8.02564 161.883 7.84861 162.729 7.67739C162.859 7.65105 163.159 7.62433 163.627 7.59722C164.161 7.55694 164.5 7.55618 164.643 7.59493C165.845 9.18106 166.91 10.5917 167.837 11.8268C168.765 13.0619 169.581 14.2517 170.287 15.3962C170.98 16.4756 171.549 17.6138 171.994 18.811C172.505 19.9949 172.912 21.3354 173.215 22.8324C172.803 25.1515 172.307 27.5555 171.727 30.0442C171.133 32.4679 170.682 34.7611 170.375 36.9236C170.067 39.0862 169.98 41.0008 170.114 42.6675C170.313 44.321 170.935 45.5503 171.978 46.3554C173.074 47.0823 174.67 47.2675 176.766 46.9111C178.927 46.5416 181.841 45.3759 185.51 43.4141C186.656 43.7241 186.886 44.3552 186.198 45.3075C185.496 46.1947 184.333 47.1415 182.707 48.148C181.147 49.1413 179.371 50.0764 177.38 50.9535C175.442 51.7523 173.769 52.1924 172.363 52.2737C171.126 52.5239 170.045 52.5394 169.12 52.3201C168.247 52.0225 167.478 51.5684 166.812 50.9579C166.212 50.3341 165.689 49.5929 165.244 48.7344C164.865 47.8627 164.576 46.9387 164.378 45.9624Z" fill="#F5F4F0"/>
<path d="M118.402 55.2657C118.007 53.3131 118.035 51.4442 118.487 49.6589C118.991 47.7955 119.579 46.0164 120.253 44.3219C120.926 42.6273 121.502 40.9525 121.98 39.2975C122.523 37.6293 122.624 35.949 122.281 34.2567C122.202 33.8662 122.077 33.4172 121.907 32.9097C121.788 32.3239 121.611 31.7838 121.376 31.2895C121.205 30.7819 120.925 30.3984 120.533 30.1388C120.194 29.801 119.796 29.6781 119.341 29.7703C119.276 29.7835 119.152 29.8424 118.97 29.947C118.84 29.9733 118.781 30.019 118.795 30.0841C118.134 31.5052 117.31 33.1284 116.325 34.9539C115.391 36.7012 114.36 38.4682 113.231 40.2549C112.102 42.0417 110.992 43.7568 109.902 45.4002C108.811 47.0436 107.805 48.4328 106.883 49.568C106.247 50.442 105.371 51.6356 104.254 53.1488C103.202 54.6489 102.118 56.1555 101.002 57.6688C99.9372 59.1037 98.9763 60.3822 98.1193 61.5041C97.3274 62.6129 96.8663 63.1805 96.7362 63.2068L91.4747 60.308C92.0605 60.1894 92.6199 59.9407 93.153 59.5619C93.621 59.1961 94.0825 58.7979 94.5373 58.3671C97.9157 54.9734 100.825 51.2682 103.264 47.2515C105.768 43.2216 108.155 38.9445 110.424 34.4203C110.514 34.1987 110.728 33.5796 111.064 32.563C111.452 31.4682 111.854 30.2691 112.267 28.9658C112.668 27.5975 113.075 26.2617 113.489 24.9584C113.89 23.59 114.18 22.5149 114.361 21.7331C114.58 20.808 114.67 20.0785 114.629 19.5446C114.654 18.9976 114.673 18.5873 114.685 18.3138C114.749 17.962 114.899 17.6947 115.133 17.5118C115.367 17.329 115.907 17.1519 116.753 16.9807C116.883 16.9544 117.182 16.9276 117.651 16.9005C118.185 16.8603 118.524 16.8595 118.667 16.8982C119.869 18.4844 120.933 19.895 121.861 21.1301C122.788 22.3653 123.605 23.5551 124.311 24.6995C125.003 25.7789 125.573 26.9172 126.018 28.1143C126.529 29.2983 126.935 30.6388 127.238 32.1358C126.827 34.4549 126.331 36.8588 125.75 39.3476C125.157 41.7712 124.706 44.0644 124.399 46.227C124.091 48.3895 124.004 50.3042 124.138 51.9708C124.337 53.6244 124.958 54.8537 126.002 55.6588C127.098 56.3856 128.694 56.5708 130.79 56.2145C132.951 55.8449 135.865 54.6793 139.533 52.7175C140.68 53.0274 140.909 53.6586 140.221 54.6108C139.52 55.498 138.357 56.4448 136.731 57.4513C135.17 58.4446 133.395 59.3798 131.404 60.2568C129.466 61.0556 127.793 61.4957 126.387 61.577C125.15 61.8273 124.069 61.8427 123.144 61.6234C122.271 61.3258 121.501 60.8718 120.836 60.2612C120.235 59.6374 119.713 58.8963 119.268 58.0377C118.888 57.166 118.6 56.242 118.402 55.2657Z" fill="#F5F4F0"/>
<path d="M55.5698 69.1994C55.4049 65.3709 55.8199 61.7299 56.8149 58.2765C57.8099 54.8231 59.1183 51.7466 60.7401 49.0471C62.4139 46.2693 64.3359 43.8817 66.5063 41.8842C68.6767 39.8867 70.894 38.4557 73.1581 37.591C75.409 36.6613 77.5767 36.3243 79.661 36.58C81.8104 36.8226 83.701 37.7951 85.3327 39.4975C85.6357 40.9945 85.5674 42.4988 85.128 44.0105C84.7538 45.5091 84.2818 47.0274 83.7123 48.5654C83.2078 50.0903 82.7425 51.6411 82.3163 53.2179C81.9551 54.7815 81.9392 56.3769 82.2685 58.0041C82.6109 59.6964 83.2455 60.9908 84.1722 61.8873C85.1508 62.7055 86.5838 62.9237 88.4713 62.5418C90.0334 62.2257 91.4843 61.6949 92.8241 60.9496C94.2289 60.1911 95.6798 59.6603 97.1768 59.3574C97.4371 59.3047 97.8668 59.2517 98.4657 59.1982C99.1166 59.0665 99.5397 58.9809 99.7349 58.9414C99.1778 60.2059 98.3599 61.3538 97.2813 62.3851C96.2027 63.4164 95.0392 64.3632 93.7909 65.2256C92.5295 66.0229 91.1766 66.7031 89.7323 67.2664C88.353 67.8165 87.0451 68.2167 85.8084 68.4669C84.6369 68.704 83.5428 68.6543 82.5262 68.318C81.5096 67.9817 80.5903 67.4564 79.7682 66.7419C78.9461 66.0275 78.2344 65.1891 77.6332 64.2267C77.0839 63.1861 76.7038 62.1451 76.4931 61.1037C75.7407 62.4077 74.9038 63.7966 73.9825 65.2703C73.1131 66.6658 72.1263 67.9834 71.0221 69.2231C69.983 70.4496 68.7808 71.5398 67.4155 72.4936C66.1153 73.4342 64.6841 74.0626 63.122 74.3787C61.4298 74.7211 59.8402 74.3991 58.3533 73.4127C56.8532 72.3612 55.9254 70.9568 55.5698 69.1994ZM61.401 64.869C61.5064 65.3897 61.6249 65.9755 61.7566 66.6263C61.9534 67.264 62.4621 67.6015 63.2826 67.6387C64.8308 66.9189 66.5146 65.6974 68.3339 63.9742C70.1401 62.186 71.7767 60.2288 73.2435 58.1026C74.6972 55.9114 75.8382 53.6819 76.6666 51.4139C77.4818 49.0809 77.6984 46.9706 77.3164 45.0831C77.2901 44.9529 77.2181 44.7642 77.1003 44.5171C77.0344 44.1916 76.9883 43.9638 76.962 43.8336C74.749 44.2814 72.5957 45.1914 70.5021 46.5636C68.4084 47.9358 66.615 49.6199 65.1218 51.6158C63.6154 53.5467 62.4872 55.672 61.7371 57.9919C61.0521 60.2986 60.94 62.5909 61.401 64.869Z" fill="#F5F4F0"/>
<path d="M39.0512 74.4729C38.2873 70.6979 38.005 66.7915 38.2042 62.7538C38.4554 58.6378 38.9475 54.5409 39.6806 50.4629C40.4788 46.3718 41.401 42.391 42.4472 38.5207C43.4802 34.5853 44.4616 30.8975 45.3915 27.4572L45.1347 26.188C44.5768 27.114 43.688 28.5811 42.4683 30.5895C41.3006 32.5195 39.9511 34.7235 38.42 37.2014C36.9539 39.6662 35.384 42.2874 33.7103 45.0652C32.0884 47.7647 30.5119 50.3534 28.9808 52.8313C27.5147 55.296 26.2044 57.526 25.0498 59.5212C23.8821 61.4513 23.0192 62.8793 22.4613 63.8052C21.9034 64.7311 21.4571 66.041 21.1223 67.7348C20.7743 69.3635 20.3679 71.0379 19.9029 72.758C19.438 74.4782 18.8359 76.0228 18.0966 77.3919C17.4225 78.7479 16.4996 79.5444 15.3281 79.7814C14.3518 79.979 13.551 80.0394 12.9257 79.9627C12.3655 79.8728 11.9157 79.6589 11.5763 79.3211C11.2237 78.9181 10.9491 78.3978 10.7523 77.7601C10.5555 77.1224 10.3649 76.348 10.1805 75.4368C9.20591 70.6203 8.94764 65.8283 9.40571 61.0607C9.9157 56.2149 10.4776 51.2907 11.0914 46.2884L10.8346 45.0192C10.7308 45.1757 10.5491 45.4496 10.2895 45.8409C10.0167 46.1671 9.86097 46.4019 9.82222 46.5452C8.73427 49.2044 7.65328 52.0655 6.57926 55.1284C5.49207 58.1263 4.3398 61.1373 3.12243 64.1614C1.8919 67.1205 0.511432 70.0083 -1.01896 72.8248C-2.54936 75.6413 -4.29515 78.2304 -6.25634 80.5921C-8.23071 82.8886 -10.5053 84.8733 -13.0802 86.5461C-15.5899 88.2058 -18.5045 89.3714 -21.824 90.0431C-22.5399 90.188 -23.5228 90.353 -24.7726 90.5382C-25.9574 90.7102 -27.1685 90.752 -28.4059 90.6636C-29.5782 90.5621 -30.6599 90.2389 -31.6509 89.6942C-32.5768 89.1363 -33.1715 88.2064 -33.4349 86.9047C-33.5402 86.384 -33.3791 85.6739 -32.9513 84.7743C-32.4717 83.7964 -32.037 83.0987 -31.6472 82.6811C-30.4331 83.9937 -29.4804 84.8511 -28.7893 85.2533C-28.0462 85.5772 -27.0889 85.6206 -25.9173 85.3835C-23.9647 84.9884 -21.9737 84.2806 -19.9444 83.2602C-17.8631 82.1616 -15.919 80.8874 -14.112 79.4377C-12.24 77.9749 -10.531 76.3756 -8.98516 74.64C-7.4393 72.9044 -6.19951 71.163 -5.26577 69.4158C-4.55287 67.9165 -3.71715 66.0197 -2.75861 63.7254C-1.74814 61.3529 -0.70552 58.8045 0.369264 56.0801C1.49597 53.2776 2.64863 50.4359 3.82724 47.555C5.00586 44.6742 6.14573 41.9367 7.24686 39.3426C8.3999 36.6702 9.47545 34.2845 10.4735 32.1855C11.4716 30.0865 12.3666 28.4826 13.1585 27.3738C14.0697 27.1894 14.786 27.2138 15.3075 27.4471C15.8158 27.6152 16.2202 27.9399 16.5209 28.4211C16.8215 28.9023 17.0442 29.5008 17.1891 30.2168C17.334 30.9328 17.4855 31.6813 17.6435 32.4623C18.1967 35.196 18.3136 37.9501 17.9943 40.7248C17.74 43.4864 17.375 46.2026 16.8992 48.8734C16.4102 51.4792 15.9797 54.0393 15.6077 56.5536C15.3008 59.0548 15.3778 61.4444 15.8388 63.7225C15.8651 63.8526 15.9112 64.0804 15.9771 64.4059C16.108 64.7181 16.1866 64.9394 16.213 65.0695C20.9614 57.0625 25.0482 50.1378 28.4731 44.2956C31.8981 38.4534 34.7911 33.498 37.1522 29.4294C39.5651 25.2825 41.5306 21.9375 43.0486 19.3946C44.5534 16.7865 45.7731 14.7781 46.7076 13.3695C47.6289 11.8958 48.3364 10.8718 48.83 10.2977C49.3887 9.71038 49.8633 9.37721 50.2538 9.29818C50.9046 9.16648 51.4323 9.26296 51.8368 9.58763C52.2412 9.9123 52.5287 10.3284 52.6991 10.8359C52.9347 11.3303 53.0792 11.8769 53.1326 12.4759C53.2511 13.0617 53.3499 13.5498 53.4289 13.9404C53.9821 16.674 54.0277 19.5781 53.5658 22.6527C53.1559 25.649 52.4727 28.8022 51.5165 32.1123C50.6122 35.3441 49.5583 38.674 48.3549 42.1018C47.2033 45.4514 46.1692 48.8789 45.2525 52.3843C44.4008 55.8765 43.7901 59.3877 43.4204 62.9178C43.1027 66.3697 43.2928 69.8205 43.9908 73.2701C44.3464 75.0275 44.6424 76.3226 44.8787 77.1556C45.1018 77.9235 45.4288 78.5348 45.8596 78.9897C46.3035 79.5096 46.9428 79.99 47.7773 80.4309C48.6249 80.9369 49.8379 81.7416 51.4162 82.845C50.0904 83.9941 48.6918 84.6159 47.2204 84.7104C45.8272 84.8568 44.5112 84.5472 43.2722 83.7816C42.0984 83.0028 41.1124 81.8134 40.3144 80.2134C39.5163 78.6133 39.0953 76.6998 39.0512 74.4729Z" fill="#F5F4F0"/>
<path d="M179.905 101.626C179.629 99.9109 179.678 98.1437 180.053 96.3241C180.427 94.5045 180.925 92.6954 181.545 90.8969C182.157 89.0393 182.772 87.2112 183.393 85.4127C184.073 83.6047 184.521 81.8643 184.737 80.1915C183.718 81.0228 182.804 81.5642 181.995 81.8156C181.236 81.9985 180.295 82.1803 179.171 82.361C179.053 82.3801 178.668 82.4419 178.018 82.5466C177.417 82.5826 177.028 82.6149 176.85 82.6434C176.996 81.2853 177.461 80.0275 178.245 78.87C179.02 77.6533 179.942 76.595 181.01 75.6951C182.129 74.7266 183.3 73.9011 184.525 73.2187C185.799 72.4676 186.945 71.8586 187.962 71.3917C189.289 68.3269 190.29 65.3144 190.967 62.3543C191.634 59.335 192.315 56.4044 193.01 53.5625C193.755 50.652 194.701 47.8608 195.849 45.1889C197.046 42.4483 198.808 39.8291 201.137 37.3312L202.122 40.6305L195.216 68.4045C195.838 68.1224 196.608 67.8165 197.526 67.4869C198.443 67.1573 199.361 66.8276 200.278 66.498C201.255 66.1588 202.178 65.8587 203.046 65.5978C203.963 65.2681 204.733 64.9623 205.355 64.6802C205.414 64.6707 205.592 64.6421 205.887 64.5946C206.173 64.4878 206.405 64.4202 206.583 64.3917C207.41 64.2585 208.114 64.2969 208.694 64.5069C209.274 64.717 209.822 65.2961 210.339 66.2443C206.508 68.074 203.071 69.901 200.028 71.7253C196.984 73.5496 194.422 75.7212 192.34 78.2402C190.307 80.6905 188.784 83.6656 187.77 87.1654C186.805 90.5966 186.432 94.873 186.649 99.9947C186.82 101.059 187.037 102.025 187.298 102.893C187.559 103.761 188.383 104.175 189.772 104.133C191.132 103.914 192.361 103.444 193.458 102.721C194.555 101.999 195.618 101.251 196.646 100.479C197.665 99.6479 198.693 98.8758 199.731 98.1628C200.828 97.4402 202.057 96.9696 203.417 96.7507C203.645 98.17 203.234 99.5709 202.182 100.953C201.131 102.336 199.789 103.613 198.158 104.786C196.586 105.949 194.921 106.914 193.164 107.682C191.407 108.45 189.937 108.93 188.754 109.12C187.572 109.31 186.469 109.245 185.447 108.924C184.425 108.603 183.526 108.111 182.752 107.447C182.028 106.714 181.402 105.844 180.876 104.836C180.409 103.82 180.086 102.749 179.905 101.626Z" fill="#F5F4F0"/>
<path d="M159.063 106.038C158.747 104.071 158.85 102.204 159.373 100.439C159.951 98.597 160.61 96.843 161.351 95.1768C162.092 93.5106 162.735 91.8603 163.279 90.2257C163.888 88.5806 164.056 86.9058 163.782 85.2011C163.719 84.8078 163.612 84.3541 163.462 83.8401C163.367 83.2501 163.212 82.7033 162.996 82.1999C162.846 81.686 162.581 81.2915 162.201 81.0164C161.875 80.6652 161.483 80.5265 161.024 80.6004C160.958 80.6109 160.832 80.6648 160.646 80.762C160.515 80.7831 160.455 80.8264 160.465 80.892C159.748 82.2854 158.86 83.8743 157.802 85.6588C156.799 87.3672 155.698 89.0914 154.498 90.8314C153.298 92.5715 152.121 94.2406 150.965 95.839C149.81 97.4374 148.749 98.7851 147.782 99.8824C147.111 100.73 146.188 101.888 145.011 103.355C143.9 104.812 142.757 106.273 141.58 107.741C140.459 109.132 139.448 110.371 138.546 111.457C137.711 112.534 137.227 113.082 137.096 113.103L131.955 109.996C132.545 109.901 133.114 109.675 133.662 109.317C134.144 108.971 134.621 108.591 135.093 108.179C138.605 104.924 141.66 101.338 144.259 97.4225C146.923 93.4964 149.479 89.3185 151.927 84.8889C152.027 84.6711 152.265 84.0611 152.642 83.0588C153.074 81.9804 153.522 80.7984 153.988 79.5128C154.443 78.1616 154.904 76.8432 155.37 75.5576C155.825 74.2064 156.158 73.1438 156.37 72.3699C156.626 71.4543 156.745 70.7289 156.726 70.1939C156.773 69.6483 156.808 69.2391 156.831 68.9663C156.91 68.6174 157.07 68.3563 157.311 68.1829C157.552 68.0096 158.099 67.8544 158.951 67.7172C159.082 67.6961 159.382 67.6815 159.852 67.6732C160.387 67.6543 160.725 67.6672 160.867 67.7116C162.004 69.3447 163.011 70.7969 163.888 72.0682C164.766 73.3396 165.534 74.5612 166.193 75.733C166.842 76.8393 167.365 77.9995 167.762 79.2135C168.225 80.417 168.577 81.7728 168.82 83.2807C168.316 85.5814 167.724 87.9635 167.044 90.427C166.354 92.8249 165.811 95.0981 165.417 97.2466C165.023 99.3951 164.86 101.305 164.927 102.975C165.059 104.636 165.631 105.889 166.641 106.735C167.707 107.505 169.294 107.754 171.403 107.482C173.577 107.2 176.536 106.152 180.28 104.339C181.413 104.695 181.617 105.335 180.891 106.258C180.155 107.117 178.954 108.016 177.29 108.957C175.69 109.887 173.879 110.75 171.855 111.546C169.885 112.267 168.197 112.639 166.788 112.664C165.542 112.865 164.462 112.837 163.546 112.58C162.686 112.248 161.935 111.763 161.294 111.127C160.719 110.479 160.227 109.718 159.817 108.842C159.473 107.956 159.221 107.021 159.063 106.038Z" fill="#F5F4F0"/>
<path d="M111.224 113.029C111.182 112.766 111.097 112.242 110.971 111.455C110.899 110.592 110.842 110.03 110.8 109.767C112.128 104.644 114.104 99.7857 116.728 95.1934C119.352 90.601 122.476 86.399 126.1 82.5874C126.232 82.5663 126.423 82.5019 126.675 82.3942C126.981 82.2103 127.2 82.1078 127.331 82.0867C129.102 81.8019 130.607 81.9632 131.848 82.5706C133.145 83.1019 134.221 83.9377 135.077 85.0779C135.988 86.142 136.696 87.4069 137.201 88.8726C137.695 90.2728 138.053 91.6613 138.275 93.0382C138.686 95.5951 138.528 98.3782 137.802 101.387C137.065 104.331 135.87 107.146 134.217 109.833C132.62 112.445 130.664 114.71 128.349 116.629C126.024 118.483 123.485 119.631 120.731 120.075C117.978 120.518 115.797 120.129 114.188 118.908C112.634 117.611 111.646 115.651 111.224 113.029ZM118.705 110.614C118.821 111.335 119.195 111.78 119.827 111.947C120.46 112.114 121.071 112.151 121.661 112.056C123.3 111.792 124.805 111.113 126.176 110.018C127.601 108.846 128.799 107.51 129.768 106.009C130.792 104.432 131.533 102.766 131.991 101.011C132.448 99.2556 132.555 97.6241 132.313 96.1161C132.197 95.3949 132.005 94.6187 131.736 93.7875C131.523 92.8802 131.2 92.125 130.767 91.5222C130.323 90.8537 129.708 90.3808 128.924 90.1035C128.205 89.8156 127.244 89.903 126.04 90.3657C125.154 90.71 124.242 91.7311 123.305 93.429C122.367 95.1268 121.505 97.0816 120.717 99.2934C119.985 101.429 119.421 103.571 119.027 105.72C118.622 107.803 118.515 109.434 118.705 110.614Z" fill="#F5F4F0"/>
<path d="M60.8957 157.85C60.8852 157.785 60.8969 157.649 60.9308 157.441C60.8991 157.245 60.878 157.113 60.8675 157.048C60.9014 156.841 60.9523 156.53 61.0201 156.115C61.0985 155.766 61.1716 155.385 61.2394 154.97C61.3073 154.556 61.3751 154.141 61.4429 153.727C61.5213 153.378 61.5827 153.133 61.6272 152.991C61.8729 152.01 62.2912 150.429 62.882 148.249C63.4834 146.134 64.1685 143.704 64.9372 140.957C65.7165 138.276 66.5402 135.453 67.4085 132.488C68.2111 129.534 69.002 126.716 69.7813 124.035C70.55 121.288 71.2351 118.857 71.8365 116.743C72.493 114.552 72.9715 112.928 73.2722 111.871C73.903 110.357 74.8247 108.561 76.0373 106.482C77.3154 104.393 78.7522 102.245 80.3476 100.038C81.943 97.8308 83.6801 95.668 85.5588 93.5497C87.4926 91.3553 89.3977 89.4009 91.2742 87.6865C93.2057 85.896 95.1191 84.411 97.0145 83.2317C98.8992 81.9868 100.628 81.2378 102.202 80.9846C104.562 80.6048 106.303 80.762 107.423 81.4561C108.544 82.1502 109.315 83.8085 109.737 86.431C110.191 89.2502 110.087 92.1591 109.426 95.1576C108.82 98.08 107.8 100.935 106.365 103.721C104.93 106.508 103.13 109.118 100.966 111.552C98.8669 113.974 96.5462 116.063 94.0035 117.817C91.5264 119.561 88.8877 120.927 86.0873 121.916C83.2764 122.839 80.4741 123.189 77.6805 122.966L76.6078 124.45L68.9498 158.371C68.848 158.992 68.3488 159.443 67.452 159.721C66.5657 160.066 65.8276 160.285 65.2375 160.38C64.3852 160.518 63.4854 160.36 62.5382 159.907C61.6014 159.519 61.054 158.834 60.8957 157.85ZM99.2149 102.551C101.769 98.7773 103.352 95.8659 103.964 93.8169C104.565 91.7023 104.54 90.2938 103.889 89.5914C103.238 88.8891 102.142 88.7628 100.6 89.2127C99.0581 89.6626 97.3775 90.5047 95.5583 91.739C93.7391 92.9734 91.9346 94.508 90.1448 96.343C88.4205 98.1674 87.0452 100.07 86.0187 102.051C85.5342 102.802 84.9554 103.803 84.2824 105.055C83.5989 106.241 82.9206 107.46 82.2476 108.712C81.6296 109.887 81.0942 110.949 80.6413 111.896C80.1883 112.843 79.9724 113.382 79.9935 113.513L80.3258 115.579C84.8496 114.851 88.6124 113.573 91.614 111.745C94.605 109.851 97.1387 106.786 99.2149 102.551Z" fill="#F5F4F0"/>
<path d="M42.5546 127.306C41.0392 124.994 40.1572 122.647 39.9085 120.266C39.6494 117.819 39.8099 115.472 40.3902 113.227C41.0256 110.905 41.9601 108.77 43.1937 106.823C44.4824 104.8 45.9117 103.023 47.4814 101.492C49.0406 99.8962 50.6526 98.628 52.3173 97.6875C54.0476 96.7365 55.6117 96.2158 57.0096 96.1254C58.397 95.9694 59.5579 96.2871 60.4923 97.0784C61.4268 97.8697 61.9158 99.2371 61.9595 101.181C62.3709 103.738 61.91 106.099 60.5769 108.264C59.3093 110.418 57.8134 112.408 56.0891 114.232C54.4304 116.046 52.8817 117.708 51.4431 119.217C50.0595 120.65 49.452 121.891 49.6208 122.94C49.7158 123.531 50.1174 123.937 50.8258 124.159C51.5997 124.371 52.4615 124.501 53.411 124.55C54.35 124.534 55.2837 124.484 56.2121 124.402C57.1405 124.32 57.8067 124.28 58.2107 124.282C64.1626 121.98 68.6582 120.449 71.6975 119.691C74.7262 118.867 76.6656 118.589 77.5156 118.856C78.3551 119.057 78.2809 119.641 77.2929 120.607C76.3599 121.497 74.8474 122.547 72.7554 123.758C70.6529 124.904 68.1792 126.041 65.3343 127.172C62.4895 128.302 59.6352 129.165 56.7715 129.76C53.8973 130.29 51.1618 130.427 48.5649 130.173C46.0336 129.907 44.0301 128.952 42.5546 127.306ZM56.1572 102.114C54.8459 102.325 53.6582 102.886 52.5941 103.797C51.5301 104.708 50.5959 105.8 49.7918 107.073C49.0427 108.27 48.4459 109.577 48.0012 110.993C47.546 112.344 47.2442 113.604 47.0957 114.771C47.2374 114.815 47.341 114.832 47.4065 114.822L47.7016 114.774C48.6195 114.627 49.6052 114.065 50.6587 113.088C51.7123 112.111 52.6739 110.981 53.5436 109.698C54.4027 108.349 55.0926 106.994 55.6134 105.632C56.1342 104.27 56.3154 103.098 56.1572 102.114Z" fill="#F5F4F0"/>
<path d="M19.1032 128.557C18.7867 126.59 18.89 124.724 19.413 122.958C19.9911 121.116 20.6505 119.362 21.3913 117.696C22.1321 116.03 22.7746 114.38 23.3187 112.745C23.9284 111.1 24.0961 109.425 23.8219 107.72C23.7586 107.327 23.6519 106.873 23.502 106.359C23.407 105.769 23.2518 105.223 23.0363 104.719C22.8863 104.205 22.6211 103.811 22.2405 103.536C21.915 103.185 21.5227 103.046 21.0638 103.12C20.9982 103.13 20.8724 103.184 20.6862 103.281C20.5551 103.302 20.4948 103.346 20.5054 103.411C19.7879 104.805 18.9002 106.394 17.8421 108.178C16.839 109.887 15.7376 111.611 14.5378 113.351C13.3381 115.091 12.1605 116.76 11.0052 118.358C9.84994 119.957 8.78885 121.304 7.82197 122.402C7.15125 123.249 6.2277 124.407 5.0513 125.874C3.94047 127.331 2.79686 128.793 1.62047 130.26C0.499093 131.651 -0.512258 132.89 -1.41358 133.977C-2.24934 135.053 -2.73278 135.601 -2.86391 135.623L-8.00487 132.515C-7.41481 132.42 -6.84584 132.194 -6.29796 131.837C-5.81566 131.49 -5.33862 131.111 -4.86686 130.699C-1.35504 127.443 1.70011 123.858 4.29858 119.942C6.96262 116.016 9.51891 111.838 11.9674 107.408C12.0669 107.19 12.3051 106.58 12.6819 105.578C13.1137 104.5 13.5625 103.318 14.0282 102.032C14.4834 100.681 14.9439 99.3626 15.4097 98.0769C15.8649 96.7257 16.1984 95.6632 16.4101 94.8892C16.6664 93.9736 16.7851 93.2483 16.7662 92.7132C16.813 92.1676 16.848 91.7584 16.8714 91.4856C16.9498 91.1367 17.1095 90.8756 17.3507 90.7023C17.5919 90.529 18.1386 90.3737 18.9909 90.2366C19.122 90.2155 19.4223 90.2008 19.8918 90.1925C20.4269 90.1737 20.7653 90.1865 20.9069 90.231C22.0441 91.864 23.0512 93.3162 23.9284 94.5876C24.8055 95.8589 25.5738 97.0805 26.2332 98.2524C26.882 99.3587 27.405 100.519 27.8021 101.733C28.2648 102.936 28.6174 104.292 28.8601 105.8C28.3559 108.101 27.7639 110.483 27.0841 112.946C26.3937 115.344 25.8515 117.617 25.4573 119.766C25.0631 121.914 24.8995 123.824 24.9666 125.495C25.0992 127.155 25.6708 128.408 26.6813 129.255C27.7469 130.025 29.3339 130.274 31.4425 130.002C33.6166 129.719 36.5756 128.671 40.3195 126.858C41.4529 127.214 41.6568 127.854 40.9311 128.778C40.1948 129.636 38.9943 130.536 37.3296 131.476C35.7304 132.406 33.9188 133.269 31.8946 134.066C29.9254 134.786 28.2366 135.159 26.8281 135.183C25.5824 135.384 24.5018 135.356 23.5862 135.1C22.7256 134.767 21.975 134.283 21.3345 133.646C20.7595 132.999 20.267 132.237 19.8571 131.361C19.5127 130.475 19.2614 129.54 19.1032 128.557Z" fill="#F5F4F0"/>
</svg>
